<svg width="257" height="60" viewBox="0 0 257 60" fill="none" xmlns="http://www.w3.org/2000/svg">
<g clip-path="url(#clip0_39_208074)">
<path d="M256.973 12.0641C256.973 13.2641 256.021 14.2284 254.785 14.2284C253.548 14.2284 252.596 13.2641 252.596 12.0641C252.596 10.864 253.548 9.89974 254.785 9.89974C256.021 9.89974 256.973 10.864 256.973 12.0641ZM256.568 12.0641C256.568 11.0756 255.807 10.2806 254.785 10.2806C253.763 10.2806 253.001 11.0756 253.001 12.0641C253.001 13.0525 253.763 13.8475 254.785 13.8475C255.807 13.8475 256.568 13.0495 256.568 12.0641ZM254.987 10.9759C255.401 10.9759 255.728 11.2116 255.728 11.6258C255.728 11.9522 255.538 12.1759 255.256 12.2636L255.794 13.1493H255.302L254.809 12.2968H254.428V13.1493H254.002V10.9728H254.99L254.987 10.9759ZM254.425 11.9855H254.897C255.12 11.9855 255.29 11.8736 255.29 11.65C255.29 11.4263 255.132 11.3235 254.897 11.3235H254.425V11.9855Z" fill="#005674"/>
<path d="M248.446 6.70764C249.492 6.70764 250.423 5.87939 250.423 4.73072C250.423 3.58205 249.564 2.75379 248.446 2.75379C247.43 2.75379 246.469 3.66971 246.469 4.73072C246.469 5.79173 247.331 6.70764 248.446 6.70764Z" fill="#005674"/>
<path d="M251.783 26.2955C250.511 26.1928 250.048 26.0084 250.048 24.7085V10.5164C250.048 10.1174 249.882 9.8937 249.625 9.8937C249.202 9.8937 248.649 10.3622 246.962 11.0514C245.774 11.5351 244.622 11.529 244.622 12.0943C244.622 12.9619 246.705 11.786 246.705 13.3034V24.6541C246.705 26.4044 245.846 26.2381 244.991 26.3106C244.408 26.359 244.226 26.6371 244.226 26.8094C244.226 27.287 244.704 27.2477 245.051 27.2477H251.696C252.086 27.2477 252.584 27.2477 252.584 26.7701C252.584 26.3348 252.149 26.3288 251.78 26.2955H251.783Z" fill="#005674"/>
<path d="M239.214 6.71671C240.26 6.71671 241.191 5.88846 241.191 4.73978C241.191 3.59111 240.333 2.76286 239.214 2.76286C238.199 2.76286 237.237 3.67877 237.237 4.73978C237.237 5.8008 238.099 6.71671 239.214 6.71671Z" fill="#005674"/>
<path d="M242.606 26.3046C241.333 26.2018 240.871 26.0174 240.871 24.7176V10.5255C240.871 10.1265 240.705 9.90276 240.448 9.90276C240.024 9.90276 239.211 10.7492 236.527 10.7492H228.616C228.26 10.7492 228.121 10.5134 228.121 10.1809C228.121 6.32072 227.691 1.9739 231.424 1.9739C233.033 1.9739 233.383 3.31603 234.641 3.31603C235.508 3.31603 236.201 3.01375 236.201 1.8409C236.201 0.801047 235.146 0.235779 233.033 0.235779C227.392 0.235779 224.759 5.2718 224.759 7.36964V9.63675C224.759 10.193 224.696 10.335 224.384 10.5285C223.994 10.7673 223.496 10.8368 222.945 10.994C222.419 11.1482 222.166 11.2116 222.166 11.6016C222.166 12.1215 222.556 12.0792 223.465 12.2062C224.115 12.2938 224.765 12.4238 224.765 13.3337V24.7267C224.765 26.0023 224.415 26.2472 222.888 26.3258C222.392 26.3499 221.903 26.3832 221.903 26.8306C221.903 27.0905 222.069 27.2507 222.661 27.2507H230.826C231.216 27.2507 231.706 27.2477 231.706 26.8124C231.706 26.3771 231.05 26.3137 230.563 26.3016C228.583 26.2502 228.105 26.0174 228.105 24.6723V13.1704C228.105 12.2787 228.251 12.0762 228.843 12.0762H235.826C236.46 12.0762 237.522 12.2182 237.522 13.3216V24.6632C237.522 26.4134 236.663 26.2472 235.808 26.3197C235.224 26.3681 235.043 26.6462 235.043 26.8185C235.043 27.2961 235.52 27.2568 235.868 27.2568H242.512C242.902 27.2568 243.401 27.2568 243.401 26.7792C243.401 26.3439 242.966 26.3378 242.597 26.3046H242.606Z" fill="#005674"/>
<path d="M219.82 23.3513V13.1281C219.82 11.5865 220.053 10.5345 219.191 10.5345H214.179C213.744 10.5345 213.224 10.5769 213.224 11.0121C213.224 11.4897 213.95 11.4474 214.515 11.4837C215.999 11.5774 216.477 11.6862 216.477 13.1221V22.8616C216.477 23.7201 216.462 23.9075 216.053 24.2581C215.301 24.9111 214.007 25.7968 212.009 25.7968C208.581 25.7968 208.363 22.8465 208.363 21.1144V13.1402C208.363 10.7854 208.173 10.5376 207.526 10.5376H197.738C197.128 10.5376 197.043 10.3622 197.043 9.97229L197.07 6.00332C197.07 5.52572 197.019 5.3504 196.653 5.3504C196.469 5.3504 196.236 5.5106 196.039 5.95798C195.622 6.90413 195.09 8.09512 194.25 9.17427C193.567 10.0448 193.02 10.3985 191.862 11.1572C191.517 11.3809 191.457 11.5532 191.457 11.7769C191.457 12.0399 191.674 12.1245 191.801 12.1245H192.76C193.494 12.1245 193.712 12.451 193.712 13.0586V22.8888C193.712 26.1444 195.045 27.6256 198.294 27.6256C201.544 27.6256 202.717 25.4673 202.717 25.032C202.717 24.8416 202.681 24.6481 202.375 24.6481C201.743 24.6481 201.499 26.0114 199.392 26.0114C197.285 26.0114 197.076 24.7146 197.076 22.9342C197.076 20.5038 197.079 16.1993 197.079 13.8566C197.079 12.4691 197.312 12.0157 198.53 12.0157C198.53 12.0157 202.798 12.0006 203.814 12.0308C204.923 12.0641 205.023 12.8409 205.023 13.5241V21.3321C205.023 23.2878 205.066 27.6225 210.878 27.6225C213.221 27.6225 214.705 26.6099 216.483 25.3071L216.492 27.0633C216.492 27.4533 216.691 27.6256 216.906 27.6256C217.332 27.6256 218.024 27.2114 219.336 26.3651C221.132 25.2103 221.909 25.295 221.909 24.7448C221.909 23.7896 219.817 25.1952 219.817 23.3543L219.82 23.3513Z" fill="#005674"/>
<path d="M191.079 26.2895C189.794 26.223 189.431 25.9449 189.431 24.6541V16.1842C189.431 14.2284 189.389 9.8937 183.576 9.8937C181.43 9.8937 179.737 10.9698 177.797 13.0828C177.216 11.4293 175.801 9.8937 172.343 9.8937C170.001 9.8937 168.516 10.9063 166.739 12.2092L166.73 10.4529C166.73 10.063 166.53 9.89067 166.316 9.89067C165.89 9.89067 165.197 10.3048 163.886 11.1512C162.09 12.3059 161.313 12.2213 161.313 12.7714C161.313 13.7266 163.405 12.321 163.405 14.1619V24.6541C163.405 26.1958 162.8 26.223 161.579 26.3046C161.316 26.3197 160.929 26.4829 160.929 26.8275C160.929 27.2114 161.371 27.2447 161.676 27.2447H169.048C169.484 27.2447 170.004 27.2024 170.004 26.7671C170.004 26.2895 169.278 26.3318 168.713 26.2955C167.229 26.2018 166.751 26.093 166.751 24.6572V14.6546C166.751 13.7962 166.766 13.6087 167.174 13.2581C167.927 12.6052 169.221 11.7195 171.219 11.7195C174.647 11.7195 174.864 14.6698 174.864 16.4018V24.6481C174.864 26.5011 173.958 26.1897 172.736 26.3076C172.519 26.3288 172.132 26.3832 172.132 26.8155C172.132 27.2084 172.476 27.2507 172.999 27.2507H180.03C180.635 27.2507 180.94 27.1721 180.94 26.8155C180.94 26.4588 180.472 26.3258 179.855 26.2955C178.57 26.229 178.208 25.9509 178.208 24.6602C178.208 24.6602 178.208 16.1963 178.208 16.1902C178.208 15.4799 178.283 14.7604 178.546 14.0954C178.824 13.3941 179.308 12.8349 179.925 12.4026C180.662 11.8827 181.566 11.7195 182.455 11.7195C185.883 11.7195 186.1 14.6698 186.1 16.4018V24.6481C186.1 26.5011 185.193 26.1897 183.972 26.3076C183.755 26.3288 183.368 26.3832 183.368 26.8155C183.368 27.2084 183.712 27.2507 184.235 27.2507H191.266C191.871 27.2507 192.176 27.1721 192.176 26.8155C192.176 26.4588 191.708 26.3258 191.091 26.2955L191.079 26.2895Z" fill="#005674"/>
<path d="M146.444 17.1908C146.241 17.1182 146.036 17.0487 145.833 16.9792C143.805 16.2779 142.052 15.6733 142.052 13.908C142.052 12.315 143.902 11.4323 145.18 11.4323C146.459 11.4323 147.381 11.8102 148.028 12.5901C148.369 13.0102 148.578 13.4878 148.747 13.8717C148.974 14.3917 149.167 14.839 149.6 14.839C149.781 14.839 150.204 14.7453 150.204 13.8748V12.0278C150.204 11.3991 149.899 11.1421 149.642 11.0424C148.717 10.6554 146.767 10.4106 145.833 10.4106C141.677 10.4106 139.434 12.85 139.434 15.1443V15.1806C139.434 18.1248 142.529 19.1133 144.79 19.8358L145.117 19.9416C146.731 20.4796 148.454 21.2202 148.454 23.2243C148.454 25.3978 146.284 26.5706 144.24 26.5706C141.765 26.5706 141.057 25.2647 140.74 24.2823C140.601 23.8773 140.51 23.4662 140.432 23.1034C140.253 22.2994 140.099 21.6071 139.497 21.6071C138.82 21.6071 138.82 22.3598 138.82 22.6077C138.82 23.0007 138.793 23.4118 138.766 23.8077C138.739 24.2128 138.712 24.63 138.712 25.035C138.712 25.4401 138.712 25.7635 138.793 25.9691C138.884 26.2441 139.035 26.3953 139.328 26.5222C140.616 27.1842 142.795 27.6316 144.023 27.6316C145.676 27.6316 147.435 27.1177 148.732 26.2562C149.817 25.5368 151.111 24.237 151.111 22.1361C151.111 19.0801 148.808 18.0221 146.447 17.1968L146.444 17.1908Z" fill="#005674"/>
<path d="M138.183 26.3681C137.357 26.3167 137.143 26.3076 136.738 26.2774C134.963 26.1474 134.679 25.9419 133.119 22.0878C132.639 20.8998 124.912 0.964281 124.707 0.616657C124.574 0.392968 124.453 0.238804 124.22 0.238804C123.77 0.238804 123.609 0.843368 123.458 1.19402C123.213 1.75324 122.966 2.27619 122.715 2.83843C119.786 9.51585 116.841 15.4496 113.912 22.1271C112.316 25.9419 111.76 26.2441 109.777 26.2381C109.372 26.2381 108.535 26.2502 108.535 26.7973C108.535 27.2326 108.903 27.2507 109.309 27.2507C110.028 27.2538 117.095 27.2507 117.905 27.2507C118.359 27.2538 118.803 27.2356 118.803 26.8034C118.803 26.2834 118.208 26.2562 117.8 26.2532C116.944 26.2532 114.598 26.2502 114.662 24.6874C114.719 23.3422 116.279 20.392 116.878 19.0528C117.667 17.3177 117.712 17.3177 118.703 17.3177L125.29 17.3087C127.448 17.3087 127.134 17.3087 127.99 19.5274C128.398 20.5703 129.888 23.9408 129.849 24.9806C129.794 26.2804 128.08 26.2774 126.907 26.2744C126.457 26.2744 125.602 26.3046 125.602 26.8759C125.602 27.1691 125.804 27.2477 126.309 27.2477C127.588 27.2477 137.599 27.2477 138.019 27.2477C138.488 27.2477 138.597 27.0512 138.597 26.7338C138.597 26.5797 138.536 26.3862 138.186 26.362L138.183 26.3681ZM125.154 16.0361L119.299 16.03C118.803 16.03 118.35 16.03 118.362 15.767C118.368 15.634 118.471 15.3741 118.519 15.2441C119.665 12.6052 120.759 10.0025 121.95 7.36057C122.143 6.91924 122.497 6.05774 122.769 6.05774C122.993 6.05774 123.316 7.01295 123.44 7.36057C124.326 9.88161 125.269 12.2636 126.203 14.7393C126.203 14.8269 126.49 15.5222 126.481 15.6945C126.469 16.0391 126.106 16.0391 125.157 16.0361H125.154Z" fill="#005674"/>
<path d="M159.246 26.2955C157.973 26.1928 157.51 26.0084 157.51 24.7086V10.5164C157.51 10.1174 157.344 9.8937 157.087 9.8937C156.664 9.8937 156.111 10.3622 154.424 11.0514C153.236 11.5351 152.084 11.529 152.084 12.0943C152.084 12.9619 154.167 11.786 154.167 13.3034V24.6541C154.167 26.4044 153.309 26.2381 152.453 26.3106C151.87 26.359 151.688 26.6371 151.688 26.8094C151.688 27.287 152.166 27.2477 152.514 27.2477H159.158C159.548 27.2477 160.047 27.2477 160.047 26.7701C160.047 26.3348 159.611 26.3288 159.243 26.2955H159.246Z" fill="#005674"/>
<path d="M155.579 6.70764C156.625 6.70764 157.556 5.87939 157.556 4.73072C157.556 3.58205 156.697 2.75379 155.579 2.75379C154.563 2.75379 153.602 3.66971 153.602 4.73072C153.602 5.79173 154.463 6.70764 155.579 6.70764Z" fill="#005674"/>
<path d="M109.221 10.5315H104.046C103.484 10.5315 103.221 10.7068 103.221 11.0091C103.221 11.3567 103.592 11.4867 104.082 11.4897C105.119 11.5018 105.866 12.0459 105.866 12.9588C105.866 14.0017 105.303 15.4285 104.826 16.5137L101.963 23.0127C101.833 23.2697 101.749 23.575 101.486 23.575C101.313 23.575 101.229 23.3573 101.096 23.0127L97.8884 13.6511C97.7584 13.3034 97.6254 12.9135 97.6254 12.6989C97.6254 11.6832 98.6501 11.5351 99.5207 11.4837C100.013 11.4535 100.397 11.2993 100.397 11.0454C100.397 10.6585 100.225 10.5315 99.5328 10.5315H93.7108C93.7108 10.5315 93.6897 10.5315 93.6776 10.5315H88.0279C87.6712 10.5315 87.5322 10.2957 87.5322 9.96322C87.5322 6.1061 87.1029 1.76533 90.8301 1.76533C92.4352 1.76533 93.2574 3.10746 94.5149 3.10746C95.3824 3.10746 96.0747 2.80518 96.0747 1.63535C96.0747 0.595498 95.4248 0.0332527 92.9098 0.0332527C87.2783 0.0332527 84.1768 5.06323 84.1768 7.15804V9.42214C84.1768 9.97834 84.1134 10.1204 83.802 10.3139C83.4121 10.5527 82.9163 10.6222 82.3662 10.7794C81.8402 10.9335 81.5893 10.997 81.5893 11.387C81.5893 11.9039 81.9793 11.8646 82.8891 11.9915C83.539 12.0792 84.1859 12.2092 84.1859 13.1191V24.7388C84.1859 26.0144 83.8353 26.2562 82.3118 26.3379C81.816 26.362 81.3293 26.3953 81.3293 26.8427C81.3293 27.1026 81.4956 27.2628 82.0881 27.2628H90.2436C90.6336 27.2628 91.1233 27.2598 91.1233 26.8245C91.1233 26.3892 90.4704 26.3258 89.9807 26.3137C88.0037 26.2623 87.5261 26.0295 87.5261 24.6874V12.9467C87.5261 12.055 87.6712 11.8525 88.2637 11.8525H92.8795C93.339 11.8767 93.7018 12.0308 93.9859 12.8712L98.7075 25.957C98.9252 26.6069 99.4481 27.5863 99.4481 28.2392C99.4481 28.7561 97.7584 33.5443 96.8908 33.5443C96.4132 33.5443 95.8933 33.1543 95.1164 33.1543C94.1189 33.1543 93.3813 33.6319 93.3813 34.7594C93.3813 35.5816 93.9013 36.5338 95.6364 36.5338C97.5014 36.5338 98.1513 35.5393 98.9705 33.6319L107.876 12.8017C108.223 12.0006 108.607 11.529 109.284 11.4595C109.847 11.4021 110.067 11.3477 110.067 10.9789C110.067 10.6766 109.822 10.5345 109.218 10.5345" fill="#005674"/>
<path d="M30.3464 26.3681C29.5211 26.3167 29.3065 26.3076 28.8984 26.2774C27.124 26.1474 26.8369 25.9419 25.2771 22.0847C24.7965 20.8968 17.0641 0.946142 16.8585 0.598518C16.7255 0.374829 16.6046 0.220665 16.3719 0.220665C15.9215 0.220665 15.7613 0.828252 15.6101 1.17588C15.3653 1.73812 15.1174 2.25805 14.8665 2.82332C11.9374 9.50375 8.98711 15.4436 6.05799 22.1271C4.46194 25.9449 3.90272 26.2472 1.91975 26.2411C1.51469 26.2411 0.677368 26.2532 0.677368 26.8034C0.677368 27.2387 1.04615 27.2598 1.45423 27.2598C2.17669 27.2628 9.24707 27.2598 10.0572 27.2598C10.5136 27.2628 10.955 27.2447 10.955 26.8124C10.955 26.2925 10.3595 26.2653 9.95139 26.2623C9.09593 26.2623 6.74719 26.2593 6.81067 24.6965C6.86811 23.3483 8.42788 20.398 9.0264 19.0589C9.81536 17.3208 9.86373 17.3208 10.8552 17.3208L17.445 17.3117C19.6033 17.3117 19.2889 17.3117 20.1443 19.5335C20.5554 20.5764 22.0457 23.9498 22.0064 24.9897C21.952 26.2925 20.2381 26.2895 19.0652 26.2834C18.6148 26.2834 17.7563 26.3137 17.7563 26.885C17.7563 27.1782 17.9588 27.2568 18.4637 27.2568C19.7423 27.2568 29.763 27.2568 30.1831 27.2568C30.6517 27.2568 30.7605 27.0603 30.7605 26.7429C30.7605 26.5887 30.7 26.3953 30.3464 26.3711V26.3681ZM17.3059 16.027L11.4447 16.021C10.9489 16.021 10.4955 16.021 10.5076 15.758C10.5136 15.625 10.6164 15.365 10.6648 15.232C11.8104 12.5901 12.9077 9.98438 14.0987 7.34243C14.2922 6.9011 14.6458 6.0396 14.9179 6.0396C15.1416 6.0396 15.465 6.99481 15.589 7.34243C16.4746 9.86347 17.4178 12.2485 18.3518 14.7272C18.3518 14.8149 18.639 15.5101 18.6299 15.6824C18.6178 16.027 18.2551 16.027 17.3029 16.024L17.3059 16.027Z" fill="#005674"/>
<path d="M78.6994 26.2955C77.4268 26.1928 76.9643 26.0084 76.9643 24.7086V10.5164C76.9643 10.1174 76.798 9.8937 76.5411 9.8937C76.1179 9.8937 75.5647 10.3622 73.878 11.0514C72.69 11.5351 71.5383 11.529 71.5383 12.0943C71.5383 12.9619 73.6211 11.786 73.6211 13.3034V24.6541C73.6211 26.4044 72.7626 26.2381 71.9071 26.3106C71.3237 26.359 71.1423 26.6371 71.1423 26.8094C71.1423 27.287 71.6199 27.2477 71.9676 27.2477H78.6117C79.0017 27.2477 79.5004 27.2477 79.5004 26.7701C79.5004 26.3348 79.0651 26.3288 78.6964 26.2955H78.6994Z" fill="#005674"/>
<path d="M75.0297 6.70764C76.0756 6.70764 77.0066 5.87939 77.0066 4.73072C77.0066 3.58205 76.1481 2.75379 75.0297 2.75379C74.014 2.75379 73.0527 3.66971 73.0527 4.73072C73.0527 5.79173 73.9142 6.70764 75.0297 6.70764Z" fill="#005674"/>
<path d="M58.3588 26.2955C57.0862 26.1928 56.6237 26.0084 56.6237 24.7086V10.5164C56.6237 10.1174 56.4575 9.8937 56.2005 9.8937C55.7773 9.8937 55.2241 10.3622 53.5374 11.0514C52.3494 11.5351 51.1977 11.529 51.1977 12.0943C51.1977 12.9619 53.2805 11.786 53.2805 13.3034V24.6541C53.2805 26.4044 52.422 26.2381 51.5665 26.3106C50.9831 26.359 50.8018 26.6371 50.8018 26.8094C50.8018 27.287 51.2794 27.2477 51.627 27.2477H58.2711C58.6611 27.2477 59.1599 27.2477 59.1599 26.7701C59.1599 26.3348 58.7246 26.3288 58.3558 26.2955H58.3588Z" fill="#005674"/>
<path d="M54.6921 6.70764C55.738 6.70764 56.6691 5.87939 56.6691 4.73072C56.6691 3.58205 55.8106 2.75379 54.6921 2.75379C53.6765 2.75379 52.7152 3.66971 52.7152 4.73072C52.7152 5.79173 53.5767 6.70764 54.6921 6.70764Z" fill="#005674"/>
<path d="M40.7903 9.79999C37.9851 9.79999 36.7336 10.3955 35.597 11.2116C35.1497 11.5321 35.065 11.2449 35.065 10.9638C35.065 9.59141 35.0681 0.622701 35.0681 0.622701C35.0681 0.223689 34.9018 0 34.6449 0C34.2217 0 33.6685 0.468537 31.9818 1.15774C30.7938 1.64139 29.6421 1.63535 29.6421 2.20061C29.6421 3.06816 31.7248 1.89229 31.7248 3.40974C31.7248 3.40974 31.7369 19.6 31.7369 26.362C31.7369 27.0361 31.9757 27.1117 32.2296 27.1117C32.6558 27.1117 32.8221 26.8034 32.9219 26.6945C33.2272 26.353 33.4055 26.2713 33.8136 26.2713C34.657 26.2713 36.5039 27.3535 39.8804 27.3535C46.2465 27.3535 49.7559 23.5085 49.7559 18.3697C49.7559 13.2309 45.6842 9.79697 40.7903 9.79697V9.79999ZM40.5303 26.1444C37.441 26.1444 36.5432 25.2557 35.7361 24.4486C35.3975 24.107 35.0741 23.3604 35.0741 22.3447V14.2133C35.0741 12.6989 35.2041 11.6167 39.0128 11.6167C40.6149 11.6167 46.2434 12.4419 46.2434 19.2796C46.2434 22.0061 44.5537 26.1444 40.5303 26.1444Z" fill="#005674"/>
<path d="M68.452 26.2925C66.9043 26.1474 66.8318 25.7968 66.8318 24.6813V0.622701C66.8318 0.223689 66.6655 0 66.4116 0C65.9884 0 65.4352 0.468537 63.7485 1.15774C62.5605 1.64139 61.4088 1.63535 61.4088 2.20061C61.4088 3.06816 63.4916 1.89229 63.4916 3.40974V24.6723C63.4916 26.0174 63.156 26.2381 61.832 26.3016C61.5146 26.3167 60.8768 26.4285 60.8768 26.8245C60.8768 27.1268 61.1791 27.2538 61.4814 27.2538H68.6908C68.9508 27.2538 69.38 27.1721 69.38 26.7822C69.38 26.3923 69.0868 26.353 68.452 26.2925Z" fill="#005674"/>
<path d="M97.976 45.5025C97.5589 45.9983 96.9603 46.3006 96.0837 46.3006C94.5058 46.3006 93.6715 45.3302 93.6715 43.8793C93.6715 42.4283 94.4967 41.4489 95.9628 41.4489C97.4289 41.4489 98.1392 42.4465 98.1392 43.7312C98.1392 43.9035 98.1302 44.1211 98.106 44.2511H94.8685C94.9562 44.9615 95.3371 45.4058 96.1079 45.4058C96.5583 45.4058 96.9422 45.2244 97.2264 44.8405L97.973 45.4995L97.976 45.5025ZM96.9785 43.4621C96.9271 42.8032 96.6399 42.3437 95.9537 42.3437C95.2676 42.3437 94.9381 42.7941 94.8685 43.4621H96.9785Z" fill="#005674"/>
<path d="M101.528 46.2038L100.503 44.5383H100.485L99.4693 46.2038H98.2028L99.7988 43.8249L98.2813 41.5426H99.5902L100.545 43.1054H100.564L101.501 41.5426H102.758L101.25 43.8158L102.837 46.2008H101.528V46.2038Z" fill="#005674"/>
<path d="M103 41.5457H103.876V40.0705H105.04V41.5457H106.098V42.3951H105.04V44.6864C105.04 45.1549 105.179 45.3907 105.751 45.3907C105.881 45.3907 106.002 45.3816 106.098 45.3635V46.2129C105.899 46.2643 105.621 46.3006 105.327 46.3006C104.33 46.3006 103.88 45.8048 103.88 44.9373V42.3951H103.003V41.5457H103Z" fill="#005674"/>
<path d="M110.639 45.5025C110.221 45.9983 109.623 46.3006 108.746 46.3006C107.168 46.3006 106.334 45.3302 106.334 43.8793C106.334 42.4283 107.159 41.4489 108.625 41.4489C110.091 41.4489 110.802 42.4465 110.802 43.7312C110.802 43.9035 110.793 44.1211 110.769 44.2511H107.531C107.619 44.9615 108 45.4058 108.771 45.4058C109.221 45.4058 109.605 45.2244 109.889 44.8405L110.636 45.4995L110.639 45.5025ZM109.641 43.4621C109.59 42.8032 109.303 42.3437 108.616 42.3437C107.93 42.3437 107.601 42.7941 107.531 43.4621H109.641Z" fill="#005674"/>
<path d="M111.539 41.5457H112.643L112.67 42.2046H112.688C112.975 41.7361 113.477 41.4489 114.112 41.4489C115.091 41.4489 115.726 42.0898 115.726 43.0541V46.2038H114.553V43.2264C114.553 42.7488 114.266 42.3679 113.719 42.3679C113.093 42.3679 112.712 42.8092 112.712 43.4017V46.2038H111.539V41.5457Z" fill="#005674"/>
<path d="M116.433 43.9125C116.433 42.5251 117.222 41.4489 118.474 41.4489C119.063 41.4489 119.559 41.6998 119.907 42.1502H119.925V39.5385H121.095V46.2038H119.991L119.964 45.5025H119.946C119.589 46.0134 119.042 46.3006 118.428 46.3006C117.18 46.3006 116.433 45.2426 116.433 43.9156V43.9125ZM119.955 43.8702C119.955 42.9664 119.538 42.3679 118.785 42.3679C118.032 42.3679 117.621 43.0631 117.621 43.8853C117.621 44.6652 117.987 45.3786 118.767 45.3786C119.547 45.3786 119.955 44.7378 119.955 43.8702Z" fill="#005674"/>
<path d="M126.137 45.5025C125.719 45.9983 125.121 46.3006 124.244 46.3006C122.666 46.3006 121.832 45.3302 121.832 43.8793C121.832 42.4283 122.657 41.4489 124.123 41.4489C125.59 41.4489 126.3 42.4465 126.3 43.7312C126.3 43.9035 126.291 44.1211 126.267 44.2511H123.029C123.117 44.9615 123.498 45.4058 124.269 45.4058C124.719 45.4058 125.103 45.2244 125.387 44.8405L126.134 45.4995L126.137 45.5025ZM125.139 43.4621C125.088 42.8032 124.801 42.3437 124.114 42.3437C123.428 42.3437 123.099 42.7941 123.029 43.4621H125.139Z" fill="#005674"/>
<path d="M126.768 43.9125C126.768 42.5251 127.557 41.4489 128.809 41.4489C129.398 41.4489 129.894 41.6998 130.242 42.1502H130.26V39.5385H131.433V46.2038H130.329L130.302 45.5025H130.284C129.927 46.0134 129.38 46.3006 128.767 46.3006C127.518 46.3006 126.771 45.2426 126.771 43.9156L126.768 43.9125ZM130.29 43.8702C130.29 42.9664 129.873 42.3679 129.12 42.3679C128.368 42.3679 127.956 43.0631 127.956 43.8853C127.956 44.6652 128.322 45.3786 129.102 45.3786C129.882 45.3786 130.29 44.7378 130.29 43.8702Z" fill="#005674"/>
<path d="M134.782 41.5457H135.885L135.912 42.2651H135.931C136.218 41.727 136.626 41.4489 137.1 41.4489C137.267 41.4489 137.406 41.4822 137.527 41.5275V42.5523C137.43 42.5251 137.258 42.5009 137.085 42.5009C136.348 42.5009 135.958 42.9876 135.958 43.5347V46.2069H134.785V41.5487L134.782 41.5457Z" fill="#005674"/>
<path d="M142.097 45.5025C141.68 45.9983 141.081 46.3006 140.205 46.3006C138.627 46.3006 137.793 45.3302 137.793 43.8793C137.793 42.4283 138.618 41.4489 140.084 41.4489C141.55 41.4489 142.26 42.4465 142.26 43.7312C142.26 43.9035 142.251 44.1211 142.227 44.2511H138.99C139.077 44.9615 139.458 45.4058 140.229 45.4058C140.679 45.4058 141.063 45.2244 141.347 44.8405L142.094 45.4995L142.097 45.5025ZM141.1 43.4621C141.048 42.8032 140.761 42.3437 140.075 42.3437C139.389 42.3437 139.059 42.7941 138.99 43.4621H141.1Z" fill="#005674"/>
<path d="M143.007 46.2038V39.5385H144.18V46.2038H143.007Z" fill="#005674"/>
<path d="M149.219 45.5025C148.802 45.9983 148.203 46.3006 147.327 46.3006C145.749 46.3006 144.914 45.3302 144.914 43.8793C144.914 42.4283 145.74 41.4489 147.206 41.4489C148.672 41.4489 149.382 42.4465 149.382 43.7312C149.382 43.9035 149.373 44.1211 149.349 44.2511H146.111C146.199 44.9615 146.58 45.4058 147.351 45.4058C147.801 45.4058 148.185 45.2244 148.469 44.8405L149.216 45.4995L149.219 45.5025ZM148.221 43.4621C148.17 42.8032 147.883 42.3437 147.197 42.3437C146.51 42.3437 146.181 42.7941 146.111 43.4621H148.221Z" fill="#005674"/>
<path d="M152.71 46.2038L152.683 45.5449H152.665C152.396 46.0134 151.936 46.3006 151.302 46.3006C150.407 46.3006 149.817 45.7111 149.817 44.8859C149.817 44.3146 150.095 43.8793 150.703 43.6707C151.181 43.5045 151.909 43.4621 152.647 43.4349V43.0873C152.647 42.6611 152.351 42.3497 151.806 42.3497C151.305 42.3497 151.008 42.6006 150.869 42.9664L149.965 42.5251C150.277 41.8147 150.912 41.4489 151.858 41.4489C153.115 41.4489 153.811 42.0656 153.811 43.0873V46.2038H152.707H152.71ZM152.65 44.4325V44.1816C152.372 44.1997 151.982 44.2239 151.67 44.2692C151.299 44.3206 150.984 44.4506 150.984 44.8345C150.984 45.1731 151.235 45.424 151.679 45.424C152.269 45.424 152.65 44.9826 152.65 44.4355V44.4325Z" fill="#005674"/>
<path d="M154.364 45.6748L154.92 44.8768C155.37 45.2335 155.945 45.4239 156.492 45.4239C157.072 45.4239 157.402 45.2516 157.402 44.9222C157.402 44.5503 156.975 44.4627 156.214 44.3236C155.295 44.1513 154.557 43.8128 154.557 42.909C154.557 42.1109 155.192 41.452 156.51 41.452C157.35 41.452 157.958 41.6787 158.463 42.0323L157.943 42.8122C157.492 42.4918 156.979 42.3256 156.495 42.3256C155.975 42.3256 155.73 42.5341 155.73 42.785C155.73 43.1326 156.069 43.2112 156.858 43.3563C157.716 43.5226 158.565 43.7977 158.565 44.7619C158.565 45.6718 157.81 46.2975 156.474 46.2975C155.573 46.2975 154.887 46.0557 154.364 45.6718V45.6748Z" fill="#005674"/>
<path d="M163.257 45.5025C162.84 45.9983 162.241 46.3006 161.365 46.3006C159.787 46.3006 158.952 45.3302 158.952 43.8793C158.952 42.4283 159.778 41.4489 161.244 41.4489C162.71 41.4489 163.42 42.4465 163.42 43.7312C163.42 43.9035 163.411 44.1211 163.387 44.2511H160.149C160.237 44.9615 160.618 45.4058 161.389 45.4058C161.839 45.4058 162.223 45.2244 162.507 44.8405L163.254 45.4995L163.257 45.5025ZM162.259 43.4621C162.208 42.8032 161.921 42.3437 161.235 42.3437C160.548 42.3437 160.219 42.7941 160.149 43.4621H162.259Z" fill="#005674"/>
<path d="M93.5173 54.698L94.0735 53.8999C94.5239 54.2566 95.0983 54.4471 95.6454 54.4471C96.2258 54.4471 96.5553 54.2748 96.5553 53.9453C96.5553 53.5735 96.1291 53.4858 95.3673 53.3468C94.4484 53.1745 93.7108 52.8359 93.7108 51.9321C93.7108 51.1341 94.3456 50.4751 95.6635 50.4751C96.5039 50.4751 97.1115 50.7018 97.6163 51.0555L97.0964 51.8354C96.646 51.5149 96.1321 51.3487 95.6484 51.3487C95.1285 51.3487 94.8836 51.5573 94.8836 51.8081C94.8836 52.1558 95.2222 52.2344 96.0112 52.3795C96.8696 52.5457 97.7191 52.8208 97.7191 53.7851C97.7191 54.6949 96.9633 55.3207 95.6273 55.3207C94.7265 55.3207 94.0403 55.0788 93.5173 54.6949V54.698Z" fill="#005674"/>
<path d="M102.546 55.227H101.443L101.416 54.568H101.398C101.102 55.0275 100.6 55.3237 99.974 55.3237C99.0037 55.3237 98.3599 54.6829 98.3599 53.7186V50.5688H99.5297V53.5463C99.5297 54.0329 99.7987 54.4138 100.364 54.4138C100.99 54.4138 101.371 53.9785 101.371 53.3891V50.5688H102.54V55.227H102.546Z" fill="#005674"/>
<path d="M103.142 54.698L103.698 53.8999C104.149 54.2566 104.723 54.4471 105.27 54.4471C105.85 54.4471 106.18 54.2748 106.18 53.9453C106.18 53.5735 105.754 53.4858 104.992 53.3468C104.073 53.1745 103.335 52.8359 103.335 51.9321C103.335 51.1341 103.97 50.4751 105.288 50.4751C106.129 50.4751 106.736 50.7018 107.241 51.0555L106.721 51.8354C106.271 51.5149 105.757 51.3487 105.273 51.3487C104.753 51.3487 104.508 51.5573 104.508 51.8081C104.508 52.1558 104.847 52.2344 105.636 52.3795C106.494 52.5457 107.344 52.8208 107.344 53.7851C107.344 54.6949 106.588 55.3207 105.252 55.3207C104.348 55.3207 103.665 55.0788 103.142 54.6949V54.698Z" fill="#005674"/>
<path d="M109.218 54.6284H109.2V56.8139H108.027V50.5658H109.13L109.157 51.261H109.176C109.532 50.7653 110.07 50.4721 110.684 50.4721C111.941 50.4721 112.688 51.5119 112.688 52.8752C112.688 54.2385 111.908 55.3207 110.648 55.3207C110.04 55.3207 109.562 55.0698 109.215 54.6254L109.218 54.6284ZM111.5 52.8933C111.5 52.1044 111.143 51.391 110.33 51.391C109.559 51.391 109.166 52.0681 109.166 52.9175C109.166 53.7669 109.575 54.4017 110.321 54.4017C111.11 54.4017 111.5 53.7337 111.5 52.8933Z" fill="#005674"/>
<path d="M117.464 54.5257C117.047 55.0214 116.449 55.3237 115.572 55.3237C113.994 55.3237 113.16 54.3534 113.16 52.9024C113.16 51.4515 113.985 50.4721 115.451 50.4721C116.917 50.4721 117.627 51.4696 117.627 52.7543C117.627 52.9266 117.618 53.1442 117.594 53.2742H114.357C114.444 53.9846 114.825 54.4289 115.596 54.4289C116.046 54.4289 116.43 54.2476 116.715 53.8637L117.461 54.5226L117.464 54.5257ZM116.467 52.4853C116.415 51.8263 116.128 51.3668 115.442 51.3668C114.756 51.3668 114.426 51.8172 114.357 52.4853H116.467Z" fill="#005674"/>
<path d="M118.362 50.5688H119.465L119.492 51.2278H119.511C119.798 50.7592 120.3 50.4721 120.934 50.4721C121.914 50.4721 122.549 51.1129 122.549 52.0772V55.227H121.376V52.2495C121.376 51.7719 121.089 51.391 120.541 51.391C119.916 51.391 119.535 51.8323 119.535 52.4248V55.227H118.362V50.5688Z" fill="#005674"/>
<path d="M123.096 54.698L123.652 53.8999C124.102 54.2566 124.677 54.4471 125.224 54.4471C125.804 54.4471 126.134 54.2748 126.134 53.9453C126.134 53.5735 125.707 53.4858 124.946 53.3468C124.027 53.1745 123.289 52.8359 123.289 51.9321C123.289 51.1341 123.924 50.4751 125.242 50.4751C126.082 50.4751 126.69 50.7018 127.195 51.0555L126.675 51.8354C126.224 51.5149 125.71 51.3487 125.227 51.3487C124.707 51.3487 124.462 51.5573 124.462 51.8081C124.462 52.1558 124.8 52.2344 125.589 52.3795C126.448 52.5457 127.297 52.8208 127.297 53.7851C127.297 54.6949 126.542 55.3207 125.206 55.3207C124.302 55.3207 123.619 55.0788 123.096 54.6949V54.698Z" fill="#005674"/>
<path d="M127.938 48.5647H129.162V49.6317H127.938V48.5647ZM127.965 55.23V50.5718H129.138V55.23H127.965Z" fill="#005674"/>
<path d="M129.84 52.9024C129.84 51.5149 130.689 50.4721 132.234 50.4721C133.778 50.4721 134.628 51.5119 134.628 52.9024C134.628 54.2929 133.778 55.3237 132.234 55.3237C130.689 55.3237 129.84 54.2838 129.84 52.9024ZM131.028 52.9024C131.028 53.7609 131.427 54.4199 132.234 54.4199C133.041 54.4199 133.44 53.7609 133.44 52.9024C133.44 52.0439 133.041 51.3759 132.234 51.3759C131.427 51.3759 131.028 52.0349 131.028 52.9024Z" fill="#005674"/>
<path d="M135.35 50.5688H136.454L136.481 51.2278H136.499C136.786 50.7592 137.288 50.4721 137.923 50.4721C138.902 50.4721 139.537 51.1129 139.537 52.0772V55.227H138.364V52.2495C138.364 51.7719 138.077 51.391 137.53 51.391C136.904 51.391 136.523 51.8323 136.523 52.4248V55.227H135.35V50.5688Z" fill="#005674"/>
<path d="M143.273 51.4182H142.396V50.5688H143.273V49.9431C143.273 49.006 143.775 48.4679 144.836 48.4679C145.114 48.4679 145.322 48.5012 145.504 48.5556V49.4231C145.407 49.3959 145.271 49.3808 145.123 49.3808C144.612 49.3808 144.446 49.5622 144.446 50.0065V50.5718H145.504V51.4212H144.446V55.23H143.273V51.4212V51.4182Z" fill="#005674"/>
<path d="M145.676 52.9024C145.676 51.5149 146.526 50.4721 148.07 50.4721C149.615 50.4721 150.464 51.5119 150.464 52.9024C150.464 54.2929 149.615 55.3237 148.07 55.3237C146.526 55.3237 145.676 54.2838 145.676 52.9024ZM146.864 52.9024C146.864 53.7609 147.263 54.4199 148.07 54.4199C148.877 54.4199 149.276 53.7609 149.276 52.9024C149.276 52.0439 148.877 51.3759 148.07 51.3759C147.263 51.3759 146.864 52.0349 146.864 52.9024Z" fill="#005674"/>
<path d="M151.187 50.5688H152.29L152.317 51.2882H152.335C152.623 50.7502 153.031 50.4721 153.505 50.4721C153.672 50.4721 153.811 50.5083 153.931 50.5507V51.5754C153.835 51.5482 153.662 51.524 153.49 51.524C152.753 51.524 152.363 52.0107 152.363 52.5578V55.23H151.19V50.5718L151.187 50.5688Z" fill="#005674"/>
<path d="M156.861 48.5647H158.085V49.6317H156.861V48.5647ZM156.888 55.23V50.5718H158.061V55.23H156.888Z" fill="#005674"/>
<path d="M159.046 50.5688H160.149L160.177 51.2278H160.195C160.482 50.7592 160.984 50.4721 161.618 50.4721C162.598 50.4721 163.233 51.1129 163.233 52.0772V55.227H162.06V52.2495C162.06 51.7719 161.773 51.391 161.225 51.391C160.6 51.391 160.219 51.8323 160.219 52.4248V55.227H159.046V50.5688Z" fill="#005674"/>
<path d="M163.505 56.0008C163.574 56.0099 163.662 56.0189 163.731 56.0189C164.097 56.0189 164.209 55.8376 164.209 55.4899V50.5688H165.382V55.6441C165.382 56.4331 165.001 56.9107 164.064 56.9107C163.874 56.9107 163.665 56.8835 163.508 56.8502V56.0008H163.505ZM164.182 48.5647H165.406V49.6317H164.182V48.5647Z" fill="#005674"/>
<path d="M170.394 54.5257C169.977 55.0214 169.378 55.3237 168.501 55.3237C166.924 55.3237 166.089 54.3534 166.089 52.9024C166.089 51.4515 166.914 50.4721 168.381 50.4721C169.847 50.4721 170.557 51.4696 170.557 52.7543C170.557 52.9266 170.548 53.1442 170.524 53.2742H167.286C167.374 53.9846 167.755 54.4289 168.526 54.4289C168.976 54.4289 169.36 54.2476 169.644 53.8637L170.391 54.5226L170.394 54.5257ZM169.396 52.4853C169.345 51.8263 169.058 51.3668 168.371 51.3668C167.685 51.3668 167.356 51.8172 167.286 52.4853H169.396Z" fill="#005674"/>
<path d="M171.02 52.9175C171.02 51.53 171.854 50.4721 173.371 50.4721C174.342 50.4721 174.995 50.9134 175.348 51.6086L174.429 52.1044C174.221 51.6631 173.9 51.3759 173.389 51.3759C172.61 51.3759 172.211 52.053 172.211 52.9024C172.211 53.7518 172.6 54.4199 173.426 54.4199C173.955 54.4199 174.293 54.1327 174.502 53.7004L175.387 54.1871C175.049 54.8642 174.372 55.3237 173.374 55.3237C171.872 55.3237 171.023 54.299 171.023 52.9205L171.02 52.9175Z" fill="#005674"/>
<path d="M175.569 50.5688H176.445V49.0937H177.609V50.5688H178.667V51.4182H177.609V53.7095C177.609 54.178 177.748 54.4138 178.32 54.4138C178.45 54.4138 178.571 54.4047 178.667 54.3866V55.236C178.468 55.2874 178.19 55.3237 177.896 55.3237C176.899 55.3237 176.448 54.8279 176.448 53.9604V51.4182H175.572V50.5688H175.569Z" fill="#005674"/>
<path d="M179.229 48.5647H180.454V49.6317H179.229V48.5647ZM179.257 55.23V50.5718H180.43V55.23H179.257Z" fill="#005674"/>
<path d="M181.131 52.9024C181.131 51.5149 181.98 50.4721 183.525 50.4721C185.07 50.4721 185.919 51.5119 185.919 52.9024C185.919 54.2929 185.07 55.3237 183.525 55.3237C181.98 55.3237 181.131 54.2838 181.131 52.9024ZM182.319 52.9024C182.319 53.7609 182.718 54.4199 183.525 54.4199C184.332 54.4199 184.731 53.7609 184.731 52.9024C184.731 52.0439 184.332 51.3759 183.525 51.3759C182.718 51.3759 182.319 52.0349 182.319 52.9024Z" fill="#005674"/>
<path d="M186.641 50.5688H187.745L187.772 51.2278H187.79C188.077 50.7592 188.579 50.4721 189.214 50.4721C190.193 50.4721 190.828 51.1129 190.828 52.0772V55.227H189.655V52.2495C189.655 51.7719 189.368 51.391 188.821 51.391C188.195 51.391 187.814 51.8323 187.814 52.4248V55.227H186.641V50.5688Z" fill="#005674"/>
<path d="M5.14507 36.1499C3.59436 38.7617 2.10109 42.0021 2.10109 47.1318C2.10109 51.8505 3.25883 55.1998 5.14507 58.4523H3.69109C2.26432 56.1701 0.674316 52.4339 0.674316 47.1046C0.674316 41.7754 2.34896 38.3415 3.69109 36.1499H5.14507Z" fill="#005674"/>
<path d="M11.3147 53.1261C11.3147 54.0813 11.351 54.9186 11.3842 55.2602H10.0119C9.93629 54.9035 9.88792 54.2929 9.8849 53.9544C9.44054 55.0879 8.49138 55.4839 7.36689 55.4839C5.24789 55.4839 4.4408 53.7216 4.4408 51.66V51.4847C4.4408 48.7158 6.11544 47.3011 8.86923 47.3011C9.24406 47.3011 9.49798 47.3011 9.84862 47.3162V45.0461C9.84862 43.7644 9.59773 42.7034 8.15887 42.7034C6.72 42.7034 6.37238 43.8188 6.3482 44.9403V45.2607H4.90329V44.9464C4.9184 43.0662 5.7134 41.4066 8.20119 41.4066C10.5227 41.4066 11.3147 42.8485 11.3147 44.9101V53.1231V53.1261ZM9.88188 48.5526C9.64307 48.5375 9.2622 48.5314 8.89946 48.5314C6.91649 48.5314 5.90082 49.4322 5.90082 51.4243V51.5935C5.90082 52.9719 6.39354 54.1508 7.69638 54.1508C9.34684 54.1508 9.8849 52.848 9.8849 50.4086V48.5496L9.88188 48.5526Z" fill="#005674"/>
<path d="M13.3551 46.2824C13.3551 44.1241 13.3581 42.6943 13.3279 41.6303H14.7365C14.7637 42.0384 14.797 42.6823 14.797 43.8279C15.3139 42.2198 16.523 41.4852 17.8228 41.4489V43.1961C15.8822 43.2445 14.8181 44.6834 14.8181 47.0079V55.2632H13.3551V46.2824Z" fill="#005674"/>
<path d="M18.8928 41.6273H20.3559V55.2602H18.8928V41.6273ZM18.8989 36.2708H20.3619V38.9672H18.8989V36.2708Z" fill="#005674"/>
<path d="M23.8352 53.9725V60.003H22.3722V45.5872C22.3722 43.7161 22.3722 42.5009 22.345 41.6303H23.7445C23.7778 41.9175 23.808 42.5523 23.808 43.2747C24.1677 42.2439 24.9658 41.4127 26.4983 41.4127C28.5569 41.4127 29.5997 42.9422 29.5997 46.1736V50.3904C29.5997 53.8606 28.2274 55.49 26.2807 55.49C24.7451 55.49 24.1224 54.6919 23.8352 53.9725ZM28.1095 50.4449V46.1736C28.1095 43.8219 27.3598 42.7669 26.1416 42.7669C24.2403 42.7669 23.802 44.5232 23.802 46.8447V49.9159C23.802 52.0711 24.0498 54.1267 26.0056 54.1267C27.4354 54.1267 28.1095 52.7513 28.1095 50.4418V50.4449Z" fill="#005674"/>
<path d="M31.5132 41.6273H32.9762V55.2602H31.5132V41.6273ZM31.5192 36.2708H32.9823V38.9672H31.5192V36.2708Z" fill="#005674"/>
<path d="M36.4585 53.9725V60.003H34.9955V45.5872C34.9955 43.7161 34.9955 42.5009 34.9683 41.6303H36.3678C36.4011 41.9175 36.4313 42.5523 36.4313 43.2747C36.791 42.2439 37.5891 41.4127 39.1216 41.4127C41.1802 41.4127 42.223 42.9422 42.223 46.1736V50.3904C42.223 53.8606 40.8507 55.49 38.904 55.49C37.3684 55.49 36.7457 54.6919 36.4585 53.9725ZM40.7328 50.4449V46.1736C40.7328 43.8219 39.9831 42.7669 38.7649 42.7669C36.8636 42.7669 36.4253 44.5232 36.4253 46.8447V49.9159C36.4253 52.0711 36.6731 54.1267 38.6289 54.1267C40.0587 54.1267 40.7328 52.7513 40.7328 50.4418V50.4449Z" fill="#005674"/>
<path d="M44.082 46.2824C44.082 44.1241 44.085 42.6943 44.0548 41.6303H45.4634C45.4907 42.0384 45.5239 42.6823 45.5239 43.8279C46.0408 42.2198 47.2499 41.4852 48.5497 41.4489V43.1961C46.6091 43.2445 45.5451 44.6834 45.5451 47.0079V55.2632H44.082V46.2824Z" fill="#005674"/>
<path d="M55.6957 53.1261C55.6957 54.0813 55.7319 54.9186 55.7652 55.2602H54.3928C54.3173 54.9035 54.2689 54.2929 54.2659 53.9544C53.8215 55.0879 52.8724 55.4839 51.7479 55.4839C49.6289 55.4839 48.8218 53.7216 48.8218 51.66V51.4847C48.8218 48.7158 50.4964 47.3011 53.2502 47.3011C53.625 47.3011 53.879 47.3011 54.2296 47.3162V45.0461C54.2296 43.7644 53.9787 42.7034 52.5398 42.7034C51.101 42.7034 50.7534 43.8188 50.7292 44.9403V45.2607H49.2843V44.9464C49.2994 43.0662 50.0944 41.4066 52.5822 41.4066C54.9037 41.4066 55.6957 42.8485 55.6957 44.9101V53.1231V53.1261ZM54.2629 48.5526C54.0241 48.5375 53.6432 48.5314 53.2804 48.5314C51.2975 48.5314 50.2818 49.4322 50.2818 51.4243V51.5935C50.2818 52.9719 50.7745 54.1508 52.0774 54.1508C53.7278 54.1508 54.2659 52.848 54.2659 50.4086V48.5496L54.2629 48.5526Z" fill="#005674"/>
<path d="M56.9774 54.2687C57.3764 53.5705 61.5268 43.9397 62.0739 42.9573H57.4006V41.6303H63.7002V42.6883C63.3042 43.3987 59.1811 53.0415 58.6702 53.9392H63.676L63.4946 55.2663H56.9774V54.2717V54.2687Z" fill="#005674"/>
<path d="M71.2813 46.1494V50.4267C71.2813 53.912 69.8636 55.4869 67.6086 55.4869C65.3536 55.4869 63.9843 53.9785 63.9843 50.5174V46.1585C63.9843 43.0843 65.3566 41.4127 67.6842 41.4127C70.0118 41.4127 71.2813 43.1266 71.2813 46.1524V46.1494ZM65.4775 46.1676V50.5507C65.4775 52.9085 66.209 54.172 67.6328 54.172C69.0565 54.172 69.7881 53.0989 69.7881 50.5355V46.1555C69.7881 44.0304 69.12 42.7246 67.6419 42.7246C66.1637 42.7246 65.4775 43.8581 65.4775 46.1676Z" fill="#005674"/>
<path d="M73.1526 55.2632V36.2739H74.6156V55.2632H73.1526Z" fill="#005674"/>
<path d="M77.8954 48.6463V50.3391C77.8954 52.2858 78.252 54.1932 80.0053 54.1932C81.7585 54.1932 81.9852 52.7664 82.0064 51.5754V51.4756H83.4543V51.5603C83.4453 52.848 83.0402 55.4869 79.9811 55.4869C77.1124 55.4869 76.4384 53.2289 76.4384 50.2816V46.3852C76.4384 43.5891 77.4238 41.4096 80.0567 41.4096C82.6895 41.4096 83.5057 43.6405 83.5057 46.1827C83.5057 46.7449 83.5057 47.9903 83.4966 48.6463H77.8954ZM82.0608 47.4069V46.0527C82.0608 44.3841 81.7797 42.7004 80.0385 42.7004C78.1644 42.7004 77.9226 44.6864 77.9105 46.0678V47.4039H82.0608V47.4069Z" fill="#005674"/>
<path d="M82.9163 58.4493C84.467 55.8376 85.9602 52.5971 85.9602 47.4674C85.9602 42.7488 84.8025 39.3995 82.9163 36.1469H84.3702C85.797 38.4291 87.387 42.1653 87.387 47.4946C87.387 52.8238 85.7124 56.2577 84.3702 58.4493H82.9163Z" fill="#005674"/>
</g>
<defs>
<clipPath id="clip0_39_208074">
<rect width="256.299" height="60" fill="white" transform="translate(0.674316)"/>
</clipPath>
</defs>
</svg>
