<svg width="256" height="60" viewBox="0 0 256 60" fill="none" xmlns="http://www.w3.org/2000/svg">
<path d="M2.13434 58.5395C-0.295268 51.9269 -0.295268 44.6626 2.13434 38.0499L2.83849 38.7779C0.763466 44.9512 0.763466 51.6361 2.83849 57.8093L2.13434 58.5395Z" fill="#032D46"/>
<path d="M3.33865 46.6694C3.54485 44.6745 4.249 42.9722 5.60026 42.9722C7.01076 42.9722 7.79388 44.3336 7.79388 46.5726V53.6305C7.75667 54.382 7.82087 55.1352 7.98472 55.8695H6.88791L6.7563 54.8006C6.34609 55.4802 5.61122 56.1202 5.12643 56.1202C3.9353 56.1202 3.15219 54.8556 3.15219 52.8585C3.12172 51.7135 3.45359 50.5881 4.10025 49.6438C4.74691 48.6995 5.67515 47.9847 6.75191 47.6019V46.7024C6.75191 45.3167 6.32635 44.4392 5.65511 44.4392C4.84566 44.4392 4.44862 45.7764 4.33894 46.9201L3.33865 46.6694ZM6.73216 49.0557C6.01275 49.3679 5.39404 49.8745 4.9451 50.5188C4.49616 51.1631 4.23465 51.9199 4.18977 52.7046C4.18977 53.8966 4.51443 54.6532 5.28658 54.6532C5.85911 54.6532 6.35924 53.9934 6.74093 53.3336L6.73216 49.0557Z" fill="#032D46"/>
<path d="M9.12096 43.2097H10.1783V44.7493H10.209C10.8407 43.2097 11.3058 42.9722 12.1481 42.9722V44.6239C11.3541 44.6239 10.753 45.0638 10.1739 46.8651V55.8695H9.11658L9.12096 43.2097Z" fill="#032D46"/>
<path d="M12.8304 38.294H13.8878V40.3373H12.8304V38.294ZM12.8304 43.2097H13.8878V55.8629H12.8304V43.2097Z" fill="#032D46"/>
<path d="M16.1647 44.426H16.1954C16.5464 43.5242 17.0728 42.9656 17.7507 42.9656C18.9571 42.9656 19.9443 44.6679 19.9443 49.5352C19.9443 54.4025 18.9462 56.1048 17.7507 56.1048C17.1781 56.1048 16.6933 55.522 16.3424 54.9348V59.9934H15.2828V43.2031H16.1603L16.1647 44.426ZM16.3424 53.5249C16.6495 54.0374 17.018 54.6466 17.4874 54.6466C18.3824 54.6466 18.8979 53.4281 18.8979 49.5352C18.8979 45.6422 18.3407 44.426 17.4589 44.426C17.1342 44.426 16.6648 44.9121 16.3424 45.6423V53.5249Z" fill="#032D46"/>
<path d="M21.0564 38.294H22.1137V40.3373H21.0564V38.294ZM21.0564 43.2097H22.1137V55.8629H21.0564V43.2097Z" fill="#032D46"/>
<path d="M24.3907 44.426H24.4193C24.7724 43.5242 25.2967 42.9656 25.9767 42.9656C27.181 42.9656 28.1703 44.6679 28.1703 49.5352C28.1703 54.4025 27.17 56.1048 25.9767 56.1048C25.402 56.1048 24.9172 55.522 24.5662 54.9348V59.9934H23.5133V43.2031H24.3907V44.426ZM24.5684 53.5249C24.8755 54.0374 25.2441 54.6466 25.7135 54.6466C26.6085 54.6466 27.124 53.4281 27.124 49.5352C27.124 45.6422 26.5646 44.426 25.6828 44.426C25.3603 44.426 24.8887 44.9121 24.5684 45.6423V53.5249Z" fill="#032D46"/>
<path d="M29.2101 43.2097H30.2674V44.7493H30.2959C30.9277 43.2097 31.3927 42.9722 32.2351 42.9722V44.6239C31.441 44.6239 30.8399 45.0638 30.2608 46.8651V55.8695H29.2035L29.2101 43.2097Z" fill="#032D46"/>
<path d="M32.6584 46.6694C32.8646 44.6745 33.5688 42.9722 34.92 42.9722C36.3305 42.9722 37.1137 44.3336 37.1137 46.5726V53.6305C37.0765 54.382 37.1406 55.1352 37.3045 55.8695H36.2077L36.0761 54.8006C35.6637 55.4802 34.9288 56.1202 34.444 56.1202C33.2551 56.1202 32.4698 54.8556 32.4698 52.8585C32.4388 51.7137 32.7702 50.5884 33.4165 49.6441C34.0628 48.6997 34.9907 47.9848 36.0673 47.6019V46.7024C36.0673 45.3167 35.6417 44.4392 34.9705 44.4392C34.161 44.4392 33.764 45.7764 33.6543 46.9201L32.6584 46.6694ZM36.0519 49.0557C35.3325 49.3679 34.7138 49.8745 34.2649 50.5188C33.8159 51.1631 33.5544 51.9199 33.5095 52.7046C33.5095 53.8966 33.8342 54.6532 34.6063 54.6532C35.1789 54.6532 35.679 53.9934 36.0607 53.3336L36.0519 49.0557Z" fill="#032D46"/>
<path d="M38.2829 43.2097H42.2512V44.3776L39.224 54.4025H42.2512V55.8629H38.0482V54.5433L40.9877 44.6635H38.2829V43.2097Z" fill="#032D46"/>
<path d="M44.923 42.9656C46.5265 42.9656 47.2592 44.9604 47.2592 49.5352C47.2592 54.11 46.5265 56.1048 44.923 56.1048C43.3195 56.1048 42.5868 54.11 42.5868 49.5352C42.5868 44.9604 43.3239 42.9656 44.923 42.9656ZM44.923 54.6466C45.8202 54.6466 46.2019 53.7207 46.2019 49.5352C46.2019 45.3497 45.8202 44.426 44.923 44.426C44.0258 44.426 43.6463 45.3497 43.6463 49.5352C43.6463 53.7207 44.0214 54.6466 44.923 54.6466Z" fill="#032D46"/>
<path d="M48.2748 38.294H49.3321V55.8629H48.2748V38.294Z" fill="#032D46"/>
<path d="M51.3897 49.8255V50.5315C51.3897 53.6239 51.8153 54.6466 52.8156 54.6466C53.6228 54.6466 53.9607 53.404 54.0945 52.2603L55.0926 52.456C54.9302 54.3541 54.0638 56.1048 52.6796 56.1048C51.0782 56.1048 50.3434 54.11 50.3434 49.5352C50.3434 44.9604 51.0804 42.9656 52.6796 42.9656C54.2787 42.9656 55.0158 45.3497 55.0158 48.9986V49.8255H51.3897ZM53.9453 48.3651C53.9168 45.6423 53.6228 44.426 52.6686 44.426C51.903 44.426 51.4051 45.3498 51.3897 48.3651H53.9453Z" fill="#032D46"/>
<path d="M55.8844 38.0499C58.3148 44.6625 58.3148 51.927 55.8844 58.5395L55.1803 57.8093C57.2574 51.6364 57.2574 44.9508 55.1803 38.7779L55.8844 38.0499Z" fill="#032D46"/>
<path d="M61.4102 43.2097H62.5837V40.6298C62.5837 38.9252 62.9962 38.0499 64.1412 38.0499C64.4209 38.0593 64.6978 38.1082 64.9638 38.195V39.5587C64.8004 39.4291 64.5974 39.36 64.3891 39.3629C63.8758 39.3629 63.6411 39.8974 63.6411 40.7024V43.2097H64.8761V44.6701H63.6411V55.8629H62.5837V44.6701H61.4102V43.2097Z" fill="#032D46"/>
<path d="M67.5172 42.9656C69.1186 42.9656 69.8534 44.9604 69.8534 49.5352C69.8534 54.11 69.1186 56.1048 67.5172 56.1048C65.9159 56.1048 65.1832 54.11 65.1832 49.5352C65.1832 44.9604 65.9181 42.9656 67.5172 42.9656ZM67.5172 54.6466C68.4122 54.6466 68.7939 53.7207 68.7939 49.5352C68.7939 45.3497 68.4122 44.426 67.5172 44.426C66.6222 44.426 66.2384 45.3497 66.2384 49.5352C66.2384 53.7207 66.6222 54.6466 67.5172 54.6466Z" fill="#032D46"/>
<path d="M70.7922 43.2097H71.8517V44.7493H71.8825C72.5142 43.2097 72.9793 42.9722 73.8216 42.9722V44.6239C73.0275 44.6239 72.4265 45.0638 71.8474 46.8651V55.8695H70.7878L70.7922 43.2097Z" fill="#032D46"/>
<path d="M77.9478 49.8255V50.5315C77.9478 53.6239 78.3734 54.6466 79.3715 54.6466C80.1809 54.6466 80.5187 53.404 80.6503 52.2603L81.6506 52.456C81.4905 54.3541 80.6218 56.1048 79.2267 56.1048C77.6253 56.1048 76.8905 54.11 76.8905 49.5352C76.8905 44.9604 77.6253 42.9656 79.2267 42.9656C80.828 42.9656 81.5629 45.3497 81.5629 48.9986V49.8255H77.9478ZM80.5012 48.3651C80.4727 45.6423 80.1787 44.426 79.2245 44.426C78.4589 44.426 77.961 45.3498 77.9478 48.3651H80.5012Z" fill="#032D46"/>
<path d="M81.6396 43.2097H82.7365L84 47.6393L85.1165 43.2097H86.2133L84.5681 49.2932L86.5073 55.8629H85.4105L84.0285 50.8988L82.7365 55.8629H81.6396L83.3945 49.2932L81.6396 43.2097Z" fill="#032D46"/>
<path d="M86.5117 43.2097H87.5405V38.9737H88.5979V43.2097H90.0083V44.6701H88.5979V53.5249C88.5979 54.2573 88.8348 54.794 89.3634 54.794C89.5938 54.7615 89.814 54.6781 90.0083 54.5499V55.8695C89.7022 56.0358 89.3584 56.12 89.0103 56.1136C88.01 56.1136 87.5405 55.335 87.5405 53.3863V44.6767H86.5117V43.2097Z" fill="#032D46"/>
<path d="M91.4298 49.8255V50.5315C91.4298 53.6239 91.8553 54.6466 92.8556 54.6466C93.6629 54.6466 94.0007 53.404 94.1345 52.2603L95.1326 52.456C94.9703 54.3541 94.1038 56.1048 92.7086 56.1048C91.1073 56.1048 90.3724 54.11 90.3724 49.5352C90.3724 44.9604 91.1073 42.9656 92.7086 42.9656C94.31 42.9656 95.0448 45.3497 95.0448 48.9986V49.8255H91.4298ZM93.9853 48.3651C93.9568 45.6423 93.6607 44.426 92.7065 44.426C91.9431 44.426 91.4429 45.3498 91.4276 48.3651H93.9853Z" fill="#032D46"/>
<path d="M96.0166 43.2097H97.0169V44.5953C97.517 43.7441 98.2519 42.9656 98.7498 42.9656C99.8071 42.9656 100.426 43.9377 100.426 46.2647V55.8519H99.3662V46.5089C99.3662 45.0462 99.103 44.415 98.5283 44.415C98.015 44.415 97.5456 44.9978 97.0739 45.9699V55.8519H96.0144L96.0166 43.2097Z" fill="#032D46"/>
<path d="M105.287 54.6466H105.261C104.892 55.5462 104.363 56.107 103.688 56.107C102.483 56.107 101.483 54.4025 101.483 49.5374C101.483 44.6723 102.483 42.9678 103.688 42.9678C104.26 42.9678 104.745 43.5484 105.096 44.1334V38.294H106.156V52.456C106.128 53.5937 106.187 54.7318 106.331 55.8607H105.333L105.287 54.6466ZM105.096 45.5433C104.789 45.033 104.423 44.426 103.951 44.426C103.054 44.426 102.543 45.6422 102.543 49.5352C102.543 53.4281 103.1 54.6466 103.982 54.6466C104.304 54.6466 104.776 54.1584 105.096 53.4282V45.5433Z" fill="#032D46"/>
<path d="M108.222 49.8255V50.5315C108.222 53.6239 108.65 54.6466 109.648 54.6466C110.455 54.6466 110.795 53.404 110.927 52.2603L111.925 52.456C111.765 54.3541 110.896 56.1048 109.501 56.1048C107.902 56.1048 107.165 54.11 107.165 49.5352C107.165 44.9604 107.899 42.9656 109.501 42.9656C111.102 42.9656 111.837 45.3497 111.837 48.9986V49.8255H108.222ZM110.777 48.3651C110.749 45.6423 110.455 44.426 109.499 44.426C108.735 44.426 108.237 45.3498 108.22 48.3651H110.777Z" fill="#032D46"/>
<path d="M116.354 54.6466H116.325C115.957 55.5462 115.43 56.107 114.752 56.107C113.546 56.107 112.559 54.4025 112.559 49.5374C112.559 44.6723 113.557 42.9678 114.752 42.9678C115.325 42.9678 115.81 43.5484 116.163 44.1334V38.294H117.22V52.456C117.192 53.5937 117.25 54.732 117.396 55.8607H116.402L116.354 54.6466ZM116.163 45.5433C115.853 45.033 115.487 44.426 115.015 44.426C114.118 44.426 113.605 45.6422 113.605 49.5352C113.605 53.4281 114.162 54.6466 115.046 54.6466C115.369 54.6466 115.84 54.1584 116.163 53.4282V45.5433Z" fill="#032D46"/>
<path d="M121.8 43.2097H122.858V44.7493H122.886C123.52 43.2097 123.983 42.9722 124.825 42.9722V44.6239C124.033 44.6239 123.43 45.0638 122.851 46.8651V55.8695H121.794L121.8 43.2097Z" fill="#032D46"/>
<path d="M126.06 49.8255V50.5315C126.06 53.6239 126.488 54.6466 127.486 54.6466C128.294 54.6466 128.631 53.404 128.763 52.2603L129.763 52.456C129.603 54.3541 128.737 56.1048 127.339 56.1048C125.738 56.1048 125.005 54.11 125.005 49.5352C125.005 44.9604 125.738 42.9656 127.339 42.9656C128.941 42.9656 129.673 45.3497 129.673 48.9986V49.8255H126.06ZM128.616 48.3651C128.587 45.6423 128.294 44.426 127.337 44.426C126.574 44.426 126.074 45.3498 126.058 48.3651H128.616Z" fill="#032D46"/>
<path d="M130.691 38.294H131.748V55.8629H130.691V38.294Z" fill="#032D46"/>
<path d="M133.791 49.8255V50.5315C133.791 53.6239 134.216 54.6466 135.217 54.6466C136.026 54.6466 136.364 53.404 136.495 52.2603L137.496 52.456C137.333 54.3541 136.467 56.1048 135.072 56.1048C133.47 56.1048 132.736 54.11 132.736 49.5352C132.736 44.9604 133.47 42.9656 135.072 42.9656C136.673 42.9656 137.408 45.3497 137.408 48.9986V49.8255H133.791ZM136.348 48.3651C136.32 45.6423 136.026 44.426 135.07 44.426C134.304 44.426 133.806 45.3498 133.791 48.3651H136.348Z" fill="#032D46"/>
<path d="M138.377 46.6694C138.581 44.6745 139.286 42.9722 140.637 42.9722C142.05 42.9722 142.831 44.3336 142.831 46.5726V53.6305C142.793 54.3821 142.858 55.1354 143.024 55.8695H141.927L141.795 54.8006C141.385 55.4802 140.648 56.1202 140.165 56.1202C138.972 56.1202 138.191 54.8556 138.191 52.8585C138.16 51.7134 138.492 50.5879 139.139 49.6435C139.785 48.6992 140.714 47.9844 141.791 47.6019V46.7024C141.791 45.3167 141.365 44.4392 140.694 44.4392C139.885 44.4392 139.49 45.7764 139.378 46.9201L138.377 46.6694ZM141.769 49.0557C141.049 49.3679 140.431 49.8745 139.982 50.5188C139.533 51.1631 139.271 51.9199 139.226 52.7046C139.226 53.8966 139.549 54.6532 140.323 54.6532C140.896 54.6532 141.396 53.9934 141.778 53.3336L141.769 49.0557Z" fill="#032D46"/>
<path d="M147.244 46.4186C147.051 45.3189 146.772 44.4238 145.928 44.4238C145.43 44.4238 145.077 45.0836 145.077 45.9326C145.077 48.5103 148.306 48.6554 148.306 52.599C148.306 54.596 147.428 56.1027 146.222 56.1027C144.838 56.1027 144.149 54.8622 143.78 52.7441L144.752 52.4032C144.972 53.5205 145.369 54.6423 146.149 54.6423C146.722 54.6423 147.246 53.7624 147.246 52.7199C147.246 49.7991 144.013 49.7485 144.013 46.0271C144.013 44.3732 144.836 42.9634 145.987 42.9634C147.139 42.9634 147.869 44.0806 148.117 45.9787L147.244 46.4186Z" fill="#032D46"/>
<path d="M149.982 49.8255V50.5315C149.982 53.6239 150.407 54.6466 151.407 54.6466C152.215 54.6466 152.555 53.404 152.686 52.2603L153.684 52.456C153.524 54.3541 152.656 56.1048 151.258 56.1048C149.657 56.1048 148.924 54.11 148.924 49.5352C148.924 44.9604 149.657 42.9656 151.258 42.9656C152.86 42.9656 153.597 45.3497 153.597 48.9986V49.8255H149.982ZM152.537 48.3651C152.509 45.6423 152.215 44.426 151.258 44.426C150.497 44.426 149.997 45.3498 149.982 48.3651H152.537Z" fill="#032D46"/>
<path d="M157.692 38.294H158.747V40.3373H157.692V38.294ZM157.692 43.2097H158.747V55.8629H157.692V43.2097Z" fill="#032D46"/>
<path d="M160.103 43.2097H161.101V44.5953C161.601 43.7441 162.336 42.9656 162.834 42.9656C163.894 42.9656 164.508 43.9377 164.508 46.2647V55.8519H163.453V46.5089C163.453 45.0462 163.185 44.415 162.615 44.415C162.099 44.415 161.63 44.9978 161.16 45.9699V55.8519H160.103V43.2097Z" fill="#032D46"/>
<path d="M164.808 58.4472C164.92 58.4974 165.038 58.5301 165.159 58.544C165.631 58.544 165.894 58.1041 165.894 56.9868V43.2141H166.954V57.1276C166.954 59.2192 166.454 60 165.394 60C165.195 59.9903 164.998 59.9578 164.806 59.9032L164.808 58.4472ZM165.905 38.2962H166.965V40.3395H165.905V38.2962Z" fill="#032D46"/>
<path d="M168.983 49.8255V50.5315C168.983 53.6239 169.408 54.6466 170.406 54.6466C171.214 54.6466 171.554 53.404 171.683 52.2603L172.683 52.456C172.523 54.3541 171.655 56.1048 170.27 56.1048C168.667 56.1048 167.934 54.11 167.934 49.5352C167.934 44.9604 168.667 42.9656 170.27 42.9656C171.874 42.9656 172.605 45.3497 172.605 48.9986V49.8255H168.983ZM171.541 48.3651C171.508 45.6423 171.216 44.426 170.262 44.426C169.498 44.426 168.998 45.3498 168.983 48.3651H171.541Z" fill="#032D46"/>
<path d="M176.753 46.9553C176.65 45.0572 176.193 44.426 175.546 44.426C174.651 44.426 174.269 45.3497 174.269 49.5352C174.269 53.7207 174.651 54.6466 175.546 54.6466C176.224 54.6466 176.606 54.0616 176.781 51.8732H177.81C177.632 54.3541 176.933 56.107 175.546 56.107C173.947 56.107 173.212 54.1122 173.212 49.5374C173.212 44.9626 173.947 42.9678 175.546 42.9678C176.928 42.9678 177.575 44.4744 177.781 46.9575L176.753 46.9553Z" fill="#032D46"/>
<path d="M178.091 43.2097H179.12V38.9737H180.175V43.2097H181.585V44.6701H180.175V53.5249C180.175 54.2573 180.412 54.794 180.938 54.794C181.169 54.7622 181.39 54.6788 181.585 54.5499V55.8695C181.278 56.0364 180.934 56.1205 180.585 56.1136C179.587 56.1136 179.117 55.335 179.117 53.3863V44.6767H178.089L178.091 43.2097Z" fill="#032D46"/>
<path d="M182.401 46.6694C182.607 44.6745 183.311 42.9722 184.661 42.9722C186.073 42.9722 186.854 44.3336 186.854 46.5726V53.6305C186.816 54.382 186.881 55.1353 187.045 55.8695H185.948L185.819 54.8006C185.408 55.4802 184.671 56.1202 184.187 56.1202C182.996 56.1202 182.212 54.8556 182.212 52.8585C182.181 51.7137 182.513 50.5884 183.159 49.6441C183.805 48.6997 184.733 47.9848 185.81 47.6019V46.7024C185.81 45.3167 185.384 44.4392 184.713 44.4392C183.906 44.4392 183.509 45.7764 183.397 46.9201L182.401 46.6694ZM185.792 49.0557C185.073 49.3679 184.454 49.8745 184.005 50.5188C183.556 51.1631 183.295 51.9199 183.25 52.7046C183.25 53.8966 183.572 54.6532 184.347 54.6532C184.919 54.6532 185.419 53.9934 185.799 53.3336L185.792 49.0557Z" fill="#032D46"/>
<path d="M188.949 55.8629H188.124C188.27 54.7342 188.329 53.596 188.302 52.4582V38.2962H189.359V44.1357C189.71 43.5506 190.195 42.97 190.768 42.97C191.972 42.97 192.961 44.6723 192.961 49.5396C192.961 54.4069 191.961 56.1092 190.768 56.1092C190.092 56.1092 189.563 55.5484 189.182 54.6488L188.949 55.8629ZM189.359 53.4282C189.682 54.1584 190.153 54.6466 190.474 54.6466C191.351 54.6466 191.915 53.4281 191.915 49.5352C191.915 45.6422 191.399 44.426 190.504 44.426C190.035 44.426 189.669 45.0331 189.359 45.5433V53.4282Z" fill="#032D46"/>
<path d="M194.073 38.294H195.133V55.8629H194.073V38.294Z" fill="#032D46"/>
<path d="M197.19 49.8255V50.5315C197.19 53.6239 197.616 54.6466 198.616 54.6466C199.424 54.6466 199.761 53.404 199.895 52.2603L200.893 52.456C200.733 54.3541 199.867 56.1048 198.48 56.1048C196.879 56.1048 196.144 54.11 196.144 49.5352C196.144 44.9604 196.879 42.9656 198.48 42.9656C200.082 42.9656 200.817 45.3497 200.817 48.9986V49.8255H197.19ZM199.748 48.3651C199.72 45.6423 199.424 44.426 198.469 44.426C197.706 44.426 197.206 45.3498 197.19 48.3651H199.748Z" fill="#032D46"/>
<path d="M207.825 46.4186C207.636 45.3189 207.358 44.4238 206.509 44.4238C206.009 44.4238 205.658 45.0836 205.658 45.9326C205.658 48.5103 208.891 48.6554 208.891 52.599C208.891 54.596 208.014 56.1027 206.803 56.1027C205.423 56.1027 204.734 54.8622 204.366 52.7441L205.335 52.4032C205.555 53.5205 205.952 54.6423 206.73 54.6423C207.305 54.6423 207.827 53.7624 207.827 52.7199C207.827 49.7991 204.598 49.7485 204.598 46.0271C204.598 44.3732 205.421 42.9634 206.573 42.9634C207.724 42.9634 208.452 44.0806 208.703 45.9787L207.825 46.4186Z" fill="#032D46"/>
<path d="M214.228 55.8629H213.228V54.4751C212.73 55.3285 211.995 56.1071 211.495 56.1071C210.438 56.1071 209.819 55.1349 209.819 52.8079V43.2207H210.879V52.5638C210.879 54.0242 211.144 54.6577 211.714 54.6577C212.228 54.6577 212.699 54.0726 213.167 53.1005V43.2185H214.224L214.228 55.8629Z" fill="#032D46"/>
<path d="M218.594 46.4186C218.403 45.3189 218.124 44.4238 217.277 44.4238C216.779 44.4238 216.424 45.0836 216.424 45.9326C216.424 48.5103 219.658 48.6554 219.658 52.599C219.658 54.596 218.78 56.1027 217.571 56.1027C216.189 56.1027 215.501 54.8622 215.134 52.7441L216.102 52.4032C216.321 53.5205 216.716 54.6423 217.497 54.6423C218.069 54.6423 218.594 53.7624 218.594 52.7199C218.594 49.7991 215.36 49.7485 215.36 46.0271C215.36 44.3732 216.183 42.9634 217.334 42.9634C218.486 42.9634 219.217 44.0806 219.464 45.9787L218.594 46.4186Z" fill="#032D46"/>
<path d="M221.513 44.426H221.54C221.893 43.5242 222.417 42.9656 223.097 42.9656C224.304 42.9656 225.304 44.6679 225.304 49.5352C225.304 54.4025 224.304 56.1048 223.097 56.1048C222.527 56.1048 222.042 55.522 221.689 54.9348V59.9934H220.631V43.2031H221.509L221.513 44.426ZM221.689 53.5249C221.996 54.0374 222.364 54.6466 222.834 54.6466C223.731 54.6466 224.242 53.4281 224.242 49.5352C224.242 45.6422 223.685 44.426 222.803 44.426C222.481 44.426 222.011 44.9121 221.689 45.6423V53.5249Z" fill="#032D46"/>
<path d="M227.072 49.8255V50.5315C227.072 53.6239 227.497 54.6466 228.495 54.6466C229.305 54.6466 229.643 53.404 229.774 52.2603L230.775 52.456C230.615 54.3541 229.746 56.1048 228.349 56.1048C226.749 56.1048 226.012 54.11 226.012 49.5352C226.012 44.9604 226.749 42.9656 228.349 42.9656C229.948 42.9656 230.687 45.3497 230.687 48.9986V49.8255H227.072ZM229.627 48.3651C229.599 45.6423 229.305 44.426 228.349 44.426C227.587 44.426 227.087 45.3498 227.072 48.3651H229.627Z" fill="#032D46"/>
<path d="M231.65 43.2097H232.65V44.5953C233.15 43.7441 233.883 42.9656 234.383 42.9656C235.44 42.9656 236.057 43.9377 236.057 46.2647V55.8519H235.004V46.5089C235.004 45.0462 234.741 44.415 234.168 44.415C233.655 44.415 233.185 44.9978 232.714 45.9699V55.8519H231.656L231.65 43.2097Z" fill="#032D46"/>
<path d="M240.424 46.4186C240.231 45.3189 239.953 44.4238 239.108 44.4238C238.608 44.4238 238.257 45.0836 238.257 45.9326C238.257 48.5103 241.488 48.6554 241.488 52.599C241.488 54.596 240.611 56.1027 239.402 56.1027C238.02 56.1027 237.331 54.8622 236.963 52.7441L237.935 52.4032C238.154 53.5205 238.549 54.6423 239.328 54.6423C239.902 54.6423 240.424 53.7624 240.424 52.7199C240.424 49.7991 237.191 49.7485 237.191 46.0271C237.191 44.3732 238.014 42.9634 239.165 42.9634C240.317 42.9634 241.045 44.0806 241.295 45.9787L240.424 46.4186Z" fill="#032D46"/>
<path d="M242.44 38.294H243.498V40.3373H242.44V38.294ZM242.44 43.2097H243.498V55.8629H242.44V43.2097Z" fill="#032D46"/>
<path d="M246.834 42.9656C248.435 42.9656 249.17 44.9604 249.17 49.5352C249.17 54.11 248.435 56.1048 246.834 56.1048C245.233 56.1048 244.498 54.11 244.498 49.5352C244.498 44.9604 245.231 42.9656 246.834 42.9656ZM246.834 54.6466C247.729 54.6466 248.113 53.7207 248.113 49.5352C248.113 45.3497 247.731 44.426 246.834 44.426C245.937 44.426 245.555 45.3497 245.555 49.5352C245.555 53.7207 245.937 54.6466 246.834 54.6466Z" fill="#032D46"/>
<path d="M250.153 43.2097H251.153V44.5953C251.653 43.7441 252.386 42.9656 252.886 42.9656C253.944 42.9656 254.562 43.9377 254.562 46.2647V55.8519H253.505V46.5089C253.505 45.0462 253.239 44.415 252.669 44.415C252.154 44.415 251.682 44.9978 251.213 45.9699V55.8519H250.155L250.153 43.2097Z" fill="#032D46"/>
<path d="M38.6756 9.47509H37.4318C35.9539 9.38079 34.4781 9.68933 33.1609 10.368C33.1609 7.34384 33.1609 4.15473 33.1609 0.767641C33.1609 0.224388 33.0468 0.0110245 32.7222 0.0110245H31.4784C30.6123 0.246322 29.7821 0.598545 29.0106 1.05797C28.3591 1.35069 27.6911 1.60478 27.01 1.81895C26.9263 1.84711 26.8525 1.89878 26.7973 1.96779C26.7421 2.0368 26.7078 2.12026 26.6985 2.20825C26.6985 2.97804 28.7078 2.12906 28.7078 3.60926C28.7078 11.5513 28.7078 18.0044 28.7078 25.4736C28.7078 26.1334 28.9272 26.1972 29.1816 26.1972H30.4254C30.5595 26.1899 30.6897 26.1495 30.8045 26.0797C30.9193 26.0099 31.0151 25.9127 31.0835 25.7969C31.174 25.6911 31.2789 25.5985 31.395 25.5219C33.0503 26.1045 34.7893 26.4121 36.5434 26.4325H37.7872C43.9293 26.4325 47.3009 22.7155 47.3009 17.7536C47.3173 16.6303 47.1025 15.5157 46.67 14.4793C46.2375 13.443 45.5965 12.5071 44.7871 11.7303C43.9777 10.9534 43.0173 10.3522 41.9657 9.9642C40.9142 9.57618 39.7942 9.40967 38.6756 9.47509ZM33.808 23.626C33.352 23.051 33.1245 22.3271 33.1696 21.5938V13.7397C33.1696 12.3893 33.2837 11.3952 36.1859 11.2522C37.1042 11.285 38.0063 11.505 38.8372 11.8987C39.668 12.2924 40.4102 12.8516 41.0185 13.5422C41.6268 14.2328 42.0885 15.0403 42.3755 15.9156C42.6625 16.7909 42.7687 17.7156 42.6877 18.6334C42.6877 21.1715 41.172 24.9567 37.5986 25.2316C36.8879 25.2544 36.1808 25.1227 35.5257 24.8456C34.8706 24.5684 34.2831 24.1524 33.8036 23.626H33.808Z" fill="#032D46"/>
<path d="M66.4775 25.2778C64.988 25.1371 64.9178 24.7984 64.9178 23.7229V0.593881C64.9178 0.134205 64.6984 0.00224686 64.4462 0.00224686H63.2002C62.4044 0.232522 61.6402 0.561281 60.9254 0.980965C60.2288 1.29357 59.5164 1.56962 58.7911 1.80796C58.6977 1.83106 58.6146 1.88425 58.5543 1.95935C58.4941 2.03445 58.4601 2.12729 58.4576 2.22364C58.4576 2.91205 60.4604 2.26984 60.4604 3.47292V23.7074C60.4604 25.0051 60.1357 25.2184 58.859 25.28C58.5541 25.2954 57.9399 25.4032 57.9399 25.7859C57.9399 26.0784 58.2317 26.1994 58.5234 26.1994H66.7056C66.9557 26.1994 67.3637 26.1202 67.3637 25.7441C67.3637 25.368 67.0939 25.335 66.4775 25.2778Z" fill="#032D46"/>
<path d="M105.824 10.1349H99.5001C98.9583 10.1349 98.706 10.3042 98.706 10.5946C98.706 10.9289 99.0636 11.052 99.5352 11.0586C100.533 11.0586 101.251 11.5953 101.251 12.4773C101.126 13.6713 100.787 14.8329 100.25 15.9062L97.7694 21.585L94.876 13.1459C94.7508 12.8524 94.6667 12.5431 94.6259 12.2265C94.6259 11.2478 95.6108 11.1027 96.4488 11.0521C96.9248 11.0235 97.2934 10.8761 97.2934 10.6276C97.2934 10.2559 97.1266 10.1327 96.4598 10.1327H85.325C84.9828 10.1327 84.849 9.91276 84.849 9.58504C84.849 6.11658 84.4958 2.24784 87.3475 1.73318C88.5386 1.98831 89.2735 2.96924 90.3264 2.96924H91.5702C92.4038 2.96924 93.0706 2.67673 93.0706 1.54843C93.0706 0.545501 92.4455 0.00881874 90.0259 0.00881874H88.7821C86.8043 0.00395072 84.8859 0.686331 83.3533 1.93984C81.8207 3.19336 80.7687 4.94057 80.3762 6.88418V9.0704C80.3762 9.60705 80.3148 9.7434 80.0164 9.93035C79.5769 10.1348 79.1133 10.2826 78.6367 10.3702C78.1299 10.5176 77.8886 10.5792 77.8886 10.9553C77.8886 11.4567 78.2638 11.4149 79.139 11.5425C79.7642 11.6261 80.3893 11.7515 80.3893 12.629V23.769C80.3893 24.9985 80.0515 25.2338 78.584 25.3086C78.108 25.3328 77.6364 25.3614 77.6364 25.7947C77.6364 26.0454 77.7987 26.1994 78.3668 26.1994H87.4616C87.8367 26.1994 88.3083 26.1994 88.3083 25.7771C88.3083 25.3548 87.6765 25.2954 87.2115 25.2844C85.3096 25.236 84.849 25.0095 84.849 23.714V12.4663C84.849 11.6063 84.9894 11.4106 85.5575 11.4106H88.7624C89.2011 11.4347 89.5564 11.5821 89.8285 12.3915L94.3736 25.0205C94.7043 25.7198 94.9432 26.4591 95.0844 27.2199C94.6733 28.9581 93.9661 30.6121 92.9939 32.1092C92.7249 32.0157 92.4427 31.9659 92.1581 31.9618H90.9143C90.6995 31.9307 90.4804 31.9479 90.2731 32.0123C90.0657 32.0767 89.8753 32.1867 89.7156 32.3341C89.5559 32.4816 89.431 32.6629 89.35 32.8648C89.269 33.0667 89.2338 33.2842 89.2471 33.5014C89.2471 34.2954 89.7473 35.2169 91.4145 35.2169H92.7569C94.5535 35.2169 95.1699 34.2536 95.9684 32.4149L104.541 12.3123C104.874 11.5381 105.245 11.0828 105.897 11.0169C106.439 10.9619 106.647 10.9069 106.647 10.5528C106.64 10.2713 106.408 10.1349 105.824 10.1349Z" fill="#032D46"/>
<path d="M141.503 25.2602C139.275 24.9105 139.281 24.4486 139.281 22.8563L139.319 4.6012C139.319 1.79695 139.483 1.56164 141.093 1.50885C142.102 1.47806 142.995 1.46045 142.995 0.989776C142.995 0.703853 142.749 0.488318 142.168 0.488318H135.078C134.453 0.488318 134.12 1.04696 133.661 1.93772C133.266 2.70971 128.517 11.8856 127.225 14.3754L120.142 0.864428C120.073 0.738933 119.969 0.636414 119.843 0.569568C119.717 0.502721 119.573 0.474471 119.431 0.488318H111.736C110.971 0.488318 110.834 0.646661 110.834 0.941382C110.834 1.40106 111.6 1.42087 112.712 1.48466C114.156 1.56603 114.715 1.92453 114.686 3.66426C114.658 5.40399 114.441 23.8988 114.441 23.8988C114.41 24.5256 113.451 25.0469 111.828 25.2184C110.911 25.2998 110.376 25.2888 110.385 25.7683C110.385 26.1884 110.85 26.2082 111.225 26.2082H120.418C121.004 26.2082 121.232 26.1862 121.232 25.7859C121.232 25.2558 120.223 25.2954 119.333 25.225C118.28 25.1414 117.288 24.7456 117.288 23.9516C117.288 23.9516 117.288 11.0279 117.288 5.99344C119.354 9.98097 124.224 20.0872 124.224 20.0872C124.538 20.6415 124.814 20.747 125.089 20.747H126.473C126.58 20.7478 126.686 20.7214 126.781 20.6703C126.876 20.6192 126.956 20.545 127.015 20.4545L134.361 6.24636L134.315 23.6613C134.315 24.8753 133.955 25.1085 132.102 25.2712C131.595 25.3152 130.535 25.2228 130.535 25.8233C130.535 26.2917 131.145 26.2126 131.604 26.2126H132.303C132.479 26.2236 132.674 26.2126 132.85 26.2126H141.81C142.778 26.2126 142.971 26.2126 142.971 25.7727C142.971 25.3328 142.175 25.357 141.503 25.2602Z" fill="#032D46"/>
<path d="M160.059 23.5359H158.82C158.381 23.5359 158.296 24.2441 157.767 24.5872C157.471 24.3076 157.234 23.9707 157.072 23.5968C156.909 23.2229 156.824 22.8198 156.821 22.412V12.6906C156.821 11.6437 156.69 9.4795 152.728 9.4795H151.484C146.979 9.4795 143.162 13.2009 143.162 14.5821C143.162 15.1671 143.339 15.6664 144.131 15.6664H145.375C148.514 15.6664 147.47 11.1356 151.125 10.6803C152.199 10.8343 152.351 11.4853 152.351 13.1371V15.2133C152.351 15.849 152.059 15.9831 151.717 16.0799C151.021 16.2778 149.962 16.5396 148.918 16.9399C148.584 17.0696 142.813 18.7698 142.813 23.2104C142.825 23.6621 142.929 24.1065 143.119 24.5165C143.308 24.9265 143.579 25.2935 143.915 25.5949C144.25 25.8963 144.644 26.1259 145.071 26.2695C145.498 26.4132 145.95 26.4679 146.4 26.4303H147.646C149.541 26.413 151.381 25.7862 152.895 24.6422C153.081 25.2127 153.458 25.7016 153.961 26.0271C154.464 26.3526 155.064 26.495 155.659 26.4303H156.903C157.677 26.4389 158.434 26.2007 159.065 25.7501C159.696 25.2995 160.168 24.6597 160.412 23.923C160.401 23.6723 160.268 23.5359 160.059 23.5359ZM147.516 22.0799C147.516 19.1349 150.739 17.7448 152.27 17.2698C152.332 17.3952 152.361 17.5346 152.353 17.6745V21.0154C152.319 21.8737 151.991 22.6942 151.425 23.3386C150.858 23.9831 150.088 24.4124 149.242 24.5542C148.729 24.3803 148.285 24.0464 147.974 23.6012C147.663 23.1561 147.503 22.623 147.516 22.0799Z" fill="#032D46"/>
<path d="M255.326 23.5359H254.082C253.643 23.5359 253.557 24.2441 253.029 24.5872C252.733 24.3076 252.496 23.9706 252.334 23.5968C252.171 23.2229 252.086 22.8198 252.083 22.412V12.6906C252.083 11.6437 251.952 9.47949 247.99 9.47949H246.746C242.241 9.47949 238.422 13.2009 238.422 14.5821C238.422 15.1671 238.599 15.6664 239.391 15.6664H240.635C243.774 15.6664 242.73 11.1356 246.384 10.6803C247.459 10.8343 247.613 11.4853 247.613 13.1371V15.2133C247.613 15.849 247.321 15.9831 246.979 16.0799C246.283 16.2778 245.224 16.5396 244.18 16.9399C243.846 17.0696 238.075 18.7698 238.075 23.2104C238.087 23.6623 238.191 24.1069 238.381 24.5171C238.57 24.9272 238.841 25.2943 239.177 25.5957C239.513 25.8972 239.907 26.1267 240.335 26.2702C240.762 26.4137 241.215 26.4682 241.664 26.4303H242.907C244.803 26.413 246.643 25.7862 248.157 24.6422C248.344 25.2125 248.72 25.7011 249.223 26.0266C249.726 26.352 250.326 26.4946 250.921 26.4303H252.165C252.939 26.4389 253.696 26.2007 254.327 25.7501C254.958 25.2995 255.43 24.6597 255.674 23.923C255.67 23.6723 255.536 23.5359 255.326 23.5359ZM242.783 22.0799C242.783 19.1349 246.005 17.7448 247.536 17.2698C247.598 17.3952 247.627 17.5346 247.619 17.6745V21.0154C247.585 21.8737 247.257 22.6942 246.691 23.3386C246.125 23.9831 245.354 24.4124 244.509 24.5542C243.996 24.3803 243.551 24.0464 243.24 23.6012C242.93 23.1561 242.769 22.623 242.783 22.0799Z" fill="#032D46"/>
<path d="M52.2585 7.544H53.5023C53.752 7.54487 53.9994 7.49621 54.2303 7.4008C54.4611 7.30538 54.6709 7.16511 54.8475 6.98807C55.0241 6.81103 55.1639 6.6007 55.2591 6.36922C55.3543 6.13774 55.4028 5.88969 55.402 5.63932C55.4112 5.38671 55.3683 5.13488 55.2761 4.89962C55.1839 4.66435 55.0443 4.45068 54.866 4.27194C54.6878 4.09319 54.4747 3.95324 54.24 3.86079C54.0054 3.76834 53.7542 3.72536 53.5023 3.7346H52.2585C51.7602 3.75259 51.2871 3.95899 50.9343 4.31231C50.5815 4.66563 50.3751 5.13971 50.3566 5.63932C50.3531 5.89061 50.3999 6.14007 50.4942 6.37291C50.5886 6.60575 50.7286 6.81724 50.9059 6.99485C51.0833 7.17246 51.2943 7.31258 51.5267 7.4069C51.759 7.50123 52.0078 7.54785 52.2585 7.544Z" fill="#032D46"/>
<path d="M56.7641 25.2866C55.5401 25.1854 55.097 25.0117 55.097 23.747V10.0645C55.097 9.67745 54.9369 9.46408 54.689 9.46408H53.4452C53.0394 9.46408 52.5173 9.783 51.0476 10.7353C49.7314 11.5931 48.6346 11.7207 48.6346 12.2749C48.6346 13.1107 50.6374 11.978 50.6374 13.4406V23.7009C50.6374 25.3878 49.8126 25.2272 48.99 25.2954C48.4306 25.3416 48.2529 25.6099 48.2529 25.7771C48.2529 26.2368 48.7114 26.1994 49.047 26.1994H56.6808C57.0581 26.1994 57.5363 26.1994 57.5363 25.7397C57.5385 25.324 57.1195 25.3152 56.7641 25.2866Z" fill="#032D46"/>
<path d="M71.832 7.544H73.0758C73.3255 7.54487 73.5729 7.49621 73.8038 7.4008C74.0346 7.30538 74.2444 7.16511 74.421 6.98807C74.5975 6.81103 74.7375 6.6007 74.8326 6.36922C74.9278 6.13774 74.9763 5.88969 74.9754 5.63932C74.9847 5.38671 74.9418 5.13488 74.8496 4.89962C74.7574 4.66435 74.6178 4.45068 74.4396 4.27194C74.2613 4.09319 74.0481 3.95324 73.8135 3.86079C73.5788 3.76834 73.3277 3.72536 73.0758 3.7346H71.832C71.3337 3.75259 70.8606 3.95899 70.5078 4.31231C70.155 4.66563 69.9486 5.13971 69.9301 5.63932C69.9266 5.89061 69.9734 6.14007 70.0677 6.37291C70.1621 6.60575 70.302 6.81724 70.4794 6.99485C70.6567 7.17246 70.8678 7.31258 71.1002 7.4069C71.3325 7.50123 71.5814 7.54785 71.832 7.544Z" fill="#032D46"/>
<path d="M76.3377 25.2866C75.1137 25.1854 74.6706 25.0117 74.6706 23.747V10.0645C74.6706 9.67745 74.5105 9.46408 74.2626 9.46408H73.01C72.6042 9.46408 72.0821 9.783 70.6124 10.7353C69.2962 11.5931 68.1994 11.7207 68.1994 12.2749C68.1994 13.1107 70.2022 11.978 70.2022 13.4406V23.7009C70.2022 25.3878 69.3774 25.2272 68.5548 25.2954C67.9954 25.3416 67.8177 25.6099 67.8177 25.7771C67.8177 26.2368 68.2762 26.1994 68.6118 26.1994H76.2456C76.6229 26.1994 77.1011 26.1994 77.1011 25.7397C77.1121 25.324 76.6931 25.3152 76.3377 25.2866Z" fill="#032D46"/>
<path d="M163.823 7.544H165.067C165.317 7.54487 165.564 7.49621 165.795 7.4008C166.026 7.30538 166.236 7.16511 166.412 6.98807C166.589 6.81103 166.729 6.6007 166.824 6.36922C166.919 6.13774 166.968 5.88969 166.967 5.63932C166.976 5.38671 166.933 5.13488 166.841 4.89962C166.749 4.66435 166.609 4.45068 166.431 4.27194C166.253 4.09319 166.04 3.95324 165.805 3.86079C165.57 3.76834 165.319 3.72536 165.067 3.7346H163.823C163.325 3.75259 162.852 3.95899 162.499 4.31231C162.147 4.66563 161.94 5.13971 161.922 5.63932C161.918 5.89061 161.965 6.14007 162.059 6.37291C162.153 6.60575 162.294 6.81724 162.471 6.99485C162.648 7.17246 162.859 7.31258 163.092 7.4069C163.324 7.50123 163.573 7.54785 163.823 7.544Z" fill="#032D46"/>
<path d="M168.329 25.2866C167.105 25.1854 166.662 25.0117 166.662 23.747V10.0645C166.662 9.67745 166.502 9.46408 166.254 9.46408H165.01C164.604 9.46408 164.082 9.783 162.613 10.7353C161.296 11.5931 160.2 11.7207 160.2 12.2749C160.2 13.1107 162.202 11.978 162.202 13.4406V23.7009C162.202 25.3878 161.375 25.2272 160.555 25.2954C159.996 25.3416 159.818 25.6099 159.818 25.7771C159.818 26.2368 160.276 26.1994 160.612 26.1994H168.246C168.623 26.1994 169.101 26.1994 169.101 25.7397C169.103 25.324 168.684 25.3152 168.329 25.2866Z" fill="#032D46"/>
<path d="M188.969 25.2844C187.734 25.2206 187.383 24.9501 187.383 23.7096V15.5433C187.383 13.6606 187.341 9.47948 181.754 9.47948H180.51C179.02 9.48765 177.57 9.96208 176.362 10.8365V10.0183C176.362 9.64222 176.169 9.47508 175.963 9.47508H174.719C173.865 9.71247 173.069 10.126 172.383 10.6892C170.659 11.7999 169.911 11.7207 169.911 12.2507C169.911 13.1723 171.92 11.8109 171.92 13.5902V23.7074C171.92 25.1964 171.337 25.2206 170.165 25.2976C169.913 25.3152 169.54 25.4692 169.54 25.8035C169.54 26.173 169.963 26.2082 170.257 26.2082H178.593C179.012 26.2082 179.51 26.1664 179.51 25.7485C179.51 25.2888 178.815 25.3284 178.271 25.2954C176.843 25.2052 176.384 25.0975 176.384 23.7163V14.0674C176.384 13.2383 176.399 13.0601 176.792 12.7192C177.695 11.9076 178.829 11.4013 180.034 11.272C182.754 11.5997 182.939 14.1884 182.939 15.7522V23.7008C182.939 25.4868 182.061 25.1854 180.892 25.2976C180.673 25.3174 180.308 25.3724 180.308 25.7881C180.308 26.1664 180.642 26.206 181.142 26.206H189.147C189.73 26.206 190.024 26.1312 190.024 25.7837C190.024 25.4362 189.559 25.3152 188.969 25.2844Z" fill="#032D46"/>
<path d="M236.665 25.2844C235.43 25.2206 235.079 24.9501 235.079 23.7096V15.5433C235.079 13.6606 235.037 9.47948 229.45 9.47948H228.213C226.723 9.4875 225.272 9.96195 224.064 10.8365V10.0183C224.064 9.64222 223.871 9.47508 223.665 9.47508H222.421C221.567 9.71247 220.771 10.126 220.085 10.6892C218.361 11.7999 217.613 11.7207 217.613 12.2507C217.613 13.1723 219.622 11.8109 219.622 13.5902V23.7074C219.622 25.1964 219.039 25.2206 217.867 25.2976C217.615 25.3152 217.242 25.4692 217.242 25.8035C217.242 26.173 217.666 26.2082 217.96 26.2082H226.295C226.714 26.2082 227.212 26.1664 227.212 25.7485C227.212 25.2888 226.517 25.3284 225.971 25.2954C224.545 25.2052 224.084 25.0975 224.084 23.7163V14.0674C224.084 13.2383 224.1 13.0601 224.492 12.7192C225.395 11.9076 226.529 11.4013 227.734 11.272C230.454 11.5997 230.639 14.1884 230.639 15.7522V23.7008C230.639 25.4868 229.761 25.1854 228.592 25.2976C228.373 25.3174 228.009 25.3724 228.009 25.7881C228.009 26.1664 228.342 26.206 228.842 26.206H236.847C237.43 26.206 237.724 26.1312 237.724 25.7837C237.724 25.4362 237.255 25.3152 236.665 25.2844Z" fill="#032D46"/>
<path d="M201.095 23.5689H199.851C199.312 23.5689 199.066 24.596 197.614 24.8335C196.192 24.5894 196.002 23.4369 196.002 21.9171C196.002 19.5748 196.002 15.6202 196.002 13.3614C196.002 12.0242 196.127 11.6877 197.294 11.6877H200.753C201.411 11.6877 201.462 11.5029 201.462 10.9597C201.462 10.1239 201.13 10.1349 200.711 10.1349H196.662C196.076 10.1349 196.004 9.96774 196.004 9.59164V5.79107C196.004 5.3314 195.956 5.16423 195.602 5.16423H194.359C194.181 5.16423 193.957 5.32042 193.768 5.75151C193.326 6.8527 192.748 7.89382 192.046 8.85046C191.409 9.62712 190.629 10.275 189.75 10.7595C189.421 10.9795 189.359 11.1422 189.359 11.3578C189.358 11.402 189.366 11.446 189.382 11.4871C189.399 11.5282 189.423 11.5656 189.454 11.5969C189.486 11.6282 189.523 11.6528 189.564 11.6691C189.605 11.6855 189.649 11.6933 189.693 11.6921H190.614C191.32 11.6921 191.531 12.0066 191.531 12.5916V21.8731C191.531 25.0095 192.81 26.4391 195.938 26.4391H197.182C198.064 26.5335 198.953 26.3416 199.719 25.8914C200.484 25.4412 201.085 24.7566 201.433 23.9384C201.424 23.758 201.389 23.5689 201.095 23.5689Z" fill="#032D46"/>
<path d="M206.287 16.3328H215.683C216.391 16.3328 216.514 16.1129 216.514 15.3717C216.503 14.5539 216.326 13.7469 215.992 13.0005C215.659 12.2541 215.177 11.584 214.575 11.0316C213.974 10.4791 213.266 10.0561 212.495 9.78836C211.724 9.52067 210.907 9.41406 210.093 9.47508H208.85C203.677 9.47508 200.882 14.3688 200.882 18.2969C200.882 23.5271 203.888 26.4061 208.474 26.4061H209.718C211.001 26.4857 212.282 26.2128 213.422 25.6167C214.562 25.0206 215.518 24.124 216.187 23.0234C216.26 22.8035 216.187 22.5373 215.942 22.5373H214.698C214.538 22.5373 214.452 22.5373 214.009 22.9156C212.922 23.7678 211.597 24.259 210.218 24.3211C206.287 24.0461 205.423 21.1341 205.423 17.7932C205.421 16.7309 205.632 16.3328 206.287 16.3328ZM212.335 13.2141C212.335 14.4281 211.96 15.0286 208.667 15.0748C207.492 15.0616 206.693 15.0308 206.296 15.0044C205.978 14.9846 205.901 14.7558 205.901 14.5073C206.062 13.51 206.538 12.5908 207.258 11.8849C207.979 11.1789 208.907 10.7236 209.905 10.5858C210.555 10.6635 211.156 10.9706 211.601 11.4522C212.046 11.9337 212.305 12.5582 212.333 13.2141H212.335Z" fill="#032D46"/>
<path d="M28.4468 25.2624C26.7401 25.1371 26.4725 24.9369 24.9677 21.2221C22.1752 14.2962 19.6526 7.94649 17.0268 0.958972C16.95 0.70604 16.8426 0.160606 16.4104 0.160606H15.0833C14.6446 0.160606 14.4954 0.743447 14.3506 1.07996C14.1159 1.62101 13.8746 2.12467 13.6355 2.66793C10.8211 9.10339 7.98914 14.824 5.17254 21.2617C3.63701 24.9369 3.10177 25.2206 1.19552 25.2206C0.807246 25.2206 0 25.2338 0 25.7617C0 26.1796 0.355366 26.2016 0.745829 26.2016H10.3802C10.8189 26.2016 11.2423 26.1884 11.2423 25.7617C11.2423 25.2602 10.6719 25.2338 10.2793 25.2316C9.45667 25.2316 7.20822 25.2316 7.26306 23.7228C7.74201 21.8303 8.45691 20.0058 9.39087 18.2925C10.1499 16.6188 10.1937 16.6188 11.1457 16.6188H16.496C18.1434 16.6188 17.935 16.7639 18.7027 18.7566C19.49 20.4381 20.0896 22.2018 20.4905 24.0154C20.4357 25.269 18.7905 25.2646 17.663 25.2624C17.2243 25.2624 16.406 25.2932 16.406 25.8431C16.406 26.1268 16.6035 26.1994 17.0882 26.1994H28.8197C29.2211 26.1994 29.537 26.1796 29.537 25.7111C29.5414 25.2932 29.0522 25.3064 28.4468 25.2624ZM11.7183 15.3849C11.2401 15.3849 10.8057 15.3849 10.8167 15.1319C10.8477 14.9588 10.8985 14.7898 10.9681 14.6283C12.0649 12.0836 13.0564 9.72142 14.2014 7.1745L14.3046 6.93918L14.3879 7.1745C15.239 9.59385 16.088 11.7559 16.9852 14.14C17.0896 14.4426 17.179 14.7501 17.2528 15.0616C17.2528 15.3365 17.0005 15.3849 16.4104 15.3893L11.7183 15.3849Z" fill="#032D46"/>
<path d="M28.7122 25.4758C28.7122 17.9978 28.7122 11.5535 28.7122 3.61147C28.7122 2.13127 26.7029 2.98022 26.7029 2.21043C26.7122 2.12244 26.7464 2.03898 26.8017 1.96997C26.8569 1.90096 26.9307 1.84932 27.0144 1.82116C27.6955 1.60708 28.3636 1.35296 29.015 1.06015C29.7872 0.600639 30.6181 0.248451 31.485 0.013237C31.8184 0.013237 31.9237 0.233165 31.9237 0.76982C31.9237 4.24268 31.9237 7.51102 31.9237 10.6034C31.9237 10.8739 32.0026 11.1532 32.4348 10.8409C33.8897 9.80626 35.6634 9.32231 37.4406 9.47509C38.5602 9.40841 39.6814 9.57401 40.7343 9.96158C41.7871 10.3491 42.7489 10.9503 43.5594 11.7275C44.37 12.5047 45.0119 13.4412 45.4451 14.4785C45.8783 15.5157 46.0933 16.6315 46.0769 17.7559C46.0769 22.7177 42.6965 26.4347 36.5632 26.4347C34.58 26.3206 32.6175 25.9699 30.7172 25.39C30.551 25.3769 30.3843 25.4078 30.2338 25.4796C30.0833 25.5514 29.9542 25.6616 29.8595 25.7991C29.7911 25.9149 29.6953 26.0121 29.5805 26.0819C29.4657 26.1517 29.3355 26.1921 29.2014 26.1994C28.9426 26.1994 28.7122 26.1246 28.7122 25.4758ZM31.9281 21.5938C31.883 22.327 32.1104 23.051 32.5664 23.626C33.1505 24.2479 33.8741 24.721 34.6773 25.006C35.4804 25.291 36.3398 25.3797 37.184 25.2646C41.0623 25.2646 42.6899 21.2705 42.6899 18.6334C42.7684 17.6769 42.6452 16.7144 42.3285 15.8087C42.0117 14.903 41.5085 14.0742 40.8514 13.3762C40.1944 12.6782 39.3982 12.1267 38.5147 11.7573C37.6312 11.388 36.68 11.2091 35.723 11.2324C32.0531 11.2324 31.9281 12.2771 31.9281 13.7419V21.5938Z" fill="#0677B3"/>
<path d="M63.685 23.7228C63.685 24.7984 63.7552 25.1371 65.2447 25.2778C65.8567 25.3372 66.1375 25.3746 66.1375 25.7507C66.1375 26.1268 65.7229 26.206 65.4794 26.206H58.541C58.2493 26.206 57.9575 26.0828 57.9575 25.7925C57.9575 25.4098 58.5739 25.302 58.8766 25.2866C60.1533 25.225 60.478 25.0117 60.478 23.714V3.47949C60.478 2.27642 58.4752 2.92086 58.4752 2.23025C58.4777 2.1339 58.5117 2.04103 58.5719 1.96592C58.6321 1.89082 58.7153 1.83767 58.8086 1.81457C59.534 1.5763 60.2464 1.30025 60.943 0.987575C61.6578 0.567993 62.422 0.239206 63.2178 0.00882339C63.481 0.00882339 63.6894 0.140815 63.6894 0.600491L63.685 23.7228Z" fill="#0677B3"/>
<path d="M104.486 10.1349H99.4979C98.9561 10.1349 98.7038 10.3042 98.7038 10.5946C98.7038 10.9289 99.0614 11.052 99.533 11.0586C100.529 11.0586 101.248 11.5953 101.248 12.4773C101.124 13.6713 100.785 14.8329 100.248 15.9062L97.4951 22.1788C97.3701 22.4274 97.2889 22.7221 97.0367 22.7221C96.87 22.7221 96.7866 22.5022 96.6616 22.1788L93.5752 13.1437C93.4498 12.8503 93.3656 12.5409 93.3251 12.2243C93.3251 11.2456 94.31 11.1004 95.1502 11.0498C95.624 11.0213 95.9947 10.8739 95.9947 10.6254C95.9947 10.2537 95.8302 10.1305 95.1611 10.1305H84.0834C83.739 10.1305 83.6074 9.91057 83.6074 9.58286C83.6074 5.85927 83.195 1.66498 86.7837 1.66498C88.3193 1.66498 89.1177 2.96045 90.3308 2.96045C91.1644 2.96045 91.8312 2.6679 91.8312 1.5396C91.8312 0.536674 91.2061 2.58666e-05 88.7865 2.58666e-05C86.8087 -0.00484215 84.8903 0.677538 83.3577 1.93105C81.8251 3.18456 80.7731 4.93178 80.3806 6.87539V9.0616C80.3806 9.59826 80.3191 9.7346 80.0208 9.92155C79.5806 10.1262 79.1162 10.274 78.6389 10.3614C78.1321 10.5088 77.8908 10.5704 77.8908 10.9465C77.8908 11.4479 78.2659 11.4062 79.1412 11.5337C79.7663 11.6173 80.3915 11.7427 80.3915 12.6202V23.7602C80.3915 24.9897 80.0537 25.225 78.5862 25.2998C78.1102 25.324 77.6385 25.3526 77.6385 25.7859C77.6385 26.0366 77.8009 26.1906 78.369 26.1906H86.22C86.5951 26.1906 87.0667 26.1906 87.0667 25.7683C87.0667 25.346 86.4371 25.2866 85.9699 25.2756C84.068 25.2272 83.6074 25.0007 83.6074 23.7052V12.4575C83.6074 11.5975 83.7456 11.4018 84.3159 11.4018H88.7492C89.1879 11.426 89.5433 11.5733 89.8153 12.3827L94.3605 25.0117C94.6921 25.7108 94.9318 26.4501 95.0734 27.2111C95.0734 27.7126 93.4479 32.3313 92.6122 32.3313C92.1537 32.3313 91.6535 31.953 90.9033 31.953C90.6885 31.9219 90.4694 31.9391 90.2621 32.0035C90.0547 32.0679 89.8643 32.1779 89.7046 32.3253C89.545 32.4728 89.4201 32.6541 89.339 32.856C89.258 33.0579 89.2229 33.2753 89.2362 33.4926C89.2362 34.2866 89.7363 35.2081 91.4035 35.2081C93.2001 35.2081 93.8164 34.2448 94.6149 32.4061L103.188 12.3035C103.521 11.5293 103.892 11.074 104.543 11.0081C105.085 10.9531 105.296 10.8981 105.296 10.544C105.302 10.2713 105.07 10.1349 104.486 10.1349Z" fill="#0677B3"/>
<path d="M116.066 5.39738C116.066 9.92376 116.066 23.945 116.066 23.945C116.066 24.7412 117.058 25.1371 118.111 25.2185C119.001 25.2888 120.008 25.2493 120.008 25.7793C120.008 26.1818 119.789 26.2016 119.194 26.2016H111.247C110.872 26.2016 110.413 26.1884 110.407 25.7617C110.407 25.2822 110.933 25.2932 111.852 25.2118C113.476 25.0447 114.434 24.5234 114.465 23.8922C114.465 23.8922 114.684 5.39518 114.711 3.65765C114.737 1.92012 114.171 1.55942 112.736 1.47804C111.624 1.41646 110.859 1.39448 110.859 0.934803C110.859 0.640082 110.995 0.481706 111.76 0.481706H118.062C118.204 0.468304 118.347 0.49677 118.473 0.563593C118.599 0.630415 118.702 0.732689 118.771 0.857816L126.262 15.1694C126.285 15.2299 126.325 15.2827 126.376 15.3216C126.428 15.3605 126.49 15.384 126.554 15.3893C126.679 15.3893 126.773 15.2683 126.846 15.1386C126.846 15.1386 133.222 2.82188 133.681 1.94211C134.139 1.06235 134.473 0.492713 135.098 0.492713H140.937C141.519 0.492713 141.764 0.712647 141.764 0.994171C141.764 1.46484 140.872 1.48246 139.863 1.51325C138.25 1.56383 138.088 1.80135 138.088 4.60559L138.051 22.8607C138.051 24.4508 138.051 24.9149 140.273 25.2646C140.944 25.3702 141.751 25.302 141.751 25.7617C141.751 26.2214 141.558 26.2016 140.591 26.2016H131.63C131.171 26.2016 130.562 26.283 130.562 25.8123C130.562 25.2119 131.621 25.3064 132.128 25.2602C133.981 25.0953 134.341 24.8644 134.341 23.6503L134.379 5.70751C134.379 4.87174 134.251 4.621 134.045 4.621C133.971 4.62642 133.901 4.65294 133.842 4.69738C133.783 4.74182 133.738 4.80233 133.712 4.87173L125.659 20.4435C125.6 20.534 125.52 20.6082 125.425 20.6593C125.331 20.7104 125.225 20.7368 125.117 20.736C124.843 20.736 124.566 20.6327 124.253 20.0762C124.253 20.0762 118.225 7.56381 116.735 4.88713C116.637 4.71118 116.516 4.6056 116.411 4.6012C116.222 4.599 116.066 4.71776 116.066 5.39738Z" fill="#0677B3"/>
<path d="M155.578 22.412C155.578 23.0388 155.981 24.7698 157.113 24.7698C158.282 24.7698 158.26 23.5359 158.826 23.5359C159.046 23.5359 159.169 23.6723 159.169 23.923C158.924 24.6597 158.452 25.2995 157.821 25.7501C157.19 26.2007 156.433 26.4389 155.659 26.4303C153.364 26.4303 152.998 24.9413 152.629 23.923C150.914 25.4716 148.707 26.36 146.4 26.4303C145.95 26.4682 145.498 26.4137 145.07 26.2702C144.643 26.1267 144.249 25.8972 143.913 25.5957C143.577 25.2943 143.306 24.9273 143.117 24.5171C142.927 24.1069 142.823 23.6623 142.811 23.2104C142.811 18.7698 148.582 17.0696 148.916 16.9399C149.964 16.5396 151.019 16.28 151.715 16.0799C152.057 15.9831 152.349 15.849 152.349 15.2133V13.1371C152.349 11.2038 152.145 10.6408 150.493 10.6408C146.106 10.6408 147.435 15.6664 144.131 15.6664C143.339 15.6664 143.162 15.1649 143.162 14.5821C143.162 13.2009 146.981 9.4795 151.487 9.4795C155.448 9.4795 155.58 11.6437 155.58 12.6906L155.578 22.412ZM152.357 17.6657C152.357 17.0762 152.063 17.063 151.816 17.063C151.596 17.063 146.277 18.2815 146.277 22.0689C146.244 22.7043 146.462 23.3271 146.883 23.8026C147.305 24.2781 147.896 24.5678 148.53 24.6092C149.512 24.6359 150.466 24.2724 151.183 23.5977C151.9 22.923 152.322 21.9918 152.357 21.0066V17.6657Z" fill="#0677B3"/>
<path d="M250.844 22.412C250.844 23.0388 251.248 24.7698 252.38 24.7698C253.549 24.7698 253.527 23.5359 254.093 23.5359C254.312 23.5359 254.435 23.6723 254.435 23.923C254.19 24.6597 253.718 25.2995 253.088 25.7501C252.457 26.2007 251.7 26.4389 250.925 26.4303C248.631 26.4303 248.264 24.9413 247.896 23.923C246.181 25.4716 243.973 26.36 241.666 26.4303C241.217 26.4682 240.765 26.4137 240.337 26.2702C239.909 26.1267 239.516 25.8972 239.18 25.5957C238.844 25.2943 238.573 24.9273 238.383 24.5171C238.194 24.1069 238.089 23.6623 238.077 23.2104C238.077 18.7698 243.849 17.0696 244.182 16.9399C245.231 16.5396 246.286 16.28 246.981 16.0799C247.323 15.9831 247.615 15.849 247.615 15.2133V13.1371C247.615 11.2038 247.411 10.6408 245.759 10.6408C241.372 10.6408 242.701 15.6664 239.398 15.6664C238.606 15.6664 238.428 15.1649 238.428 14.5821C238.428 13.2009 242.247 9.4795 246.751 9.4795C250.713 9.4795 250.844 11.6437 250.844 12.6906V22.412ZM247.626 17.6767C247.626 17.0872 247.332 17.074 247.084 17.074C246.865 17.074 241.545 18.2925 241.545 22.0799C241.512 22.7152 241.73 23.3381 242.152 23.8136C242.574 24.2891 243.165 24.5788 243.798 24.6202C244.781 24.6469 245.735 24.2834 246.452 23.6087C247.169 22.934 247.591 22.0027 247.626 21.0176V17.6767Z" fill="#0677B3"/>
<path d="M53.8576 23.758C53.8576 25.0117 54.2964 25.1876 55.5248 25.2976C55.8801 25.3262 56.2969 25.335 56.2969 25.7529C56.2969 26.2126 55.8165 26.2126 55.4414 26.2126H49.0514C48.718 26.2126 48.2573 26.2499 48.2573 25.7903C48.2573 25.6231 48.435 25.3504 48.9944 25.3086C49.817 25.2404 50.644 25.401 50.644 23.7141V13.4538C50.644 11.9912 48.6412 13.1239 48.6412 12.2881C48.6412 11.7427 49.7249 11.6173 51.0542 10.7486C52.5239 9.79401 53.046 9.47729 53.454 9.47729C53.7019 9.47729 53.862 9.69722 53.862 10.0777L53.8576 23.758ZM54.1625 5.63712C54.1625 6.14228 53.9624 6.62673 53.6061 6.98393C53.2499 7.34113 52.7667 7.5418 52.2629 7.5418C51.759 7.5418 51.2759 7.34113 50.9196 6.98393C50.5634 6.62673 50.3632 6.14228 50.3632 5.63712C50.3817 5.13751 50.5881 4.66343 50.9409 4.31012C51.2937 3.9568 51.7668 3.75043 52.2651 3.73244C52.5168 3.72351 52.7677 3.76668 53.0021 3.85927C53.2365 3.95185 53.4494 4.09187 53.6274 4.27058C53.8054 4.44929 53.9448 4.66288 54.0369 4.89799C54.129 5.1331 54.1717 5.3847 54.1625 5.63712Z" fill="#0677B3"/>
<path d="M73.4334 23.758C73.4334 25.0117 73.8722 25.1876 75.1006 25.2976C75.4559 25.3262 75.8727 25.335 75.8727 25.7529C75.8727 26.2126 75.3923 26.2126 75.0172 26.2126H68.6272C68.2938 26.2126 67.8331 26.2499 67.8331 25.7903C67.8331 25.6231 68.0108 25.3504 68.5702 25.3086C69.3928 25.2404 70.2198 25.401 70.2198 23.7141V13.4538C70.2198 11.9912 68.217 13.1239 68.217 12.2881C68.217 11.7427 69.3007 11.6173 70.63 10.7485C72.0997 9.794 72.6218 9.47728 73.0298 9.47728C73.2777 9.47728 73.4378 9.69721 73.4378 10.0777L73.4334 23.758ZM73.7383 5.63711C73.7383 6.14227 73.5382 6.62672 73.1819 6.98392C72.8257 7.34112 72.3425 7.54179 71.8387 7.54179C71.3349 7.54179 70.8517 7.34112 70.4954 6.98392C70.1392 6.62672 69.939 6.14227 69.939 5.63711C69.9575 5.13751 70.1639 4.66342 70.5167 4.31011C70.8695 3.95679 71.3426 3.75042 71.8409 3.73243C72.0925 3.72381 72.3431 3.7672 72.5772 3.85993C72.8114 3.95266 73.024 4.09274 73.2018 4.27141C73.3795 4.45009 73.5187 4.66356 73.6107 4.89852C73.7026 5.13348 73.7475 5.38489 73.7383 5.63711Z" fill="#0677B3"/>
<path d="M165.423 23.758C165.423 25.0117 165.861 25.1876 167.09 25.2976C167.445 25.3262 167.862 25.335 167.862 25.7529C167.862 26.2125 167.382 26.2125 167.006 26.2125H160.616C160.283 26.2125 159.822 26.2499 159.822 25.7902C159.822 25.6231 160 25.3504 160.559 25.3086C161.382 25.2404 162.207 25.401 162.207 23.714V13.4538C162.207 11.9912 160.204 13.1239 160.204 12.2881C160.204 11.7427 161.288 11.6173 162.617 10.7485C164.087 9.79399 164.609 9.47727 165.015 9.47727C165.262 9.47727 165.423 9.6972 165.423 10.0777V23.758ZM165.728 5.6371C165.728 6.14255 165.527 6.62731 165.171 6.98471C164.814 7.34212 164.331 7.54289 163.827 7.54289C163.323 7.54289 162.839 7.34212 162.483 6.98471C162.126 6.62731 161.926 6.14255 161.926 5.6371C161.945 5.13749 162.151 4.66341 162.504 4.3101C162.857 3.95678 163.33 3.75041 163.828 3.73242C164.08 3.72318 164.331 3.76613 164.566 3.85858C164.8 3.95103 165.013 4.09098 165.192 4.26972C165.37 4.44847 165.51 4.66217 165.602 4.89743C165.694 5.1327 165.737 5.38449 165.728 5.6371Z" fill="#0677B3"/>
<path d="M171.918 13.5946C171.918 11.8175 169.909 13.1745 169.909 12.2552C169.909 11.7251 170.657 11.8043 172.381 10.6936C173.067 10.1305 173.863 9.71705 174.717 9.47948C174.923 9.47948 175.116 9.64662 175.116 10.0227V11.7141C176.597 10.3609 178.504 9.57157 180.506 9.48388C186.093 9.48388 186.137 13.6628 186.137 15.5476V23.714C186.137 24.9545 186.486 25.225 187.723 25.2888C188.313 25.3196 188.767 25.4362 188.767 25.7903C188.767 26.1444 188.475 26.2126 187.89 26.2126H181.129C180.627 26.2126 180.295 26.1708 180.295 25.7947C180.295 25.3768 180.668 25.324 180.879 25.3042C182.055 25.1921 182.925 25.4911 182.925 23.7074V15.7588C182.925 14.0872 182.706 11.2434 179.416 11.2434C177.981 11.2344 176.595 11.763 175.529 12.7258C175.136 13.0667 175.121 13.2449 175.121 14.074V23.7228C175.121 25.1041 175.581 25.2118 177.007 25.302C177.553 25.3372 178.246 25.302 178.246 25.7551C178.246 26.173 177.748 26.2147 177.33 26.2147H170.253C169.959 26.2147 169.536 26.1818 169.536 25.8101C169.536 25.4758 169.909 25.3218 170.161 25.3042C171.334 25.2272 171.916 25.203 171.916 23.714L171.918 13.5946Z" fill="#0677B3"/>
<path d="M219.614 13.5946C219.614 11.8175 217.604 13.1745 217.604 12.2552C217.604 11.7251 218.352 11.8043 220.076 10.6936C220.763 10.1306 221.558 9.71711 222.413 9.47948C222.619 9.47948 222.812 9.64662 222.812 10.0227V11.7141C224.292 10.3613 226.199 9.57208 228.199 9.48388C233.787 9.48388 233.83 13.6628 233.83 15.5476V23.714C233.83 24.9545 234.179 25.225 235.416 25.2888C236.007 25.3196 236.461 25.4362 236.461 25.7903C236.461 26.1444 236.169 26.2126 235.583 26.2126H228.822C228.32 26.2126 227.989 26.1708 227.989 25.7947C227.989 25.3768 228.362 25.324 228.572 25.3042C229.748 25.1921 230.619 25.4911 230.619 23.7074V15.7588C230.619 14.0872 230.4 11.2434 227.109 11.2434C225.675 11.2344 224.288 11.763 223.222 12.7258C222.83 13.0667 222.814 13.2449 222.814 14.074V23.7228C222.814 25.1041 223.275 25.2118 224.701 25.302C225.247 25.3372 225.94 25.302 225.94 25.7551C225.94 26.173 225.442 26.2147 225.023 26.2147H217.936C217.642 26.2147 217.218 26.1818 217.218 25.8101C217.218 25.4758 217.591 25.3218 217.843 25.3042C219.017 25.2272 219.598 25.203 219.598 23.714L219.614 13.5946Z" fill="#0677B3"/>
<path d="M196.056 11.6877C194.889 11.6877 194.764 12.022 194.764 13.3614C194.764 15.6202 194.764 19.5747 194.764 21.9171C194.764 23.6327 195.006 24.8819 196.991 24.8819C199.018 24.8819 199.25 23.5623 199.86 23.5623C200.154 23.5623 200.189 23.7514 200.189 23.9318C199.841 24.7504 199.24 25.4353 198.474 25.8855C197.708 26.3357 196.818 26.5275 195.936 26.4325C192.808 26.4325 191.529 25.0029 191.529 21.8665V12.585C191.529 11.9978 191.309 11.6855 190.612 11.6855H189.691C189.646 11.6867 189.603 11.6789 189.562 11.6625C189.521 11.6461 189.483 11.6215 189.452 11.5903C189.421 11.559 189.396 11.5217 189.38 11.4805C189.364 11.4394 189.356 11.3954 189.357 11.3512C189.357 11.1312 189.418 10.9707 189.748 10.7529C190.627 10.2684 191.406 9.62051 192.044 8.84385C192.746 7.88738 193.324 6.84622 193.766 5.74489C193.957 5.30501 194.179 5.15765 194.356 5.15765C194.709 5.15765 194.758 5.32482 194.758 5.78449V9.58506C194.758 9.96116 194.839 10.1283 195.416 10.1283H199.474C199.893 10.1283 200.226 10.1173 200.226 10.9531C200.226 11.4963 200.185 11.6811 199.518 11.6811L196.056 11.6877Z" fill="#0677B3"/>
<path d="M205.046 16.3328C204.388 16.3328 204.179 16.7287 204.179 17.7954C204.179 21.3145 205.127 24.3497 209.593 24.3497C211.186 24.4001 212.748 23.8931 214.009 22.9156C214.448 22.5285 214.535 22.5373 214.698 22.5373C214.943 22.5373 215.016 22.8123 214.943 23.0234C214.274 24.1238 213.318 25.0203 212.178 25.6164C211.038 26.2124 209.758 26.4855 208.474 26.4061C203.888 26.4061 200.882 23.5249 200.882 18.2969C200.882 14.3666 203.677 9.47507 208.85 9.47507C209.663 9.41405 210.48 9.52067 211.251 9.78836C212.022 10.056 212.73 10.4791 213.331 11.0316C213.933 11.584 214.415 12.2541 214.749 13.0005C215.082 13.7469 215.26 14.5539 215.27 15.3717C215.27 16.1239 215.145 16.3328 214.439 16.3328H205.046ZM212.337 13.2141C212.317 12.84 212.223 12.4737 212.061 12.1362C211.898 11.7987 211.671 11.4968 211.392 11.2478C211.113 10.9988 210.787 10.8076 210.434 10.6853C210.081 10.563 209.707 10.512 209.334 10.5352C208.211 10.5314 207.123 10.9293 206.266 11.6573C205.409 12.3853 204.839 13.3957 204.658 14.5073C204.658 14.7558 204.737 14.9846 205.055 15.0044C205.546 15.0352 206.612 15.0792 208.266 15.0792C211.949 15.0792 212.337 14.4787 212.337 13.2141Z" fill="#0677B3"/>
<path d="M27.1218 25.2624C25.4152 25.1371 25.1476 24.9369 23.6428 21.2221C20.8503 14.2962 18.3276 7.94649 15.7019 0.958972C15.6251 0.70604 15.5176 0.160606 15.0855 0.160606C14.6533 0.160606 14.4976 0.743447 14.3528 1.07996C14.1181 1.62101 13.8768 2.12467 13.6377 2.66793C10.8233 9.10339 7.99134 14.824 5.17474 21.2617C3.63921 24.9369 3.10396 25.2206 1.19771 25.2206C0.809443 25.2206 0.00219727 25.2338 0.00219727 25.7617C0.00219727 26.1796 0.357563 26.2016 0.748026 26.2016C1.44121 26.2016 8.23483 26.2016 9.01576 26.2016C9.45448 26.2016 9.87565 26.1884 9.87565 25.7617C9.87565 25.2602 9.3053 25.2338 8.91265 25.2316C8.09224 25.2316 5.84159 25.2316 5.89643 23.7228C6.3756 21.8304 7.09049 20.0059 8.02424 18.2925C8.78323 16.6188 8.82711 16.6188 9.77913 16.6188H16.1099C18.1851 16.6188 17.8823 16.6187 18.7049 18.7588C19.4925 20.4402 20.0921 22.2039 20.4927 24.0176C20.4401 25.2712 18.7927 25.2668 17.6652 25.2646C17.2265 25.2646 16.406 25.2954 16.406 25.8453C16.406 26.129 16.6035 26.2016 17.0883 26.2016H29.1838C29.2964 26.1776 29.3971 26.1151 29.4688 26.0248C29.5404 25.9345 29.5785 25.822 29.5765 25.7067C29.5765 25.5593 29.7344 25.3856 29.3966 25.3636C28.6091 25.313 27.5101 25.2932 27.1218 25.2624ZM15.9893 15.3959H10.3604C9.88223 15.3959 9.44789 15.3959 9.45886 15.143C9.48958 14.9697 9.54037 14.8007 9.61022 14.6393C10.707 12.0946 11.7643 9.58066 12.9006 7.03815C13.0893 6.61366 13.4293 5.78229 13.6881 5.78229C13.9075 5.78229 14.2124 6.70384 14.3309 7.03815C15.182 9.45749 16.0858 11.7669 16.9873 14.151C16.9873 14.2368 17.2637 14.9076 17.255 15.0726C17.244 15.4069 16.8952 15.4069 15.9827 15.4025" fill="#0677B3"/>
<path d="M252.842 3.62246C253.239 3.62897 253.625 3.75288 253.951 3.97861C254.278 4.20433 254.531 4.5218 254.678 4.89111C254.825 5.26042 254.86 5.66509 254.778 6.05424C254.696 6.44339 254.502 6.79967 254.219 7.07827C253.936 7.35686 253.577 7.54534 253.187 7.62003C252.798 7.69472 252.395 7.65228 252.029 7.49804C251.664 7.34379 251.352 7.08463 251.133 6.75313C250.914 6.42164 250.797 6.03261 250.798 5.63494C250.798 5.36748 250.851 5.1027 250.954 4.85607C251.057 4.60944 251.209 4.3859 251.399 4.19853C251.589 4.01115 251.815 3.8637 252.063 3.76479C252.311 3.66588 252.576 3.61749 252.842 3.62246ZM252.842 3.948C252.507 3.93925 252.176 4.03107 251.893 4.21171C251.61 4.39236 251.387 4.65358 251.253 4.96202C251.118 5.27046 251.079 5.61206 251.139 5.94312C251.2 6.27418 251.357 6.57963 251.592 6.82042C251.826 7.06121 252.127 7.22639 252.456 7.2948C252.784 7.3632 253.126 7.33175 253.437 7.20445C253.747 7.07715 254.013 6.85979 254.2 6.5802C254.387 6.3006 254.486 5.97149 254.486 5.63494C254.49 5.41597 254.451 5.19826 254.37 4.99468C254.29 4.79109 254.17 4.60575 254.017 4.44956C253.863 4.29336 253.681 4.16948 253.479 4.08523C253.277 4.00097 253.061 3.95804 252.842 3.95897V3.948ZM252.404 6.80723H252.046V4.48023H252.935C253.487 4.48023 253.759 4.68698 253.759 5.14006C253.764 5.22287 253.752 5.3058 253.724 5.38371C253.695 5.46162 253.651 5.53287 253.594 5.59306C253.537 5.65324 253.469 5.70106 253.392 5.73361C253.316 5.76616 253.234 5.78274 253.152 5.7823L253.81 6.80502H253.419L252.801 5.79328H252.402L252.404 6.80723ZM252.404 5.50298H252.827C253.266 5.50298 253.402 5.3776 253.402 5.12247C253.402 4.90253 253.292 4.77496 252.886 4.77496H252.404V5.50298Z" fill="#032D46"/>
</svg>
