<svg width="244" height="60" viewBox="0 0 244 60" fill="none" xmlns="http://www.w3.org/2000/svg">
<path d="M2.41142 42.6803C1.4746 46.3133 1.4746 50.1246 2.41142 53.7576C2.83152 55.3861 3.50318 56.9391 4.40213 58.3605H2.94963C2.0238 56.958 1.33879 55.4106 0.922894 53.7823C-0.0169412 50.1329 -0.0169412 46.3049 0.922894 42.6555C1.33843 41.0271 2.02347 39.4797 2.94963 38.0773H4.40213C3.50318 39.4988 2.83152 41.0518 2.41142 42.6803Z" fill="#575B5C"/>
<path d="M15.1799 54.6133C14.3811 55.1705 13.4375 55.4834 12.4641 55.5141C11.5273 55.5141 10.7856 55.2251 10.2392 54.6471C9.69269 54.0691 9.41946 53.2029 9.41946 52.0484V44.7521H7.66295L7.63818 43.5361H9.41946V40.3834H10.9958V43.5361L14.9772 43.5113V44.7521H10.9823V51.8029C10.9823 53.3162 11.5445 54.0729 12.669 54.0729C13.3909 54.039 14.0907 53.8128 14.6957 53.4175L15.1799 54.6133Z" fill="#575B5C"/>
<path d="M27.5656 43.9212C28.489 44.431 29.2511 45.1893 29.7657 46.11C30.3065 47.0838 30.5814 48.1828 30.5629 49.2965C30.5822 50.4211 30.3074 51.5311 29.7657 52.5168C29.2536 53.4423 28.4911 54.2048 27.5656 54.7169C26.5832 55.2331 25.49 55.5028 24.3802 55.5028C23.2705 55.5028 22.1773 55.2331 21.1949 54.7169C20.2686 54.2051 19.5052 53.4426 18.9925 52.5168C18.4515 51.5309 18.1775 50.4209 18.1976 49.2965C18.1782 48.183 18.4524 47.084 18.9925 46.11C19.5079 45.1891 20.2708 44.4309 21.1949 43.9212C22.1778 43.4064 23.2707 43.1376 24.3802 43.1376C25.4897 43.1376 26.5827 43.4064 27.5656 43.9212ZM21.9898 45.1124C21.2924 45.5153 20.7239 46.1081 20.3504 46.8216C19.9509 47.5958 19.7497 48.457 19.7649 49.328C19.7479 50.2072 19.9491 51.0768 20.3504 51.8592C20.7239 52.5728 21.2924 53.1656 21.9898 53.5684C22.723 53.9674 23.5444 54.1763 24.3791 54.1763C25.2138 54.1763 26.0352 53.9674 26.7684 53.5684C27.4663 53.1662 28.035 52.5732 28.4078 51.8592C28.8091 51.0768 29.0103 50.2072 28.9933 49.328C29.0085 48.457 28.8073 47.5958 28.4078 46.8216C28.035 46.1076 27.4663 45.5147 26.7684 45.1124C26.0352 44.7135 25.2138 44.5045 24.3791 44.5045C23.5444 44.5045 22.723 44.7135 21.9898 45.1124Z" fill="#575B5C"/>
<path d="M35.6455 38.0773H37.2219V55.4555H35.6455V38.0773Z" fill="#575B5C"/>
<path d="M41.3834 43.1825H43.0679L47.1439 53.895L51.1726 43.1915H52.812L47.9411 55.4645H46.2769L41.3834 43.1825Z" fill="#575B5C"/>
<path d="M64.1008 55.4555L64.0761 53.395C63.6088 54.0984 62.9512 54.6545 62.1799 54.9984C61.327 55.3647 60.4057 55.5444 59.4776 55.5254C58.7196 55.5411 57.9686 55.3767 57.2865 55.0457C56.6829 54.7549 56.1757 54.2967 55.8251 53.7258C55.4746 53.1549 55.2955 52.4952 55.3093 51.8254C55.2918 51.3387 55.3948 50.8551 55.6094 50.4178C55.8239 49.9806 56.1432 49.6031 56.5388 49.319C57.3585 48.7185 58.4845 48.4183 59.9167 48.4183H64.0468V47.4815C64.0468 46.5131 63.7578 45.7625 63.1798 45.2295C62.6018 44.6966 61.7648 44.4323 60.6689 44.4368C59.3553 44.4368 58.0356 44.9285 56.71 45.9118L56.0074 44.8332C56.7382 44.3083 57.5337 43.8799 58.3742 43.5586C59.2021 43.2715 60.0742 43.1328 60.9504 43.1487C62.4321 43.1487 63.5791 43.5195 64.3913 44.2612C65.2035 45.0028 65.6141 46.0252 65.6231 47.3283L65.6456 55.4555H64.1008ZM62.5425 53.4446C63.2972 52.94 63.8423 52.1779 64.0761 51.3007V49.6163H60.1194C59.0415 49.6163 58.2218 49.7964 57.6603 50.1568C57.3876 50.3253 57.1652 50.5641 57.0166 50.8482C56.868 51.1324 56.7987 51.4512 56.8158 51.7714C56.8046 52.1088 56.8718 52.4443 57.0121 52.7514C57.1523 53.0585 57.3619 53.3289 57.6243 53.5414C58.1632 53.9918 58.8778 54.217 59.7681 54.217C60.7496 54.2447 61.7166 53.9755 62.5425 53.4446Z" fill="#575B5C"/>
<path d="M81.1142 43.9212C82.0091 44.4401 82.7366 45.2043 83.2108 46.1236C83.7229 47.1186 83.9805 48.225 83.9607 49.3438C83.9796 50.4511 83.7218 51.5456 83.2108 52.5281C82.7351 53.4391 82.0124 54.1977 81.1255 54.717C80.2008 55.2505 79.1483 55.5222 78.0809 55.5029C77.0462 55.5259 76.0252 55.2625 75.1308 54.7417C74.2881 54.235 73.6058 53.5004 73.1627 52.6227V60H71.5863V43.1826H73.1627V46.0132C73.594 45.1309 74.2743 44.3943 75.1196 43.8942C76.0107 43.3754 77.0275 43.1121 78.0584 43.133C79.1293 43.1167 80.1848 43.3889 81.1142 43.9212ZM80.1414 53.5234C80.8395 53.1157 81.4085 52.5194 81.7831 51.803C82.1681 51.0276 82.3685 50.1736 82.3685 49.3078C82.3685 48.4421 82.1681 47.5881 81.7831 46.8127C81.4079 46.0967 80.839 45.5005 80.1414 45.0922C79.4179 44.6848 78.6016 44.4707 77.7712 44.4707C76.9409 44.4707 76.1246 44.6848 75.4011 45.0922C74.7072 45.5045 74.14 46.0997 73.7617 46.8127C73.3565 47.5747 73.1505 48.4268 73.1627 49.2898C73.1475 50.1608 73.3486 51.022 73.7482 51.7962C74.1225 52.5121 74.6906 53.1082 75.3876 53.5167C76.1141 53.9405 76.9426 54.1577 77.7836 54.145C78.6114 54.1553 79.4263 53.9405 80.1414 53.5234Z" fill="#575B5C"/>
<path d="M95.1077 54.6133C94.3088 55.1705 93.3653 55.4834 92.3918 55.5141C91.455 55.5141 90.7134 55.2251 90.1669 54.6471C89.6204 54.0691 89.3472 53.2029 89.3472 52.0484V44.7521H87.5907L87.5659 43.5361H89.3472V40.3834H90.9235V43.5361L94.905 43.5113V44.7521H90.9235V51.8029C90.9235 53.3162 91.4858 54.0729 92.6103 54.0729C93.3322 54.039 94.0319 53.8128 94.637 53.4175L95.1077 54.6133Z" fill="#575B5C"/>
<path d="M107.284 55.4555L107.261 53.395C106.794 54.099 106.135 54.6551 105.363 54.9984C104.51 55.3649 103.589 55.5446 102.661 55.5253C101.903 55.5408 101.153 55.3764 100.472 55.0457C99.8686 54.7543 99.3615 54.2961 99.0107 53.7253C98.6598 53.1546 98.48 52.4952 98.4924 51.8254C98.4749 51.3386 98.5779 50.8551 98.7925 50.4178C99.007 49.9805 99.3263 49.6031 99.722 49.319C100.542 48.7185 101.668 48.4182 103.1 48.4182H107.221V47.4814C107.221 46.5131 106.932 45.7625 106.354 45.2295C105.776 44.6965 104.939 44.4323 103.843 44.4368C102.532 44.4368 101.213 44.9285 99.8864 45.9118L99.1838 44.8332C99.9136 44.3079 100.708 43.8795 101.548 43.5585C102.376 43.2717 103.248 43.133 104.124 43.1487C105.608 43.1487 106.755 43.5195 107.568 44.2612C108.38 45.0028 108.793 46.0289 108.809 47.3396L108.831 55.4668L107.284 55.4555ZM105.726 53.4535C106.482 52.9498 107.028 52.1875 107.261 51.3097V49.6163H103.303C102.226 49.6163 101.406 49.7964 100.843 50.1567C100.571 50.3254 100.349 50.5643 100.201 50.8484C100.052 51.1326 99.9836 51.4514 100.001 51.7714C99.9897 52.1086 100.057 52.4439 100.196 52.751C100.336 53.0581 100.545 53.3287 100.807 53.5414C101.348 53.9918 102.062 54.217 102.951 54.217C103.933 54.2452 104.901 53.9759 105.728 53.4445L105.726 53.4535Z" fill="#575B5C"/>
<path d="M124.534 44.4122C125.37 45.2634 125.788 46.4306 125.788 47.9139V55.4556H124.196V48.29C124.196 47.134 123.875 46.228 123.234 45.5719C122.593 44.9158 121.705 44.5878 120.57 44.5878C119.305 44.6043 118.294 44.9954 117.537 45.7611C116.78 46.5267 116.347 47.5566 116.237 48.8507V55.4556H114.661V43.1826H116.237V46.0403C116.611 45.1417 117.263 44.3864 118.098 43.8852C119.01 43.3787 120.04 43.1209 121.084 43.1376C122.543 43.1376 123.693 43.5624 124.534 44.4122Z" fill="#575B5C"/>
<path d="M131.431 38.0773C132.357 39.4797 133.042 41.0271 133.458 42.6555C134.395 46.3053 134.395 50.1325 133.458 53.7823C133.042 55.4106 132.357 56.958 131.431 58.3605H129.979C130.879 56.9396 131.55 55.3864 131.969 53.7576C132.906 50.1246 132.906 46.3133 131.969 42.6803C131.55 41.0514 130.879 39.4983 129.979 38.0773H131.431Z" fill="#575B5C"/>
<path d="M153.971 54.9969C153.157 55.574 152.191 55.9006 151.194 55.9366C150.773 55.9576 150.352 55.8894 149.96 55.7363C149.567 55.5833 149.211 55.3489 148.915 55.0485C148.355 54.4565 148.076 53.5701 148.079 52.3892V44.9091H146.279L146.256 43.6594H148.079V40.4268H149.681V43.6594L153.755 43.6359V44.9091H149.681V52.1214C149.681 53.6719 150.259 54.4424 151.41 54.4424C152.151 54.4115 152.87 54.1809 153.492 53.7752L153.971 54.9969Z" fill="#575B5C"/>
<path d="M165.712 55.8565V53.7469C165.235 54.4686 164.562 55.0391 163.772 55.3913C162.903 55.7643 161.964 55.9485 161.018 55.9317C160.243 55.9484 159.474 55.7792 158.777 55.4384C158.16 55.1416 157.641 54.6739 157.282 54.0908C156.923 53.5078 156.739 52.834 156.752 52.1494C156.734 51.6516 156.84 51.1571 157.058 50.7097C157.277 50.2622 157.603 49.8756 158.007 49.584C159.031 48.9051 160.247 48.5755 161.474 48.6443H165.703V47.7046C165.729 47.2803 165.663 46.8554 165.51 46.4589C165.356 46.0624 165.119 45.7036 164.815 45.407C164.089 44.8151 163.165 44.5227 162.231 44.5895C160.752 44.638 159.33 45.1675 158.181 46.0977L157.462 44.9982C158.209 44.4609 159.022 44.0219 159.881 43.6921C160.729 43.3984 161.621 43.2569 162.517 43.2739C164.036 43.2739 165.21 43.6529 166.036 44.4109C166.46 44.816 166.793 45.3066 167.013 45.8502C167.232 46.3938 167.333 46.9779 167.31 47.5636L167.333 55.8753L165.712 55.8565ZM164.119 53.808C164.891 53.2932 165.449 52.5148 165.689 51.6185V49.8894H161.639C160.765 49.8346 159.894 50.0267 159.125 50.4438C158.845 50.616 158.617 50.8606 158.465 51.1518C158.313 51.4429 158.242 51.7697 158.26 52.0977C158.25 52.4425 158.319 52.7852 158.462 53.0989C158.606 53.4127 158.82 53.6891 159.087 53.9066C159.715 54.3867 160.493 54.6282 161.282 54.5879C162.285 54.6209 163.274 54.349 164.119 53.808Z" fill="#575B5C"/>
<path d="M182.401 44.0587C183.318 44.5871 184.064 45.3685 184.549 46.3093C185.071 47.3256 185.334 48.4555 185.314 49.5982C185.335 50.732 185.072 51.8529 184.549 52.859C184.062 53.7915 183.323 54.5682 182.415 55.1002C181.469 55.6436 180.392 55.9197 179.3 55.8989C178.239 55.9288 177.191 55.6654 176.27 55.1378C175.41 54.6166 174.713 53.8645 174.259 52.967V55.866H172.652V38.0775H174.259V46.2106C174.699 45.3067 175.395 44.5519 176.26 44.0399C177.173 43.5113 178.213 43.2431 179.267 43.2646C180.365 43.2416 181.448 43.516 182.401 44.0587ZM181.41 53.8833C182.123 53.4643 182.704 52.8539 183.087 52.1213C183.496 51.3288 183.701 50.4473 183.684 49.5559C183.699 48.6722 183.494 47.7987 183.087 47.014C182.703 46.2823 182.122 45.6722 181.41 45.2521C180.669 44.8364 179.833 44.6181 178.983 44.6181C178.133 44.6181 177.298 44.8364 176.556 45.2521C175.849 45.6777 175.269 46.2864 174.879 47.014C174.464 47.796 174.253 48.6706 174.268 49.5559C174.252 50.4473 174.457 51.3288 174.865 52.1213C175.248 52.8539 175.829 53.4643 176.542 53.8833C177.286 54.3124 178.132 54.5317 178.99 54.5175C179.839 54.5287 180.676 54.3095 181.41 53.8833Z" fill="#575B5C"/>
<path d="M189.797 38.0775H191.399V55.8566H189.797V38.0775Z" fill="#575B5C"/>
<path d="M206.519 45.1113C207.543 46.3485 208.013 48.0134 207.928 50.1058H197.46C197.519 51.3387 198.051 52.5016 198.945 53.3525C199.826 54.179 200.998 54.6233 202.206 54.5882C202.969 54.5943 203.727 54.4473 204.433 54.1559C205.103 53.8796 205.707 53.4631 206.204 52.9343L207.116 53.8458C206.501 54.5041 205.753 55.0232 204.921 55.3681C204.027 55.7335 203.068 55.9156 202.102 55.9038C200.973 55.9265 199.858 55.651 198.87 55.105C197.936 54.5793 197.168 53.803 196.652 52.8638C196.124 51.8521 195.849 50.7278 195.849 49.5866C195.849 48.4454 196.124 47.3212 196.652 46.3094C197.163 45.3644 197.932 44.584 198.87 44.0588C199.842 43.5148 200.941 43.2377 202.055 43.2554C204.013 43.2554 205.501 43.874 206.519 45.1113ZM206.495 48.8701C206.476 47.6983 206.009 46.5785 205.189 45.7409C204.776 45.3499 204.289 45.0457 203.756 44.8464C203.224 44.647 202.656 44.5566 202.088 44.5804C200.921 44.5457 199.787 44.9671 198.926 45.755C198.063 46.5712 197.541 47.6843 197.465 48.8701H206.495Z" fill="#575B5C"/>
<path d="M218.556 54.9969C217.74 55.5739 216.774 55.9004 215.775 55.9366C215.355 55.9579 214.935 55.8897 214.543 55.7366C214.151 55.5835 213.795 55.349 213.501 55.0485C212.94 54.4565 212.66 53.5701 212.66 52.3892V44.9091H210.865L210.841 43.6594H212.66V40.4268H214.267V43.6594L218.34 43.6359V44.9091H214.267V52.1214C214.267 53.6719 214.84 54.4424 215.991 54.4424C216.734 54.4114 217.454 54.1809 218.077 53.7752L218.556 54.9969Z" fill="#575B5C"/>
<path d="M227.319 44.8246C226.751 44.6589 226.163 44.5735 225.571 44.5709C224.896 44.5387 224.226 44.7018 223.64 45.0407C223.403 45.1883 223.21 45.3972 223.082 45.6453C222.954 45.8934 222.895 46.1715 222.912 46.4503C222.904 46.6432 222.935 46.8358 223.002 47.0167C223.07 47.1975 223.174 47.3628 223.307 47.5027C223.587 47.7864 223.921 48.0116 224.289 48.1652C224.825 48.3804 225.372 48.567 225.929 48.7243C226.648 48.9283 227.353 49.1811 228.038 49.4808C228.587 49.7245 229.07 50.0948 229.448 50.5615C229.858 51.0989 230.061 51.7659 230.021 52.4409C230.047 52.9484 229.941 53.4541 229.715 53.9092C229.489 54.3643 229.149 54.7534 228.729 55.0391C227.769 55.667 226.638 55.9807 225.492 55.9366C224.594 55.9324 223.704 55.7735 222.86 55.4667C222.064 55.1938 221.336 54.7513 220.727 54.1699L221.371 53.0188C221.935 53.5278 222.59 53.9263 223.302 54.1934C224.024 54.4767 224.792 54.6233 225.567 54.6257C226.294 54.6578 227.015 54.4748 227.639 54.0994C227.896 53.9371 228.107 53.7094 228.248 53.4396C228.389 53.1697 228.456 52.8673 228.442 52.563C228.458 52.1454 228.312 51.7379 228.034 51.426C227.749 51.1217 227.401 50.8842 227.014 50.7306C226.61 50.5661 226.046 50.3688 225.327 50.1433C224.624 49.9412 223.935 49.6933 223.265 49.4009C222.742 49.1642 222.283 48.8067 221.925 48.3579C221.536 47.8469 221.339 47.2144 221.371 46.5724C221.344 46.0859 221.444 45.6008 221.661 45.1644C221.877 44.728 222.203 44.3551 222.607 44.0822C223.524 43.4968 224.597 43.2051 225.684 43.2459C226.39 43.2431 227.092 43.3395 227.77 43.5325C228.403 43.7083 229.008 43.9741 229.565 44.3218L228.945 45.5434C228.441 45.2253 227.894 44.9831 227.319 44.8246Z" fill="#575B5C"/>
<path d="M10.1535 19.8732C10.1535 21.9938 9.56509 23.5725 8.38834 24.6092C7.21158 25.6459 5.60019 26.1642 3.55419 26.1642C2.42986 26.1481 1.31087 26.0065 0.218018 25.7418V23.1706C1.13152 23.3134 2.0542 23.3898 2.97876 23.3989C4.33515 23.3989 5.37109 23.1242 6.08658 22.5746C6.80207 22.025 7.16057 21.0355 7.16209 19.6061V0.424789H10.1535V19.8732Z" fill="#1E3C70"/>
<path d="M32.8239 15.2309V25.7349H29.8326V15.2309L21.0411 0.422457H24.4161L31.3282 12.3103L38.2723 0.417892H41.6108L32.8239 15.2309Z" fill="#1E3C70"/>
<path d="M72.721 0.422446V26.1642H71.6477L55.5355 6.71345V25.7417H52.5532V0H53.6265L69.7387 19.4896V0.422446H72.721Z" fill="#1E3C70"/>
<path d="M100.995 20.6016H88.6324L86.4471 25.7417H83.3096L94.2703 0H95.3824L106.355 25.7417H103.158L100.995 20.6016ZM94.8183 5.48722L89.7558 17.9162H99.8831L94.8183 5.48722Z" fill="#1E3C70"/>
<path d="M133.22 25.7418L125.355 15.1144H119.946V25.7418H116.948V0.422485H125.853C128.309 0.422485 130.272 1.10753 131.742 2.47762C133.213 3.84771 133.948 5.606 133.948 7.75248C133.987 9.34698 133.487 10.908 132.528 12.1824C131.55 13.4451 130.187 14.3542 128.646 14.7719L136.702 25.7441L133.22 25.7418ZM119.946 12.4291H125.739C127.377 12.4291 128.637 12.0074 129.518 11.164C130.4 10.3206 130.84 9.19564 130.84 7.78901C130.84 6.40827 130.393 5.28251 129.498 4.41174C128.602 3.54097 127.35 3.10634 125.739 3.10787H119.946V12.4291Z" fill="#1E3C70"/>
<path d="M182.554 30.7677V33.1448C181.213 33.3944 179.852 33.5228 178.487 33.5284C171.838 33.5284 166.544 30.754 162.606 25.2051C161.021 25.8441 159.327 26.1698 157.619 26.1642C153.936 26.1642 150.828 24.9045 148.295 22.385C145.762 19.8656 144.496 16.7646 144.498 13.0821C144.498 9.39959 145.77 6.29862 148.316 3.77917C150.861 1.25973 153.962 0 157.619 0C161.272 0 164.379 1.25973 166.94 3.77917C169.5 6.29862 170.779 9.39959 170.776 13.0821C170.796 15.2504 170.267 17.3885 169.239 19.2977C168.248 21.1548 166.812 22.7366 165.058 23.9012C168.613 28.6052 173.216 30.958 178.869 30.9595C179.919 30.9595 181.148 30.8956 182.554 30.7677ZM150.483 20.4486C152.401 22.417 154.792 23.4012 157.655 23.4012C160.519 23.4012 162.904 22.417 164.812 20.4486C166.716 18.4787 167.668 16.0232 167.668 13.0821C167.668 10.141 166.716 7.68622 164.812 5.71785C162.906 3.74796 160.508 2.76302 157.619 2.76302C154.752 2.76302 152.367 3.74111 150.462 5.6973C148.558 7.65349 147.606 10.1021 147.606 13.0433C147.606 16.0103 148.565 18.4787 150.483 20.4486Z" fill="#1E3C70"/>
<path d="M201.772 15.6922C201.772 18.9636 200.839 21.5272 198.973 23.3829C197.106 25.2386 194.702 26.1657 191.759 26.1642C188.768 26.1642 186.339 25.2432 184.472 23.4012C182.606 21.5592 181.672 18.9895 181.671 15.6922V0.422485H184.662V15.884C184.662 18.3395 185.321 20.2058 186.64 21.4831C187.958 22.7603 189.664 23.3997 191.759 23.4012C193.833 23.4012 195.521 22.7618 196.824 21.4831C198.127 20.2043 198.779 18.338 198.781 15.884V0.422485H201.772V15.6922Z" fill="#1E3C70"/>
<path d="M230.583 3.10787H217.339V10.858H227.468V13.5434H217.341V23.0564H231.042V25.7418H214.356V0.422485H230.583V3.10787Z" fill="#1E3C70"/>
<path d="M242.806 1.51166C243.516 2.24723 243.913 3.22959 243.913 4.25185C243.913 5.27411 243.516 6.25647 242.806 6.99203C242.466 7.35768 242.053 7.64813 241.594 7.84475C241.134 8.04137 240.639 8.13981 240.139 8.13377C239.638 8.13883 239.14 8.04001 238.678 7.84352C238.217 7.64703 237.801 7.35712 237.456 6.99203C236.738 6.26065 236.336 5.27672 236.336 4.25185C236.336 3.22698 236.738 2.24304 237.456 1.51166C237.801 1.14658 238.217 0.856676 238.678 0.660186C239.14 0.463697 239.638 0.364867 240.139 0.369921C240.639 0.363881 241.134 0.462327 241.594 0.658946C242.053 0.855565 242.466 1.14602 242.806 1.51166ZM242.252 6.44628C242.814 5.85255 243.127 5.06603 243.127 4.24843C243.127 3.43083 242.814 2.6443 242.252 2.05057C241.975 1.76992 241.646 1.54702 241.283 1.39488C240.92 1.24274 240.53 1.1644 240.136 1.1644C239.742 1.1644 239.352 1.24274 238.989 1.39488C238.626 1.54702 238.296 1.76992 238.02 2.05057C237.736 2.33856 237.513 2.68091 237.363 3.05716C237.214 3.43341 237.143 3.83584 237.153 4.24043C237.143 4.64632 237.215 5.04996 237.364 5.42761C237.513 5.80526 237.736 6.14929 238.02 6.43943C238.295 6.7229 238.624 6.94829 238.987 7.10221C239.351 7.25614 239.741 7.33545 240.136 7.33545C240.531 7.33545 240.921 7.25614 241.285 7.10221C241.648 6.94829 241.977 6.7229 242.252 6.43943V6.44628ZM241 4.69484L242.094 6.21108H241.078L240.078 4.89808H239.53V6.21108H238.616V2.28577H240.196C240.573 2.27151 240.942 2.39949 241.229 2.64428C241.362 2.7637 241.468 2.91116 241.538 3.07614C241.609 3.24112 241.642 3.41958 241.635 3.59877C241.645 3.82295 241.59 4.0452 241.477 4.23937C241.365 4.43354 241.199 4.59155 241 4.69484ZM240.187 4.11484C240.328 4.1205 240.466 4.07048 240.571 3.97555C240.62 3.92917 240.658 3.87308 240.683 3.81093C240.709 3.74877 240.721 3.68194 240.719 3.61476C240.723 3.54403 240.711 3.47339 240.685 3.40737C240.66 3.34134 240.621 3.28139 240.571 3.23132C240.521 3.18125 240.461 3.14217 240.395 3.11658C240.329 3.09099 240.258 3.07945 240.187 3.0827H239.53V4.11484H240.187Z" fill="#1E3C70"/>
</svg>
