<svg width="192" height="60" viewBox="0 0 192 60" fill="none" xmlns="http://www.w3.org/2000/svg">
<path fill-rule="evenodd" clip-rule="evenodd" d="M0.919067 34.9071C0.919067 31.7164 2.06922 29.2191 4.13726 27.4849L4.52065 28.3694C2.75459 30.0517 1.8253 32.1325 1.8253 34.9071C1.8253 37.6823 2.75459 39.7633 4.52065 41.4457L4.13726 42.3298C2.06922 40.5954 0.919067 38.0981 0.919067 34.9071Z" fill="#005862"/>
<path fill-rule="evenodd" clip-rule="evenodd" d="M9.27478 35.4103V35.3753C9.27478 33.3119 8.21769 31.9243 7.10253 31.9243C5.94071 31.9243 4.98808 33.208 4.98808 35.3753V35.4103C4.98808 37.5258 5.97545 38.8789 7.10253 38.8789C8.21769 38.8789 9.27478 37.4742 9.27478 35.4103ZM4.07019 35.4274V35.3932C4.07019 32.4622 5.49926 30.7277 6.93974 30.7277C8.05516 30.7277 8.77526 31.6296 9.24004 32.6353V27.2249H10.1346V39.8846H9.24004V38.0805C8.75219 39.156 8.04349 40.0749 6.93974 40.0749C5.49926 40.0749 4.07019 38.376 4.07019 35.4274Z" fill="#005862"/>
<path fill-rule="evenodd" clip-rule="evenodd" d="M15.8692 34.9071C15.7764 33.2769 15.1491 31.8551 13.9523 31.8551C12.9068 31.8551 12.1167 33.1559 12.0006 34.9071H15.8692ZM11.0939 35.4274V35.3929C11.0939 32.809 12.3143 30.7278 13.9756 30.7278C15.7531 30.7278 16.7754 32.8438 16.7754 35.4621C16.7754 35.6358 16.7754 35.7397 16.7638 35.8958H12.0006C12.1284 37.8381 13.0463 38.9307 14.1151 38.9307C14.9399 38.9307 15.5208 38.4278 16.0087 37.6644L16.5662 38.4102C15.9623 39.4165 15.2302 40.0925 14.0917 40.0925C12.4421 40.0925 11.0939 38.2023 11.0939 35.4274Z" fill="#005862"/>
<path fill-rule="evenodd" clip-rule="evenodd" d="M19.701 34.4216L21.4901 30.9185H22.4892L20.2122 35.3061L22.5822 39.8846H21.5482L19.6894 36.1908L17.8191 39.8846H16.8201L19.1668 35.3234L16.9129 30.9185H17.9352L19.701 34.4216Z" fill="#005862"/>
<path fill-rule="evenodd" clip-rule="evenodd" d="M23.7907 37.5086V32.0977H22.9542V30.9188H23.7907V28.2136H24.6853V30.9188H26.5905V32.0977H24.6853V37.3355C24.6853 38.4276 25.0917 38.8263 25.696 38.8263C25.998 38.8263 26.2536 38.7399 26.5672 38.5144V39.6589C26.2536 39.9018 25.9166 40.0407 25.4868 40.0407C24.5225 40.0407 23.7907 39.3297 23.7907 37.5086Z" fill="#005862"/>
<path fill-rule="evenodd" clip-rule="evenodd" d="M27.3062 30.9188H28.2007V33.2598C28.6422 31.7685 29.5137 30.693 30.6521 30.7627V32.2017H30.5824C29.2695 32.2017 28.2007 33.6066 28.2007 36.3121V39.8846H27.3062V30.9188Z" fill="#005862"/>
<path fill-rule="evenodd" clip-rule="evenodd" d="M36.0689 35.4447V35.41C36.0689 33.4853 35.1046 31.9072 33.8384 31.9072C32.5373 31.9072 31.642 33.4853 31.642 35.3752V35.41C31.642 37.3352 32.5954 38.8957 33.8617 38.8957C35.1627 38.8957 36.0689 37.3352 36.0689 35.4447ZM30.7244 35.4447V35.41C30.7244 32.8779 32.0492 30.7282 33.8617 30.7282C35.6622 30.7282 36.9868 32.8437 36.9868 35.3752V35.41C36.9868 37.942 35.6508 40.0922 33.8384 40.0922C32.0376 40.0922 30.7244 37.9762 30.7244 35.4447Z" fill="#005862"/>
<path fill-rule="evenodd" clip-rule="evenodd" d="M37.9183 30.9188H38.8129V32.4275C39.2079 31.5427 39.7425 30.7278 40.7537 30.7278C41.7296 30.7278 42.3569 31.5077 42.6817 32.5143C43.112 31.5256 43.751 30.7278 44.7964 30.7278C46.1791 30.7278 47.027 32.1154 47.027 34.3348V39.8846H46.1325V34.6469C46.1325 32.913 45.5515 31.9417 44.5758 31.9417C43.6696 31.9417 42.9262 32.948 42.9262 34.7166V39.8846H42.0311V34.6124C42.0311 32.9301 41.439 31.9417 40.4859 31.9417C39.5333 31.9417 38.8129 33.1211 38.8129 34.7684V39.8846H37.9183V30.9188Z" fill="#005862"/>
<path fill-rule="evenodd" clip-rule="evenodd" d="M52.726 34.9071C52.6332 33.2769 52.0056 31.8551 50.8091 31.8551C49.7637 31.8551 48.9736 33.1559 48.8574 34.9071H52.726ZM47.9507 35.4274V35.3929C47.9507 32.809 49.1711 30.7278 50.8324 30.7278C52.6099 30.7278 53.6322 32.8438 53.6322 35.4621C53.6322 35.6358 53.6322 35.7397 53.6206 35.8958H48.8574C48.9852 37.8381 49.9029 38.9307 50.9719 38.9307C51.7967 38.9307 52.3776 38.4278 52.8655 37.6644L53.423 38.4102C52.8191 39.4165 52.087 40.0925 50.9485 40.0925C49.2989 40.0925 47.9507 38.2023 47.9507 35.4274Z" fill="#005862"/>
<path fill-rule="evenodd" clip-rule="evenodd" d="M54.6943 37.5086V32.0977H53.8578V30.9188H54.6943V28.2136H55.5888V30.9188H57.4941V32.0977H55.5888V37.3355C55.5888 38.4276 55.9953 38.8263 56.5995 38.8263C56.9015 38.8263 57.1571 38.7399 57.4708 38.5144V39.6589C57.1571 39.9018 56.8201 40.0407 56.3903 40.0407C55.4261 40.0407 54.6943 39.3297 54.6943 37.5086Z" fill="#005862"/>
<path fill-rule="evenodd" clip-rule="evenodd" d="M58.2097 27.2247H59.1043V32.4795C59.4993 31.5083 60.1266 30.728 61.1607 30.728C62.6128 30.728 63.4615 32.1848 63.4615 34.3179V39.8844H62.5664V34.6471C62.5664 32.9824 61.9622 31.9419 60.9051 31.9419C59.8711 31.9419 59.1043 33.0687 59.1043 34.7511V39.8844H58.2097V27.2247Z" fill="#005862"/>
<path fill-rule="evenodd" clip-rule="evenodd" d="M69.6713 35.4447V35.41C69.6713 33.4853 68.7071 31.9072 67.4408 31.9072C66.1395 31.9072 65.2444 33.4853 65.2444 35.3752V35.41C65.2444 37.3352 66.1976 38.8957 67.4641 38.8957C68.7651 38.8957 69.6713 37.3352 69.6713 35.4447ZM64.3268 35.4447V35.41C64.3268 32.8779 65.6517 30.7282 67.4641 30.7282C69.2646 30.7282 70.589 32.8437 70.589 35.3752V35.41C70.589 37.942 69.253 40.0922 67.4408 40.0922C65.64 40.0922 64.3268 37.9762 64.3268 35.4447Z" fill="#005862"/>
<path fill-rule="evenodd" clip-rule="evenodd" d="M71.5208 30.9188H72.4153V33.2598C72.8568 31.7685 73.7283 30.693 74.8667 30.7627V32.2017H74.797C73.4843 32.2017 72.4153 33.6066 72.4153 36.3121V39.8846H71.5208V30.9188Z" fill="#005862"/>
<path fill-rule="evenodd" clip-rule="evenodd" d="M80.6273 35.4274V35.3926C80.6273 33.2772 79.6516 31.9246 78.5131 31.9246C77.3977 31.9246 76.3406 33.3293 76.3406 35.3755V35.4103C76.3406 37.4915 77.3977 38.8784 78.5131 38.8784C79.6746 38.8784 80.6273 37.595 80.6273 35.4274ZM75.4802 30.9188H76.3753V32.7222C76.8634 31.6469 77.5719 30.728 78.6756 30.728C80.1161 30.728 81.5452 32.4269 81.5452 35.3755V35.4103C81.5452 38.3407 80.1278 40.0749 78.6756 40.0749C77.5605 40.0749 76.8401 39.1734 76.3753 38.1676V42.6591H75.4802V30.9188Z" fill="#005862"/>
<path fill-rule="evenodd" clip-rule="evenodd" d="M82.515 27.2247H83.4096V32.4795C83.8046 31.5083 84.4319 30.728 85.4665 30.728C86.9181 30.728 87.7668 32.1848 87.7668 34.3179V39.8844H86.8717V34.6471C86.8717 32.9824 86.2675 31.9419 85.2104 31.9419C84.1763 31.9419 83.4096 33.0687 83.4096 34.7511V39.8844H82.515V27.2247Z" fill="#005862"/>
<path fill-rule="evenodd" clip-rule="evenodd" d="M92.9706 36.5894V35.7221C92.5292 35.5316 91.9366 35.3408 91.2048 35.3408C90.0778 35.3408 89.4499 36.0694 89.4499 37.1963V37.2313C89.4499 38.3586 90.147 39.0175 90.9607 39.0175C92.0644 39.0175 92.9706 38.0118 92.9706 36.5894ZM88.5437 37.2831V37.2489C88.5437 35.3579 89.5899 34.3521 91.1118 34.3521C91.8786 34.3521 92.4245 34.5082 92.959 34.7339V34.4213C92.959 32.8087 92.2967 31.9761 91.1698 31.9761C90.4606 31.9761 89.903 32.254 89.3455 32.6356L89.0782 31.543C89.7405 31.0922 90.3914 30.7972 91.2629 30.7972C92.1108 30.7972 92.7614 31.1264 93.2029 31.7853C93.6096 32.3927 93.8185 33.2595 93.8185 34.4042V39.8844H92.959V38.5318C92.5409 39.3465 91.8438 40.0751 90.7865 40.0751C89.6713 40.0751 88.5437 39.1215 88.5437 37.2831Z" fill="#005862"/>
<path fill-rule="evenodd" clip-rule="evenodd" d="M95.0654 30.9188H95.9597V32.4793C96.3548 31.5077 96.9821 30.7278 98.0161 30.7278C99.4683 30.7278 100.317 32.1851 100.317 34.3177V39.8846H99.4219V34.6469C99.4219 32.9827 98.8179 31.9417 97.7605 31.9417C96.7265 31.9417 95.9597 33.069 95.9597 34.7513V39.8846H95.0654V30.9188Z" fill="#005862"/>
<path fill-rule="evenodd" clip-rule="evenodd" d="M104.883 27.7452H105.8V33.1385H110.494V27.7452H111.412V39.8841H110.494V34.4219H105.8V39.8841H104.883V27.7452Z" fill="#005862"/>
<path fill-rule="evenodd" clip-rule="evenodd" d="M116.622 34.3698H114.054V38.6531H116.784C118.016 38.6531 118.782 37.8384 118.782 36.4852V36.4508C118.782 35.1332 118.039 34.3698 116.622 34.3698ZM118.329 30.9535C118.329 29.7565 117.691 28.9765 116.529 28.9765H114.054V33.1553H116.459C117.563 33.1553 118.329 32.4101 118.329 30.988V30.9535ZM113.148 27.7454H116.61C117.539 27.7454 118.271 28.1439 118.736 28.8204C119.073 29.3404 119.259 29.9822 119.259 30.7627V30.797C119.259 32.3753 118.608 33.1903 117.969 33.6069C118.934 34.04 119.712 34.8727 119.712 36.5376V36.5721C119.712 38.6531 118.539 39.8846 116.761 39.8846H113.148V27.7454Z" fill="#005862"/>
<path fill-rule="evenodd" clip-rule="evenodd" d="M120.812 30.9188H121.707V33.2598C122.149 31.7685 123.02 30.693 124.158 30.7627V32.2017H124.089C122.776 32.2017 121.707 33.6066 121.707 36.3121V39.8846H120.812V30.9188Z" fill="#005862"/>
<path fill-rule="evenodd" clip-rule="evenodd" d="M132.001 36.5894V35.7221C131.559 35.5316 130.967 35.3408 130.235 35.3408C129.108 35.3408 128.48 36.0694 128.48 37.1963V37.2313C128.48 38.3586 129.177 39.0175 129.991 39.0175C131.095 39.0175 132.001 38.0118 132.001 36.5894ZM127.574 37.2831V37.2489C127.574 35.3579 128.62 34.3521 130.142 34.3521C130.909 34.3521 131.455 34.5082 131.989 34.7339V34.4213C131.989 32.8087 131.327 31.9761 130.2 31.9761C129.491 31.9761 128.933 32.254 128.376 32.6356L128.108 31.543C128.771 31.0922 129.422 30.7972 130.293 30.7972C131.141 30.7972 131.792 31.1264 132.233 31.7853C132.64 32.3927 132.849 33.2595 132.849 34.4042V39.8844H131.989V38.5318C131.571 39.3465 130.874 40.0751 129.817 40.0751C128.702 40.0751 127.574 39.1215 127.574 37.2831Z" fill="#005862"/>
<path fill-rule="evenodd" clip-rule="evenodd" d="M134.096 30.9188H134.99V32.4793C135.385 31.5077 136.013 30.7278 137.047 30.7278C138.499 30.7278 139.347 32.1851 139.347 34.3177V39.8846H138.452V34.6469C138.452 32.9827 137.848 31.9417 136.791 31.9417C135.757 31.9417 134.99 33.069 134.99 34.7513V39.8846H134.096V30.9188Z" fill="#005862"/>
<mask id="mask0_4_72981" style="mask-type:alpha" maskUnits="userSpaceOnUse" x="0" y="27" width="147" height="33">
<path d="M0.916992 27.2249H146.311V60H0.916992V27.2249Z" fill="white"/>
</mask>
<g mask="url(#mask0_4_72981)">
<path fill-rule="evenodd" clip-rule="evenodd" d="M145.451 35.4103V35.3753C145.451 33.3119 144.394 31.9243 143.279 31.9243C142.117 31.9243 141.164 33.2079 141.164 35.3753V35.4103C141.164 37.5257 142.152 38.8789 143.279 38.8789C144.394 38.8789 145.451 37.4742 145.451 35.4103ZM140.247 35.4274V35.3931C140.247 32.4622 141.676 30.7277 143.116 30.7277C144.232 30.7277 144.952 31.6296 145.416 32.6353V27.2249H146.311V39.8846H145.416V38.0805C144.929 39.156 144.22 40.0749 143.116 40.0749C141.676 40.0749 140.247 38.376 140.247 35.4274Z" fill="#005862"/>
<path fill-rule="evenodd" clip-rule="evenodd" d="M6.10608 52.7512V52.7162C6.10608 50.6528 5.04898 49.2652 3.93357 49.2652C2.77201 49.2652 1.81938 50.5489 1.81938 52.7162V52.7512C1.81938 54.8667 2.80674 56.2198 3.93357 56.2198C5.04898 56.2198 6.10608 54.8151 6.10608 52.7512ZM6.07134 55.4214C5.58323 56.4969 4.87453 57.4158 3.77104 57.4158C2.3303 57.4158 0.901489 55.7169 0.901489 52.7683V52.7341C0.901489 49.8031 2.3303 48.0687 3.77104 48.0687C4.8862 48.0687 5.60656 48.9705 6.07134 49.9763V48.2597H6.96591V60H6.07134V55.4214Z" fill="#005862"/>
</g>
<path fill-rule="evenodd" clip-rule="evenodd" d="M8.7074 53.8262V48.2597H9.60196V53.497C9.60196 55.1617 10.2062 56.2022 11.2633 56.2022C12.2856 56.2022 13.0641 55.0753 13.0641 53.393V48.2597H13.9475V57.2256H13.0641V55.6646C12.6574 56.6358 12.0417 57.4161 11.0082 57.4161C9.55556 57.4161 8.7074 55.9593 8.7074 53.8262Z" fill="#005862"/>
<path fill-rule="evenodd" clip-rule="evenodd" d="M15.7837 57.2253H16.6783V48.2595H15.7837V57.2253ZM15.7264 46.3001H16.7488V44.8256H15.7264V46.3001Z" fill="#005862"/>
<path fill-rule="evenodd" clip-rule="evenodd" d="M18.5037 48.2597H19.3982V49.8202C19.7933 48.8489 20.4206 48.0686 21.4551 48.0686C22.9067 48.0686 23.7554 49.526 23.7554 51.6586V57.2255H22.8603V51.9878C22.8603 50.3231 22.2561 49.2826 21.199 49.2826C20.165 49.2826 19.3982 50.4099 19.3982 52.0922V57.2255H18.5037V48.2597Z" fill="#005862"/>
<path fill-rule="evenodd" clip-rule="evenodd" d="M25.5122 57.2253H26.4067V48.2595H25.5122V57.2253ZM25.4539 46.3001H26.4762V44.8256H25.4539V46.3001Z" fill="#005862"/>
<path fill-rule="evenodd" clip-rule="evenodd" d="M33.0812 52.7512V52.7162C33.0812 50.6528 32.0241 49.2652 30.9087 49.2652C29.7471 49.2652 28.7945 50.5489 28.7945 52.7162V52.7512C28.7945 54.8667 29.7818 56.2198 30.9087 56.2198C32.0241 56.2198 33.0812 54.8151 33.0812 52.7512ZM27.8766 52.7683V52.7341C27.8766 49.8031 29.3057 48.0687 30.7461 48.0687C31.8613 48.0687 32.5817 48.9705 33.0464 49.9763V44.5659H33.941V57.2256H33.0464V55.4214C32.5583 56.4969 31.8499 57.4158 30.7461 57.4158C29.3057 57.4158 27.8766 55.7169 27.8766 52.7683Z" fill="#005862"/>
<path fill-rule="evenodd" clip-rule="evenodd" d="M35.779 57.2253H36.6736V48.2595H35.779V57.2253ZM35.7205 46.3001H36.7428V44.8256H35.7205V46.3001Z" fill="#005862"/>
<path fill-rule="evenodd" clip-rule="evenodd" d="M38.4984 48.2597H39.393V49.8202C39.788 48.8489 40.4153 48.0686 41.4499 48.0686C42.9015 48.0686 43.7502 49.526 43.7502 51.6586V57.2255H42.8551V51.9878C42.8551 50.3231 42.2509 49.2826 41.1938 49.2826C40.1597 49.2826 39.393 50.4099 39.393 52.0922V57.2255H38.4984V48.2597Z" fill="#005862"/>
<path fill-rule="evenodd" clip-rule="evenodd" d="M49.9018 52.248C49.809 50.6178 49.1817 49.196 47.9851 49.196C46.9394 49.196 46.1493 50.4967 46.0332 52.248H49.9018ZM45.1265 52.768V52.7338C45.1265 50.1499 46.3469 48.0686 48.0082 48.0686C49.7857 48.0686 50.808 50.1841 50.808 52.803C50.808 52.9767 50.808 53.0806 50.7964 53.2367H46.0332C46.161 55.179 47.0789 56.2716 48.1477 56.2716C48.9725 56.2716 49.5534 55.7687 50.0412 55.0053L50.5988 55.7511C49.9948 56.7574 49.2628 57.4334 48.1243 57.4334C46.4747 57.4334 45.1265 55.5432 45.1265 52.768Z" fill="#005862"/>
<path fill-rule="evenodd" clip-rule="evenodd" d="M55.2346 56.0809L55.6877 55.1269C56.3384 55.8551 57.0585 56.2717 57.7672 56.2717C58.4875 56.2717 59.0104 55.7169 59.0104 54.8493V54.8146C59.0104 53.9128 58.3017 53.5665 57.5116 53.2367C56.5706 52.8378 55.5249 52.3523 55.5249 50.7047V50.6699C55.5249 49.1263 56.3848 48.1034 57.5697 48.1034C58.3017 48.1034 59.1149 48.4853 59.731 49.0921L59.3246 50.0979C58.7662 49.5602 58.1272 49.231 57.5466 49.231C56.8379 49.231 56.3848 49.7858 56.3848 50.5315V50.5657C56.3848 51.4155 57.1282 51.7452 57.93 52.1094C58.8593 52.5254 59.8588 53.0631 59.8588 54.6762V54.7104C59.8588 56.4106 58.9179 57.3985 57.7208 57.3985C56.861 57.3985 55.9083 56.8956 55.2346 56.0809Z" fill="#005862"/>
<path fill-rule="evenodd" clip-rule="evenodd" d="M61.1506 53.8262V48.2597H62.0452V53.497C62.0452 55.1617 62.6492 56.2022 63.7065 56.2022C64.7289 56.2022 65.5071 55.0753 65.5071 53.393V48.2597H66.3907V57.2256H65.5071V55.6646C65.1006 56.6358 64.485 57.4161 63.4515 57.4161C61.9988 57.4161 61.1506 55.9593 61.1506 53.8262Z" fill="#005862"/>
<path fill-rule="evenodd" clip-rule="evenodd" d="M68.2239 57.2253H69.1184V44.5656H68.2239V57.2253Z" fill="#005862"/>
<path fill-rule="evenodd" clip-rule="evenodd" d="M71.2272 49.4389H70.4023V48.2766H71.2272V47.4966C71.2272 46.4734 71.413 45.6929 71.7498 45.1901C72.052 44.7393 72.4935 44.4964 73.0394 44.4964C73.4578 44.4964 73.7364 44.5656 74.027 44.7216V45.884C73.7017 45.745 73.4578 45.6582 73.1555 45.6582C72.4585 45.6582 72.1101 46.2827 72.1101 47.5663V48.2942H74.0153V49.4389H72.1217V57.2253H71.2272V49.4389Z" fill="#005862"/>
<path fill-rule="evenodd" clip-rule="evenodd" d="M78.9447 53.9304V53.063C78.5033 52.8725 77.9107 52.6817 77.1789 52.6817C76.0521 52.6817 75.4248 53.4104 75.4248 54.5372V54.5722C75.4248 55.6996 76.1219 56.3585 76.935 56.3585C78.0388 56.3585 78.9447 55.3527 78.9447 53.9304ZM74.5181 54.6241V54.5893C74.5181 52.6988 75.564 51.6931 77.0859 51.6931C77.8527 51.6931 78.3988 51.8491 78.9331 52.0749V51.7623C78.9331 50.1497 78.271 49.3171 77.1442 49.3171C76.4355 49.3171 75.8779 49.595 75.3201 49.9765L75.0528 48.8839C75.7151 48.4331 76.3658 48.1382 77.237 48.1382C78.0852 48.1382 78.7358 48.4674 79.1773 49.1263C79.5837 49.7336 79.7929 50.6005 79.7929 51.7452V57.2253H78.9331V55.8727C78.515 56.6874 77.8179 57.4161 76.7608 57.4161C75.6454 57.4161 74.5181 56.4624 74.5181 54.6241Z" fill="#005862"/>
<path fill-rule="evenodd" clip-rule="evenodd" d="M81.6822 54.8496V49.4387H80.8457V48.2597H81.6822V45.5545H82.5768V48.2597H84.482V49.4387H82.5768V54.6764C82.5768 55.7682 82.9835 56.1672 83.5875 56.1672C83.8897 56.1672 84.1453 56.0809 84.4589 55.8553V56.9998C84.1453 57.2427 83.8083 57.3816 83.3785 57.3816C82.4142 57.3816 81.6822 56.6706 81.6822 54.8496Z" fill="#005862"/>
<path fill-rule="evenodd" clip-rule="evenodd" d="M89.9451 52.248C89.8521 50.6178 89.2248 49.196 88.0282 49.196C86.9828 49.196 86.1927 50.4967 86.0766 52.248H89.9451ZM85.1698 52.768V52.7338C85.1698 50.1499 86.3902 48.0686 88.0515 48.0686C89.829 48.0686 90.8513 50.1841 90.8513 52.803C90.8513 52.9767 90.8514 53.0806 90.8397 53.2367H86.0766C86.2043 55.179 87.122 56.2716 88.191 56.2716C89.0158 56.2716 89.5965 55.7687 90.0846 55.0053L90.6422 55.7511C90.0382 56.7574 89.3061 57.4334 88.1677 57.4334C86.518 57.4334 85.1698 55.5432 85.1698 52.768Z" fill="#005862"/>
<path fill-rule="evenodd" clip-rule="evenodd" d="M90.9176 58.7863C92.6834 57.104 93.613 55.0227 93.613 52.2483C93.613 49.4734 92.6834 47.3924 90.9176 45.71L91.301 44.8259C93.3688 46.5598 94.5189 49.0573 94.5189 52.2483C94.5189 55.4393 93.3688 57.9366 91.301 59.6708L90.9176 58.7863Z" fill="#005862"/>
<path fill-rule="evenodd" clip-rule="evenodd" d="M99.3754 52.786V52.751C99.3754 50.2189 100.7 48.0692 102.455 48.0692C103.593 48.0692 104.301 48.7795 104.859 49.6642L104.267 50.6007C103.791 49.855 103.256 49.2481 102.442 49.2481C101.223 49.2481 100.293 50.7915 100.293 52.7162V52.751C100.293 54.6933 101.246 56.2369 102.501 56.2369C103.268 56.2369 103.86 55.6643 104.336 54.9014L104.906 55.6991C104.301 56.7053 103.581 57.4335 102.455 57.4335C100.7 57.4335 99.3754 55.3001 99.3754 52.786Z" fill="#005862"/>
<path fill-rule="evenodd" clip-rule="evenodd" d="M110.248 53.9304V53.063C109.807 52.8725 109.214 52.6817 108.482 52.6817C107.355 52.6817 106.727 53.4104 106.727 54.5372V54.5722C106.727 55.6996 107.424 56.3585 108.238 56.3585C109.342 56.3585 110.248 55.3527 110.248 53.9304ZM105.821 54.6241V54.5893C105.821 52.6988 106.867 51.6931 108.389 51.6931C109.156 51.6931 109.702 51.8491 110.236 52.0749V51.7623C110.236 50.1497 109.574 49.3171 108.447 49.3171C107.738 49.3171 107.18 49.595 106.623 49.9765L106.356 48.8839C107.018 48.4331 107.669 48.1382 108.54 48.1382C109.388 48.1382 110.039 48.4674 110.48 49.1263C110.887 49.7336 111.096 50.6005 111.096 51.7452V57.2253H110.236V55.8727C109.818 56.6874 109.121 57.4161 108.064 57.4161C106.949 57.4161 105.821 56.4624 105.821 54.6241Z" fill="#005862"/>
<path fill-rule="evenodd" clip-rule="evenodd" d="M117.978 52.7686V52.7336C117.978 50.6181 117.002 49.2655 115.863 49.2655C114.748 49.2655 113.691 50.6702 113.691 52.7165V52.7512C113.691 54.8325 114.748 56.2193 115.863 56.2193C117.025 56.2193 117.978 54.9359 117.978 52.7686ZM112.83 48.2597H113.725V50.0634C114.214 48.9879 114.922 48.0689 116.026 48.0689C117.466 48.0689 118.895 49.7679 118.895 52.7165V52.7512C118.895 55.6817 117.478 57.4161 116.026 57.4161C114.911 57.4161 114.19 56.5143 113.725 55.5085V60H112.83V48.2597Z" fill="#005862"/>
<path fill-rule="evenodd" clip-rule="evenodd" d="M119.777 56.0809L120.23 55.1269C120.881 55.8551 121.601 56.2717 122.31 56.2717C123.03 56.2717 123.553 55.7169 123.553 54.8493V54.8146C123.553 53.9128 122.844 53.5665 122.054 53.2367C121.113 52.8378 120.068 52.3523 120.068 50.7047V50.6699C120.068 49.1263 120.927 48.1034 122.113 48.1034C122.844 48.1034 123.658 48.4853 124.274 49.0921L123.867 50.0979C123.309 49.5602 122.67 49.231 122.089 49.231C121.38 49.231 120.927 49.7858 120.927 50.5315V50.5657C120.927 51.4155 121.671 51.7452 122.473 52.1094C123.402 52.5254 124.402 53.0631 124.402 54.6762V54.7104C124.402 56.4106 123.461 57.3985 122.263 57.3985C121.404 57.3985 120.451 56.8956 119.777 56.0809Z" fill="#005862"/>
<path fill-rule="evenodd" clip-rule="evenodd" d="M125.693 53.8262V48.2597H126.588V53.497C126.588 55.1617 127.192 56.2022 128.249 56.2022C129.271 56.2022 130.05 55.0753 130.05 53.393V48.2597H130.933V57.2256H130.05V55.6646C129.643 56.6358 129.027 57.4161 127.994 57.4161C126.541 57.4161 125.693 55.9593 125.693 53.8262Z" fill="#005862"/>
<path fill-rule="evenodd" clip-rule="evenodd" d="M132.766 57.2253H133.661V44.5656H132.766V57.2253Z" fill="#005862"/>
<path fill-rule="evenodd" clip-rule="evenodd" d="M139.917 52.248C139.824 50.6178 139.197 49.196 138 49.196C136.955 49.196 136.165 50.4967 136.049 52.248H139.917ZM135.142 52.768V52.7338C135.142 50.1499 136.362 48.0686 138.024 48.0686C139.801 48.0686 140.823 50.1841 140.823 52.803C140.823 52.9767 140.823 53.0806 140.812 53.2367H136.049C136.176 55.179 137.094 56.2716 138.163 56.2716C138.988 56.2716 139.569 55.7687 140.057 55.0053L140.614 55.7511C140.01 56.7574 139.278 57.4334 138.14 57.4334C136.49 57.4334 135.142 55.5432 135.142 52.768Z" fill="#005862"/>
<path fill-rule="evenodd" clip-rule="evenodd" d="M141.672 56.0809L142.125 55.1269C142.775 55.8551 143.496 56.2717 144.204 56.2717C144.925 56.2717 145.448 55.7169 145.448 54.8493V54.8146C145.448 53.9128 144.739 53.5665 143.949 53.2367C143.008 52.8378 141.962 52.3523 141.962 50.7047V50.6699C141.962 49.1263 142.822 48.1034 144.007 48.1034C144.739 48.1034 145.552 48.4853 146.168 49.0921L145.762 50.0979C145.203 49.5602 144.564 49.231 143.984 49.231C143.275 49.231 142.822 49.7858 142.822 50.5315V50.5657C142.822 51.4155 143.565 51.7452 144.367 52.1094C145.297 52.5254 146.296 53.0631 146.296 54.6762V54.7104C146.296 56.4106 145.355 57.3985 144.158 57.3985C143.298 57.3985 142.346 56.8956 141.672 56.0809Z" fill="#005862"/>
<path fill-rule="evenodd" clip-rule="evenodd" d="M159.941 37.5672L162.978 33.9952C164.258 32.4642 164.724 31.6036 164.724 30.4872C164.724 29.1794 163.947 28.3502 163.038 28.3502C162.081 28.3502 161.459 29.02 160.79 30.2637L160.096 29.5942C160.85 28.0951 161.639 27.2182 163.109 27.2182C164.616 27.2182 165.705 28.5576 165.705 30.3755V30.4076C165.705 32.0339 165.059 33.0387 163.588 34.7446L161.352 37.3917H165.789V38.5398H159.941V37.5672Z" fill="#005862"/>
<path fill-rule="evenodd" clip-rule="evenodd" d="M172.737 32.9904V32.9586C172.737 30.5188 171.732 28.3341 170.177 28.3341C168.611 28.3341 167.631 30.4706 167.631 32.9269V32.9586C167.631 35.3981 168.635 37.5833 170.201 37.5833C171.768 37.5833 172.737 35.4302 172.737 32.9904ZM166.65 32.9904V32.9586C166.65 29.8334 168.049 27.1863 170.201 27.1863C172.354 27.1863 173.718 29.8013 173.718 32.9269V32.9586C173.718 36.0842 172.33 38.7311 170.177 38.7311C168.013 38.7311 166.65 36.1161 166.65 32.9904Z" fill="#005862"/>
<path fill-rule="evenodd" clip-rule="evenodd" d="M178.138 32.1511H178.852V33.2258C179.167 32.5959 179.593 32.015 180.4 32.015C181.178 32.015 181.678 32.5711 181.938 33.2878C182.281 32.5838 182.79 32.015 183.624 32.015C184.727 32.015 185.403 33.0034 185.403 34.5857V38.5401H184.69V34.8081C184.69 33.5722 184.227 32.8803 183.448 32.8803C182.725 32.8803 182.132 33.597 182.132 34.8574V38.5401H181.419V34.7832C181.419 33.5843 180.946 32.8803 180.186 32.8803C179.427 32.8803 178.852 33.7204 178.852 34.8944V38.5401H178.138V32.1511Z" fill="#005862"/>
<path fill-rule="evenodd" clip-rule="evenodd" d="M190.502 35.0427V35.0178C190.502 33.7077 189.65 32.8554 188.742 32.8554C187.834 32.8554 187.083 33.6955 187.083 35.0056V35.0305C187.083 36.3157 187.852 37.2054 188.742 37.2054C189.65 37.2054 190.502 36.3279 190.502 35.0427ZM186.573 39.6521L186.898 38.9108C187.444 39.4419 188.056 39.7263 188.742 39.7263C189.798 39.7263 190.484 38.9478 190.484 37.4524V36.6986C190.067 37.4397 189.483 38.0455 188.603 38.0455C187.454 38.0455 186.351 36.8966 186.351 35.0549V35.0305C186.351 33.1647 187.463 32.015 188.603 32.015C189.502 32.015 190.085 32.6081 190.475 33.3002V32.1511H191.188V37.4278C191.188 38.4162 190.966 39.1702 190.577 39.6892C190.15 40.2574 189.511 40.5418 188.751 40.5418C187.954 40.5418 187.213 40.2452 186.573 39.6521Z" fill="#005862"/>
<path fill-rule="evenodd" clip-rule="evenodd" d="M161.794 47.2918L160.216 47.9453L159.989 46.925L162.033 45.9841H162.727V57.2264H161.794V47.2918Z" fill="#005862"/>
<path fill-rule="evenodd" clip-rule="evenodd" d="M171.29 51.6768V51.6449C171.29 49.2051 170.285 47.0204 168.731 47.0204C167.164 47.0204 166.184 49.1577 166.184 51.6132V51.6449C166.184 54.0844 167.187 56.2696 168.754 56.2696C170.321 56.2696 171.29 54.1165 171.29 51.6768ZM165.203 51.6768V51.6449C165.203 48.5197 166.602 45.8726 168.754 45.8726C170.907 45.8726 172.27 48.4876 172.27 51.6132V51.6449C172.27 54.7705 170.883 57.4177 168.731 57.4177C166.566 57.4177 165.203 54.8024 165.203 51.6768Z" fill="#005862"/>
<path fill-rule="evenodd" clip-rule="evenodd" d="M178.162 50.8374H178.876V51.9124C179.19 51.2822 179.617 50.7016 180.424 50.7016C181.202 50.7016 181.702 51.2573 181.961 51.9743C182.304 51.27 182.814 50.7016 183.648 50.7016C184.751 50.7016 185.427 51.69 185.427 53.2717V57.2261H184.714V53.4941C184.714 52.2587 184.251 51.5666 183.472 51.5666C182.749 51.5666 182.156 52.2831 182.156 53.5439V57.2261H181.443V53.4698C181.443 52.2709 180.97 51.5666 180.21 51.5666C179.45 51.5666 178.876 52.407 178.876 53.581V57.2261H178.162V50.8374Z" fill="#005862"/>
<path fill-rule="evenodd" clip-rule="evenodd" d="M190.526 53.729V53.7041C190.526 52.3948 189.674 51.5417 188.765 51.5417C187.858 51.5417 187.107 52.3821 187.107 53.6919V53.7168C187.107 55.002 187.876 55.8916 188.765 55.8916C189.674 55.8916 190.526 55.0142 190.526 53.729ZM186.597 58.3384L186.922 57.597C187.468 58.1282 188.08 58.4125 188.765 58.4125C189.822 58.4125 190.508 57.6341 190.508 56.1389V55.3849C190.09 56.1262 189.507 56.732 188.626 56.732C187.478 56.732 186.374 55.5829 186.374 53.7411V53.7168C186.374 51.8509 187.486 50.7013 188.626 50.7013C189.525 50.7013 190.109 51.2949 190.499 51.987V50.8374H191.212V56.114C191.212 57.1024 190.99 57.8565 190.6 58.3755C190.174 58.9437 189.535 59.228 188.775 59.228C187.978 59.228 187.236 58.9315 186.597 58.3384Z" fill="#005862"/>
<mask id="mask1_4_72981" style="mask-type:alpha" maskUnits="userSpaceOnUse" x="0" y="0" width="192" height="44">
<path d="M0.916992 0.168716H191.214V43.6153H0.916992V0.168716Z" fill="white"/>
</mask>
<g mask="url(#mask1_4_72981)">
<path fill-rule="evenodd" clip-rule="evenodd" d="M159.969 43.6153H191.214V42.8376H159.969V43.6153Z" fill="#005862"/>
<path fill-rule="evenodd" clip-rule="evenodd" d="M0.904175 0.168701H6.6189L15.712 9.90417V0.168701H21.7741V18.5867H16.4378L6.96626 8.48287V18.5867H0.904175V0.168701Z" fill="#005862"/>
</g>
<path fill-rule="evenodd" clip-rule="evenodd" d="M27.2384 10.5089V0.168716H33.4265V10.4037C33.4265 13.0615 35.037 14.3239 37.4993 14.3239C39.9938 14.3239 41.604 13.1133 41.604 10.5354V0.168716H47.7924V10.3773C47.7924 16.2973 43.7195 18.9284 37.4363 18.9284C31.185 18.9284 27.2384 16.2711 27.2384 10.5089Z" fill="#005862"/>
<path fill-rule="evenodd" clip-rule="evenodd" d="M53.1969 0.168716H70.9723V4.48367H59.259V7.29904H69.8675V11.3247H59.259V14.2451H71.1304V18.5867H53.1969V0.168716Z" fill="#005862"/>
<path fill-rule="evenodd" clip-rule="evenodd" d="M82.3101 4.66797V14.0608H84.8046C88.4985 14.0608 90.9297 12.3769 90.9297 9.40389V9.35127C90.9297 6.40448 88.4985 4.66797 84.8046 4.66797H82.3101ZM76.1851 0.168716H84.7416C92.6027 0.168716 97.181 3.95745 97.181 9.27221V9.32483C97.181 14.6396 92.5397 18.5867 84.6148 18.5867H76.1851V0.168716Z" fill="#005862"/>
<path fill-rule="evenodd" clip-rule="evenodd" d="M101.752 0.168716H119.527V4.48367H107.814V7.29904H118.422V11.3247H107.814V14.2451H119.685V18.5867H101.752V0.168716Z" fill="#005862"/>
<path fill-rule="evenodd" clip-rule="evenodd" d="M144.905 0.168716L137.643 9.14053L145.221 18.5867H138.181L133.949 13.0081L129.687 18.5867H122.805L130.382 9.21985L123.12 0.168716H130.161L134.044 5.35231L138.022 0.168716H144.905Z" fill="#005862"/>
<path fill-rule="evenodd" clip-rule="evenodd" d="M154.585 4.64158H147.986V0.169022H167.341V4.64158H160.71V18.5865H154.585V4.64158Z" fill="#005862"/>
<path fill-rule="evenodd" clip-rule="evenodd" d="M181.273 11.2983L178.811 6.08875L176.316 11.2983H181.273ZM175.906 0.0372925H181.81L191.218 18.5864H184.652L183.073 15.271H174.517L172.938 18.5864H166.528L175.906 0.0372925Z" fill="#005862"/>
<path fill-rule="evenodd" clip-rule="evenodd" d="M188.721 2.55641C189.065 2.55641 189.259 2.37703 189.259 2.12274C189.259 1.8389 189.065 1.68959 188.721 1.68959H188.078V2.55641H188.721ZM187.57 1.24088H188.766C189.349 1.24088 189.783 1.52472 189.783 2.0779C189.783 2.51157 189.528 2.78038 189.169 2.8851L189.872 3.88698H189.259L188.631 2.97505H188.078V3.88698H187.57V1.24088ZM190.888 2.61603V2.60126C190.888 1.33057 189.902 0.284363 188.586 0.284363C187.286 0.284363 186.284 1.34534 186.284 2.61603V2.63107C186.284 3.90176 187.271 4.94848 188.586 4.94848C189.887 4.94848 190.888 3.88698 190.888 2.61603ZM185.985 2.63107V2.61603C185.985 1.19603 187.136 0 188.586 0C190.051 0 191.187 1.181 191.187 2.60126V2.61603C191.187 4.03629 190.036 5.23232 188.586 5.23232C187.121 5.23232 185.985 4.05107 185.985 2.63107Z" fill="#005862"/>
</svg>
