<svg width="131" height="60" viewBox="0 0 131 60" fill="none" xmlns="http://www.w3.org/2000/svg">
<g clip-path="url(#clip0_53_150158)">
<path d="M65.3709 13.9234C65.3709 17.525 66.6889 19.2997 69.377 19.2997C71.9086 19.2997 73.344 17.6555 73.344 14.4063V2.72727H77.6893V14.4063C77.6893 20.4741 74.3488 23.7625 69.1421 23.7625C63.9355 23.7625 60.5688 20.5133 60.5688 14.4454V2.72727H65.3709V13.9234Z" fill="#4D7737"/>
<path d="M51.3431 13.4145H44.2052L37.4849 21.9226V23.11H42.809L47.4936 16.194L52.4523 23.11H58.4288V21.9226L51.3431 13.4145Z" fill="#4D7737"/>
<path d="M0.999512 2.72727H6.07563C8.59412 2.72727 10.5384 2.89691 12.2479 4.16268C13.7224 5.25881 14.5706 6.9552 14.5706 8.70378C14.5706 11.2614 13.2918 13.2449 10.8908 14.341L16.9195 21.9095V23.0839H11.5302L6.25832 15.0848H5.59281V23.0839H0.999512V2.72727ZM5.57976 6.43323V12.0705H6.58455C8.98559 12.0705 10.2383 11.0396 10.2383 9.1866C10.2383 7.13788 8.95949 6.42018 6.36271 6.42018H5.57976V6.43323Z" fill="#4D7737"/>
<path d="M82.0608 2.72727H86.9281V18.7255H94.8751V23.11H82.0608V2.72727Z" fill="#4D7737"/>
<path d="M101.073 6.99435H94.6011V2.72727H112.374V6.99435H105.928V23.11H101.073V6.99435Z" fill="#4D7737"/>
<path d="M121.456 2.72727H116.589V23.097H121.456V2.72727Z" fill="#4D7737"/>
<path d="M20.508 1.55285H34.0139V5.75468H25.2318V9.43454H31.9391V13.6103H25.2318V17.6425H34.1313V21.9226H20.508V1.55285Z" fill="#154633"/>
<path d="M20.508 1.55285H34.0139V5.75468H25.2318V9.43454H31.9391V13.6103H25.2318V17.6425H34.1313V21.9226H20.508V1.55285Z" stroke="#154633" stroke-width="0.04" stroke-miterlimit="10"/>
<path d="M65.3709 12.749C65.3709 16.3506 66.6889 18.1253 69.377 18.1253C71.9086 18.1253 73.344 16.4811 73.344 13.2318V1.55285H77.6893V13.2318C77.6893 19.2997 74.3488 22.5881 69.1421 22.5881C63.9355 22.5881 60.5688 19.3388 60.5688 13.271V1.55285H65.3709V12.749Z" fill="#154633"/>
<path d="M65.3709 12.749C65.3709 16.3506 66.6889 18.1253 69.377 18.1253C71.9086 18.1253 73.344 16.4811 73.344 13.2318V1.55285H77.6893V13.2318C77.6893 19.2997 74.3488 22.5881 69.1421 22.5881C63.9355 22.5881 60.5688 19.3388 60.5688 13.271V1.55285H65.3709V12.749Z" stroke="#154633" stroke-width="0.04" stroke-miterlimit="10"/>
<path d="M0.999512 1.55285H6.07563C8.59412 1.55285 10.5384 1.72249 12.2479 2.98826C13.7224 4.08438 14.5706 5.78077 14.5706 7.52936C14.5706 10.087 13.2918 12.0705 10.8908 13.1666L16.9195 21.9095H11.5302L6.25832 13.9104H5.59281V21.9095H0.999512V1.55285ZM5.57976 5.25881V10.896H6.58455C8.98559 10.896 10.2383 9.86516 10.2383 8.01218C10.2383 5.96346 8.95949 5.24576 6.36271 5.24576H5.57976V5.25881Z" fill="#154633"/>
<path d="M0.999512 1.55285H6.07563C8.59412 1.55285 10.5384 1.72249 12.2479 2.98826C13.7224 4.08438 14.5706 5.78077 14.5706 7.52936C14.5706 10.087 13.2918 12.0705 10.8908 13.1666L16.9195 21.9095H11.5302L6.25832 13.9104H5.59281V21.9095H0.999512V1.55285ZM5.57976 5.25881V10.896H6.58455C8.98559 10.896 10.2383 9.86516 10.2383 8.01218C10.2383 5.96346 8.95949 5.24576 6.36271 5.24576H5.57976V5.25881Z" stroke="#154633" stroke-width="0.04" stroke-miterlimit="10"/>
<path d="M82.0608 1.55285H86.9281V17.5511H94.8751V21.9226H82.0608V1.55285Z" fill="#154633"/>
<path d="M82.0608 1.55285H86.9281V17.5511H94.8751V21.9226H82.0608V1.55285Z" stroke="#154633" stroke-width="0.04" stroke-miterlimit="10"/>
<path d="M101.073 5.81992H94.6011V1.55285H112.374V5.81992H105.928V21.9226H101.073V5.81992Z" fill="#154633"/>
<path d="M101.073 5.81992H94.6011V1.55285H112.374V5.81992H105.928V21.9226H101.073V5.81992Z" stroke="#154633" stroke-width="0.04" stroke-miterlimit="10"/>
<path d="M121.456 1.55285H116.589V21.9226H121.456V1.55285Z" fill="#154633"/>
<path d="M121.456 1.55285H116.589V21.9226H121.456V1.55285Z" stroke="#154633" stroke-width="0.04" stroke-miterlimit="10"/>
<path d="M51.3431 12.2401H44.2052L37.4849 21.9226H42.809L47.4936 15.0196L52.4523 21.9226H58.4288L51.3431 12.2401Z" fill="#154633"/>
<path d="M51.3431 12.2401H44.2052L37.4849 21.9226H42.809L47.4936 15.0196L52.4523 21.9226H58.4288L51.3431 12.2401Z" stroke="#154633" stroke-width="0.04" stroke-miterlimit="10"/>
<path d="M51.3692 9.9565L57.2283 1.55285H51.9303L47.9895 7.37277L43.7876 1.55285H37.8372L43.9964 9.9565H51.3692Z" fill="#154633"/>
<path d="M51.3692 9.9565L57.2283 1.55285H51.9303L47.9895 7.37277L43.7876 1.55285H37.8372L43.9964 9.9565H51.3692Z" stroke="#154633" stroke-width="0.04" stroke-miterlimit="10"/>
<path d="M20.508 26.1114H21.7477V31.5528H21.7868C22.0608 30.3915 22.9612 29.6477 24.3444 29.6477C26.7585 29.6477 27.8547 31.5659 27.8547 35.3762C27.8547 39.1866 26.7585 41.1309 24.3444 41.1309C23.0265 41.1309 21.9825 40.3219 21.6563 39.0561H21.6172V40.883H20.4949V26.1114H20.508ZM24.1487 40.1C25.3884 40.1 26.5497 39.4606 26.5497 35.3893C26.5497 31.318 25.3884 30.6916 24.1487 30.6916C22.909 30.6916 21.7477 31.331 21.7477 35.3893C21.7477 39.4476 22.8829 40.1 24.1487 40.1Z" fill="#424142"/>
<path d="M20.508 26.1114H21.7477V31.5528H21.7868C22.0608 30.3915 22.9612 29.6477 24.3444 29.6477C26.7585 29.6477 27.8547 31.5659 27.8547 35.3762C27.8547 39.1866 26.7585 41.1309 24.3444 41.1309C23.0265 41.1309 21.9825 40.3219 21.6563 39.0561H21.6172V40.883H20.4949V26.1114H20.508ZM24.1487 40.1C25.3884 40.1 26.5497 39.4606 26.5497 35.3893C26.5497 31.318 25.3884 30.6916 24.1487 30.6916C22.909 30.6916 21.7477 31.331 21.7477 35.3893C21.7477 39.4476 22.8829 40.1 24.1487 40.1Z" stroke="#424142" stroke-width="0.04" stroke-miterlimit="10"/>
<path d="M30.2948 29.9087H31.5345V31.6311H31.5737C32.0434 30.3915 33.0352 29.6607 34.3401 29.6607C34.4836 29.6607 34.6272 29.6868 34.7707 29.726V30.9656C34.5619 30.9265 34.3531 30.9004 34.1704 30.9004C32.7872 30.9004 31.5215 31.8921 31.5215 34.0191V40.883H30.2818V29.8956L30.2948 29.9087Z" fill="#424142"/>
<path d="M30.2948 29.9087H31.5345V31.6311H31.5737C32.0434 30.3915 33.0352 29.6607 34.3401 29.6607C34.4836 29.6607 34.6272 29.6868 34.7707 29.726V30.9656C34.5619 30.9265 34.3531 30.9004 34.1704 30.9004C32.7872 30.9004 31.5215 31.8921 31.5215 34.0191V40.883H30.2818V29.8956L30.2948 29.9087Z" stroke="#424142" stroke-width="0.04" stroke-miterlimit="10"/>
<path d="M43.2787 37.2423C43.0961 39.5781 41.8042 41.1309 39.7424 41.1309C37.4197 41.1309 36.0626 39.5128 36.0626 35.3763C36.0626 31.5529 37.4327 29.6477 39.8468 29.6477C42.2609 29.6477 43.3831 31.318 43.3831 34.9848V35.4415H37.3805V35.9635C37.3805 39.1214 38.5028 40.1 39.7163 40.1C41.0604 40.1 41.8303 39.1475 42.026 37.2423H43.2657H43.2787ZM42.0521 34.4106C41.9869 31.6833 41.23 30.6916 39.7163 30.6916C38.2026 30.6916 37.4066 31.6833 37.3805 34.4106H42.0521Z" fill="#424142"/>
<path d="M43.2787 37.2423C43.0961 39.5781 41.8042 41.1309 39.7424 41.1309C37.4197 41.1309 36.0626 39.5128 36.0626 35.3763C36.0626 31.5529 37.4327 29.6477 39.8468 29.6477C42.2609 29.6477 43.3831 31.318 43.3831 34.9848V35.4415H37.3805V35.9635C37.3805 39.1214 38.5028 40.1 39.7163 40.1C41.0604 40.1 41.8303 39.1475 42.026 37.2423H43.2657H43.2787ZM42.0521 34.4106C41.9869 31.6833 41.23 30.6916 39.7163 30.6916C38.2026 30.6916 37.4066 31.6833 37.3805 34.4106H42.0521Z" stroke="#424142" stroke-width="0.04" stroke-miterlimit="10"/>
<path d="M48.4331 36.1723L46.1365 40.883H44.7402L47.6893 35.2197L44.8577 29.9087H46.267L48.4331 34.241L50.6124 29.9087H52.0086L49.1769 35.2197L52.1391 40.883H50.7298L48.4331 36.1723Z" fill="#424142"/>
<path d="M48.4331 36.1723L46.1365 40.883H44.7402L47.6893 35.2197L44.8577 29.9087H46.267L48.4331 34.241L50.6124 29.9087H52.0086L49.1769 35.2197L52.1391 40.883H50.7298L48.4331 36.1723Z" stroke="#424142" stroke-width="0.04" stroke-miterlimit="10"/>
<path d="M53.8094 29.9087H54.9316V31.4746H54.9708C55.3622 30.4567 56.2757 29.6477 57.685 29.6477C60.1513 29.6477 61.1822 31.5659 61.1822 35.4024C61.1822 39.2388 60.086 41.1309 57.6589 41.1309C56.2757 41.1309 55.3622 40.3871 55.1013 39.2258H55.0621V44.5237H53.8224V29.8956L53.8094 29.9087ZM57.4892 30.6916C56.7715 30.6916 56.1713 31.057 55.7537 31.6572C55.1926 32.4271 55.0491 33.4972 55.0491 35.4024C55.0491 39.4606 56.1843 40.1 57.4501 40.1C58.7159 40.1 59.8511 39.4606 59.8511 35.4024C59.8511 31.3441 58.7159 30.6916 57.4892 30.6916Z" fill="#424142"/>
<path d="M53.8094 29.9087H54.9316V31.4746H54.9708C55.3622 30.4567 56.2757 29.6477 57.685 29.6477C60.1513 29.6477 61.1822 31.5659 61.1822 35.4024C61.1822 39.2388 60.086 41.1309 57.6589 41.1309C56.2757 41.1309 55.3622 40.3871 55.1013 39.2258H55.0621V44.5237H53.8224V29.8956L53.8094 29.9087ZM57.4892 30.6916C56.7715 30.6916 56.1713 31.057 55.7537 31.6572C55.1926 32.4271 55.0491 33.4972 55.0491 35.4024C55.0491 39.4606 56.1843 40.1 57.4501 40.1C58.7159 40.1 59.8511 39.4606 59.8511 35.4024C59.8511 31.3441 58.7159 30.6916 57.4892 30.6916Z" stroke="#424142" stroke-width="0.04" stroke-miterlimit="10"/>
<path d="M63.6876 27.0117H64.9273V28.2384H63.6876V27.0117ZM63.6876 29.9087H64.9273V40.896H63.6876V29.9087Z" fill="#424142"/>
<path d="M63.6746 27.0117H64.9142V28.2384H63.6746V27.0117ZM63.6746 29.9087H64.9142V40.896H63.6746V29.9087Z" stroke="#424142" stroke-width="0.04" stroke-miterlimit="10"/>
<path d="M67.7589 29.9087H68.8811V31.4746H68.9203C69.3118 30.4567 70.2252 29.6477 71.6345 29.6477C74.1008 29.6477 75.1317 31.5659 75.1317 35.4024C75.1317 39.2388 74.0356 41.1309 71.6084 41.1309C70.2252 41.1309 69.3118 40.3871 69.0508 39.2258H69.0116V44.5237H67.772V29.8956L67.7589 29.9087ZM71.4388 30.6916C70.7211 30.6916 70.1208 31.057 69.7032 31.6572C69.1421 32.4271 68.9986 33.4972 68.9986 35.4024C68.9986 39.4606 70.1339 40.1 71.3996 40.1C72.6654 40.1 73.8007 39.4606 73.8007 35.4024C73.8007 31.3441 72.6654 30.6916 71.4388 30.6916Z" fill="#424142"/>
<path d="M67.7589 29.9087H68.8811V31.4746H68.9203C69.3118 30.4567 70.2252 29.6477 71.6345 29.6477C74.1008 29.6477 75.1317 31.5659 75.1317 35.4024C75.1317 39.2388 74.0356 41.1309 71.6084 41.1309C70.2252 41.1309 69.3118 40.3871 69.0508 39.2258H69.0116V44.5237H67.772V29.8956L67.7589 29.9087ZM71.4388 30.6916C70.7211 30.6916 70.1208 31.057 69.7032 31.6572C69.1421 32.4271 68.9986 33.4972 68.9986 35.4024C68.9986 39.4606 70.1339 40.1 71.3996 40.1C72.6654 40.1 73.8007 39.4606 73.8007 35.4024C73.8007 31.3441 72.6654 30.6916 71.4388 30.6916Z" stroke="#424142" stroke-width="0.04" stroke-miterlimit="10"/>
<path d="M77.5458 29.9087H78.7855V31.6311H78.8246C79.2944 30.3915 80.2861 29.6607 81.5911 29.6607C81.7346 29.6607 81.8781 29.6868 82.0217 29.726V30.9656C81.8129 30.9265 81.6041 30.9004 81.4214 30.9004C80.0382 30.9004 78.7724 31.8921 78.7724 34.0191V40.883H77.5328V29.8956L77.5458 29.9087Z" fill="#424142"/>
<path d="M77.5458 29.9087H78.7855V31.6311H78.8246C79.2944 30.3915 80.2861 29.6607 81.5911 29.6607C81.7346 29.6607 81.8781 29.6868 82.0217 29.726V30.9656C81.8129 30.9265 81.6041 30.9004 81.4214 30.9004C80.0382 30.9004 78.7724 31.8921 78.7724 34.0191V40.883H77.5328V29.8956L77.5458 29.9087Z" stroke="#424142" stroke-width="0.04" stroke-miterlimit="10"/>
<path d="M83.5354 33.1709C83.5354 30.9134 84.5924 29.6607 86.9282 29.6607C89.264 29.6607 90.0339 30.8351 90.0339 32.5707V39.0692C90.0339 39.6694 90.2426 39.9826 90.6733 39.9826H91.0256V40.896C90.8038 40.9743 90.595 41.0265 90.4514 41.0265C89.4727 41.0265 88.8594 40.8047 88.8594 39.6564V39.2779H88.8203C88.3244 40.7264 87.2283 41.144 85.9886 41.144C84.0704 41.144 83.1961 39.9435 83.1961 38.0383C83.1961 36.5768 83.8355 35.4284 85.4145 34.9978L87.7503 34.3323C88.6376 34.1105 88.8072 33.8625 88.8072 32.5968C88.8072 31.1875 88.0373 30.6916 86.9021 30.6916C85.4145 30.6916 84.7881 31.5789 84.7881 33.1709H83.5484H83.5354ZM88.7942 34.6846H88.755C88.6115 35.0761 87.933 35.2588 87.4371 35.4023L86.4062 35.6764C85.1665 36.0026 84.5271 36.629 84.5271 37.9469C84.5271 39.2649 85.1926 40.1 86.2627 40.1C87.7764 40.1 88.8072 38.9778 88.8072 36.9943V34.6716L88.7942 34.6846Z" fill="#424142"/>
<path d="M83.5354 33.1709C83.5354 30.9134 84.5924 29.6607 86.9282 29.6607C89.264 29.6607 90.0339 30.8351 90.0339 32.5707V39.0692C90.0339 39.6694 90.2426 39.9826 90.6733 39.9826H91.0256V40.896C90.8038 40.9743 90.595 41.0265 90.4514 41.0265C89.4727 41.0265 88.8594 40.8047 88.8594 39.6564V39.2779H88.8203C88.3244 40.7264 87.2283 41.144 85.9886 41.144C84.0704 41.144 83.1961 39.9435 83.1961 38.0383C83.1961 36.5768 83.8355 35.4284 85.4145 34.9978L87.7503 34.3323C88.6376 34.1105 88.8072 33.8625 88.8072 32.5968C88.8072 31.1875 88.0373 30.6916 86.9021 30.6916C85.4145 30.6916 84.7881 31.5789 84.7881 33.1709H83.5484H83.5354ZM88.7942 34.6846H88.755C88.6115 35.0761 87.933 35.2588 87.4371 35.4023L86.4062 35.6764C85.1665 36.0026 84.5271 36.629 84.5271 37.9469C84.5271 39.2649 85.1926 40.1 86.2627 40.1C87.7764 40.1 88.8072 38.9778 88.8072 36.9943V34.6716L88.7942 34.6846Z" stroke="#424142" stroke-width="0.04" stroke-miterlimit="10"/>
<path d="M92.2261 39.8521L97.4457 30.9395H92.5001V29.9087H98.7637V30.9395L93.544 39.8521H98.7637V40.883H92.2261V39.8521Z" fill="#424142"/>
<path d="M92.2261 39.8521L97.4457 30.9395H92.5001V29.9087H98.7637V30.9395L93.544 39.8521H98.7637V40.883H92.2261V39.8521Z" stroke="#424142" stroke-width="0.04" stroke-miterlimit="10"/>
<path d="M104.023 29.6607C106.437 29.6607 107.807 31.5659 107.807 35.3893C107.807 39.2127 106.437 41.144 104.023 41.144C101.608 41.144 100.238 39.2649 100.238 35.3893C100.238 31.5137 101.608 29.6607 104.023 29.6607ZM104.023 40.1C105.432 40.1 106.489 38.9256 106.489 35.3893C106.489 31.853 105.432 30.6916 104.023 30.6916C102.613 30.6916 101.556 31.8921 101.556 35.3893C101.556 38.8865 102.613 40.1 104.023 40.1Z" fill="#424142"/>
<path d="M104.023 29.6607C106.437 29.6607 107.807 31.5659 107.807 35.3893C107.807 39.2127 106.437 41.144 104.023 41.144C101.608 41.144 100.238 39.2649 100.238 35.3893C100.238 31.5137 101.608 29.6607 104.023 29.6607ZM104.023 40.1C105.432 40.1 106.489 38.9256 106.489 35.3893C106.489 31.853 105.432 30.6916 104.023 30.6916C102.613 30.6916 101.556 31.8921 101.556 35.3893C101.556 38.8865 102.613 40.1 104.023 40.1Z" stroke="#424142" stroke-width="0.04" stroke-miterlimit="10"/>
<path d="M111.421 26.1244H110.182V40.8308H111.421V26.1244Z" fill="#424142"/>
<path d="M111.421 26.1244H110.182V40.8308H111.421V26.1244Z" stroke="#424142" stroke-width="0.04" stroke-miterlimit="10"/>
<path d="M121.143 37.1901C120.96 39.5259 119.681 41.0787 117.607 41.0787C115.297 41.0787 113.927 39.4606 113.927 35.3241C113.927 31.5006 115.297 29.5955 117.711 29.5955C120.125 29.5955 121.247 31.2658 121.247 34.9326V35.3893H115.245V35.9113C115.245 39.0692 116.354 40.0478 117.581 40.0478C118.925 40.0478 119.695 39.0953 119.89 37.1901H121.13H121.143ZM119.929 34.3584C119.864 31.6311 119.107 30.6394 117.594 30.6394C116.08 30.6394 115.284 31.6311 115.258 34.3584H119.929Z" fill="#424142"/>
<path d="M121.143 37.1901C120.96 39.5259 119.681 41.0787 117.607 41.0787C115.297 41.0787 113.927 39.4606 113.927 35.3241C113.927 31.5006 115.297 29.5955 117.711 29.5955C120.125 29.5955 121.247 31.2658 121.247 34.9326V35.3893H115.245V35.9113C115.245 39.0692 116.354 40.0478 117.581 40.0478C118.925 40.0478 119.695 39.0953 119.89 37.1901H121.13H121.143ZM119.929 34.3584C119.864 31.6311 119.107 30.6394 117.594 30.6394C116.08 30.6394 115.284 31.6311 115.258 34.3584H119.929Z" stroke="#424142" stroke-width="0.04" stroke-miterlimit="10"/>
<path d="M72.0913 49.7956H70.5776V48.7647H72.0913V45.7242H73.3309V48.7647H75.2753V49.7956H73.3309V57.6642C73.3309 58.5254 73.7094 58.8256 74.5054 58.8256C74.7533 58.8256 75.0012 58.7864 75.2753 58.7081V59.739C75.1317 59.8173 74.8186 59.8565 74.401 59.8565C72.7307 59.8565 72.0913 59.3997 72.0913 57.9382V49.7956Z" fill="#424142"/>
<path d="M72.0913 49.7956H70.5776V48.7647H72.0913V45.7242H73.3309V48.7647H75.2753V49.7956H73.3309V57.6642C73.3309 58.5254 73.7094 58.8256 74.5054 58.8256C74.7533 58.8256 75.0012 58.7864 75.2753 58.7081V59.739C75.1317 59.8173 74.8186 59.8565 74.401 59.8565C72.7307 59.8565 72.0913 59.3997 72.0913 57.9382V49.7956Z" stroke="#424142" stroke-width="0.04" stroke-miterlimit="10"/>
<path d="M76.8672 52.027C76.8672 49.7695 77.9373 48.5167 80.26 48.5167C82.5828 48.5167 83.3657 49.6912 83.3657 51.4267V57.9121C83.3657 58.5254 83.5745 58.8256 84.0051 58.8256H84.3574V59.739C84.1356 59.8173 83.9399 59.8695 83.7833 59.8695C82.8176 59.8695 82.1913 59.6477 82.1913 58.5124V58.134H82.1521C81.6563 59.5824 80.534 60 79.3205 60C77.4022 60 76.528 58.7995 76.528 56.8943C76.528 55.4458 77.1935 54.2975 78.7333 53.8538L81.0691 53.1883C81.9434 52.9404 82.126 52.7316 82.126 51.4528C82.126 50.0435 81.3431 49.5476 80.2209 49.5476C78.7594 49.5476 78.1069 50.435 78.1069 52.027H76.8672ZM82.113 53.5407H82.0738C81.9434 53.906 81.2517 54.1409 80.7559 54.2584L79.725 54.5324C78.4853 54.8586 77.8459 55.498 77.8459 56.803C77.8459 58.1079 78.5114 58.9561 79.5815 58.9561C81.0952 58.9561 82.126 57.8208 82.126 55.8504V53.5407H82.113Z" fill="#424142"/>
<path d="M76.8672 52.027C76.8672 49.7695 77.9373 48.5167 80.26 48.5167C82.5828 48.5167 83.3657 49.6912 83.3657 51.4267V57.9121C83.3657 58.5254 83.5745 58.8256 84.0051 58.8256H84.3574V59.739C84.1356 59.8173 83.9399 59.8695 83.7833 59.8695C82.8176 59.8695 82.1913 59.6477 82.1913 58.5124V58.134H82.1521C81.6563 59.5824 80.534 60 79.3205 60C77.4022 60 76.528 58.7995 76.528 56.8943C76.528 55.4458 77.1935 54.2975 78.7333 53.8538L81.0691 53.1883C81.9434 52.9404 82.126 52.7316 82.126 51.4528C82.126 50.0435 81.3431 49.5476 80.2209 49.5476C78.7594 49.5476 78.1069 50.435 78.1069 52.027H76.8672ZM82.113 53.5407H82.0738C81.9434 53.906 81.2517 54.1409 80.7559 54.2584L79.725 54.5324C78.4853 54.8586 77.8459 55.498 77.8459 56.803C77.8459 58.1079 78.5114 58.9561 79.5815 58.9561C81.0952 58.9561 82.126 57.8208 82.126 55.8504V53.5407H82.113Z" stroke="#424142" stroke-width="0.04" stroke-miterlimit="10"/>
<path d="M86.2496 44.9804H87.4892V50.4219H87.5284C87.8024 49.2605 88.7289 48.5167 90.086 48.5167C92.5001 48.5167 93.5963 50.4611 93.5963 54.2453C93.5963 58.0296 92.5001 59.9869 90.086 59.9869C88.7811 59.9869 87.7241 59.1779 87.3979 57.9252H87.3587V59.739H86.2496V44.9804ZM89.8903 58.9561C91.13 58.9561 92.2913 58.3167 92.2913 54.2453C92.2913 50.174 91.13 49.5607 89.8903 49.5607C88.6506 49.5607 87.4892 50.2001 87.4892 54.2453C87.4892 58.2906 88.6245 58.9561 89.8903 58.9561Z" fill="#424142"/>
<path d="M86.2496 44.9804H87.4892V50.4219H87.5284C87.8024 49.2605 88.7289 48.5167 90.086 48.5167C92.5001 48.5167 93.5963 50.4611 93.5963 54.2453C93.5963 58.0296 92.5001 59.9869 90.086 59.9869C88.7811 59.9869 87.7241 59.1779 87.3979 57.9252H87.3587V59.739H86.2496V44.9804ZM89.8903 58.9561C91.13 58.9561 92.2913 58.3167 92.2913 54.2453C92.2913 50.174 91.13 49.5607 89.8903 49.5607C88.6506 49.5607 87.4892 50.2001 87.4892 54.2453C87.4892 58.2906 88.6245 58.9561 89.8903 58.9561Z" stroke="#424142" stroke-width="0.04" stroke-miterlimit="10"/>
<path d="M97.3413 44.9804H96.1017V59.739H97.3413V44.9804Z" fill="#424142"/>
<path d="M97.3413 44.9804H96.1017V59.739H97.3413V44.9804Z" stroke="#424142" stroke-width="0.04" stroke-miterlimit="10"/>
<path d="M107.05 56.0983C106.867 58.4341 105.588 59.987 103.514 59.987C101.204 59.987 99.8337 58.3689 99.8337 54.2453C99.8337 50.448 101.191 48.5167 103.618 48.5167C106.045 48.5167 107.154 50.187 107.154 53.8538V54.3106H101.165V54.8325C101.165 57.9904 102.274 58.9691 103.501 58.9691C104.805 58.9691 105.615 58.0426 105.81 56.1114H107.05V56.0983ZM105.836 53.2666C105.797 50.5394 105.027 49.5476 103.501 49.5476C101.974 49.5476 101.204 50.5394 101.165 53.2666H105.836Z" fill="#424142"/>
<path d="M107.05 56.0983C106.867 58.4341 105.588 59.987 103.514 59.987C101.204 59.987 99.8337 58.3689 99.8337 54.2453C99.8337 50.448 101.191 48.5167 103.618 48.5167C106.045 48.5167 107.154 50.187 107.154 53.8538V54.3106H101.165V54.8325C101.165 57.9904 102.274 58.9691 103.501 58.9691C104.805 58.9691 105.615 58.0426 105.81 56.1114H107.05V56.0983ZM105.836 53.2666C105.797 50.5394 105.027 49.5476 103.501 49.5476C101.974 49.5476 101.204 50.5394 101.165 53.2666H105.836Z" stroke="#424142" stroke-width="0.04" stroke-miterlimit="10"/>
<path d="M110.025 49.7956H108.511V48.7647H110.025V45.7242H111.265V48.7647H113.209V49.7956H111.265V57.6642C111.265 58.5254 111.643 58.8256 112.439 58.8256C112.687 58.8256 112.935 58.7864 113.209 58.7081V59.739C113.066 59.8173 112.752 59.8565 112.348 59.8565C110.678 59.8565 110.038 59.3997 110.038 57.9382V49.7956H110.025Z" fill="#424142"/>
<path d="M110.025 49.7956H108.511V48.7647H110.025V45.7242H111.265V48.7647H113.209V49.7956H111.265V57.6642C111.265 58.5254 111.643 58.8256 112.439 58.8256C112.687 58.8256 112.935 58.7864 113.209 58.7081V59.739C113.066 59.8173 112.752 59.8565 112.348 59.8565C110.678 59.8565 110.038 59.3997 110.038 57.9382V49.7956H110.025Z" stroke="#424142" stroke-width="0.04" stroke-miterlimit="10"/>
<path d="M116.772 54.2714C115.219 53.6712 114.658 52.7577 114.658 51.6746C114.658 49.4171 116.067 48.5167 117.92 48.5167C119.982 48.5167 120.934 49.5737 120.934 51.5702V51.8834H119.695V51.5702C119.695 50.1479 119.029 49.5476 117.894 49.5476C116.445 49.5476 115.884 50.3175 115.884 51.4006C115.884 52.1705 116.132 52.7577 117.372 53.2405L119.173 53.9191C120.66 54.4802 121.221 55.5111 121.221 56.7116C121.221 58.5907 120.151 59.9739 117.829 59.9739C115.506 59.9739 114.462 59.0474 114.462 56.5681V56.2157H115.702V56.5028C115.702 58.1079 116.406 58.943 117.815 58.943C119.133 58.943 119.982 58.1992 119.982 56.9726C119.982 56.007 119.59 55.3806 118.494 54.95L116.759 54.2714H116.772Z" fill="#424142"/>
<path d="M116.772 54.2714C115.219 53.6712 114.658 52.7577 114.658 51.6746C114.658 49.4171 116.067 48.5167 117.92 48.5167C119.982 48.5167 120.934 49.5737 120.934 51.5702V51.8834H119.695V51.5702C119.695 50.1479 119.029 49.5476 117.894 49.5476C116.445 49.5476 115.884 50.3175 115.884 51.4006C115.884 52.1705 116.132 52.7577 117.372 53.2405L119.173 53.9191C120.66 54.4802 121.221 55.5111 121.221 56.7116C121.221 58.5907 120.151 59.9739 117.829 59.9739C115.506 59.9739 114.462 59.0474 114.462 56.5681V56.2157H115.702V56.5028C115.702 58.1079 116.406 58.943 117.815 58.943C119.133 58.943 119.982 58.1992 119.982 56.9726C119.982 56.007 119.59 55.3806 118.494 54.95L116.759 54.2714H116.772Z" stroke="#424142" stroke-width="0.04" stroke-miterlimit="10"/>
<path d="M129.586 0.965639C128.986 0.352329 128.203 0.0261002 127.341 0.0261002C126.48 0.0261002 125.749 0.326231 125.162 0.913443C124.562 1.5137 124.223 2.32275 124.223 3.14485C124.223 3.96694 124.536 4.73684 125.136 5.33711C125.736 5.95042 126.519 6.27664 127.354 6.27664C128.19 6.27664 128.959 5.95042 129.573 5.3632C130.173 4.77599 130.486 4.00609 130.486 3.14485C130.486 2.2836 130.173 1.5398 129.599 0.95259M129.26 5.03697C128.738 5.54589 128.059 5.81992 127.328 5.81992C126.65 5.81992 125.984 5.53284 125.475 5.02393C124.966 4.51501 124.705 3.8495 124.705 3.1579C124.705 2.46629 124.993 1.78774 125.514 1.25272C126.01 0.743804 126.65 0.49587 127.38 0.49587C128.111 0.49587 128.764 0.769902 129.286 1.29187C129.782 1.80078 130.043 2.45324 130.043 3.21009C130.043 3.91475 129.768 4.56721 129.26 5.05002" fill="#154633"/>
<path d="M129.586 0.965639C128.986 0.352329 128.203 0.0261002 127.341 0.0261002C126.48 0.0261002 125.749 0.326231 125.162 0.913443C124.562 1.5137 124.223 2.32275 124.223 3.14485C124.223 3.96694 124.536 4.73684 125.136 5.33711C125.736 5.95042 126.519 6.27664 127.354 6.27664C128.19 6.27664 128.959 5.95042 129.573 5.3632C130.173 4.77599 130.486 4.00609 130.486 3.14485C130.486 2.2836 130.173 1.5398 129.599 0.95259L129.586 0.965639ZM129.247 5.05002C128.725 5.55894 128.046 5.83297 127.315 5.83297C126.637 5.83297 125.971 5.54589 125.462 5.03697C124.953 4.52806 124.692 3.86255 124.692 3.17095C124.692 2.47934 124.979 1.80079 125.501 1.26577C125.997 0.756853 126.637 0.508919 127.367 0.508919C128.098 0.508919 128.751 0.782951 129.273 1.30492C129.768 1.81383 130.029 2.46629 130.029 3.22314C130.029 3.9278 129.755 4.58025 129.247 5.06307V5.05002Z" stroke="#154633" stroke-width="0.04" stroke-miterlimit="10"/>
<path d="M128.79 2.3619C128.79 1.78773 128.333 1.4876 127.42 1.4876H126.167V4.72379H126.859V3.36668H127.367L128.007 4.72379H128.79L128.072 3.26229C128.542 3.15789 128.79 2.83166 128.79 2.3619ZM127.328 2.93606H126.872V1.91822H127.302C127.824 1.91822 128.085 2.07481 128.085 2.44019C128.085 2.80557 127.85 2.93606 127.328 2.93606Z" fill="#154633"/>
<path d="M128.79 2.3619C128.79 1.78773 128.333 1.4876 127.42 1.4876H126.167V4.72379H126.859V3.36668H127.367L128.007 4.72379H128.79L128.072 3.26229C128.542 3.15789 128.79 2.83166 128.79 2.3619ZM127.328 2.93606H126.872V1.91822H127.302C127.824 1.91822 128.085 2.07481 128.085 2.44019C128.085 2.80557 127.85 2.93606 127.328 2.93606Z" stroke="#154633" stroke-width="0.04" stroke-miterlimit="10"/>
</g>
<defs>
<clipPath id="clip0_53_150158">
<rect width="129.526" height="60" fill="white" transform="translate(0.973389)"/>
</clipPath>
</defs>
</svg>
