<svg width="161" height="60" viewBox="0 0 161 60" fill="none" xmlns="http://www.w3.org/2000/svg">
<g clip-path="url(#clip0_53_104542)">
<path d="M41.1295 38.1934H39.9717C36.931 41.6539 34.7681 45.9924 34.5137 51.0178C34.361 54.1221 34.959 57.0865 35.9386 60H36.9055C36.2821 57.7735 35.8114 55.4326 35.8114 53.0789C35.8114 47.0102 37.6943 42.659 41.1295 38.2061M40.5188 53.5115C40.5188 53.1298 40.5697 52.9135 40.6714 52.3537L42.2618 44.5165H44.6155L44.8317 43.257H42.5289L43.2669 39.5547H41.8546L41.1167 43.257H39.0429L38.7758 44.5165H40.8496L39.2592 52.6209C39.1447 53.1679 39.1066 53.6132 39.1066 53.8804C39.1066 55.3562 40.1753 55.6361 41.2312 55.6361C41.702 55.6361 42.1982 55.5852 42.6562 55.5471L42.8979 54.2494C42.3381 54.3384 41.8038 54.3893 41.244 54.3893C40.6842 54.3893 40.506 53.9568 40.506 53.5369M50.3152 42.9262C46.2058 42.9262 43.8776 46.7685 43.8776 50.7634C43.8776 53.8168 45.506 55.8524 48.4831 55.8524C52.7452 55.8524 54.8699 51.8321 54.8699 47.6972C54.8699 44.6947 52.987 42.9135 50.3152 42.9135M48.7503 54.5929C46.3966 54.5929 45.2898 52.9771 45.2898 50.6107C45.2898 47.7481 46.9819 44.1603 50.0735 44.1603C52.3381 44.1603 53.4704 45.7252 53.4704 48.0026C53.4704 50.8397 51.8419 54.5929 48.7503 54.5929ZM54.6282 55.4962H56.0404L59.4882 38.5751H58.076L54.6409 55.4962H54.6282ZM67.8597 43.2697L62.4526 53.8168H62.4017L61.0404 43.2697H59.5646L61.3712 55.4962H62.8852L69.3865 43.2697H67.847H67.8597ZM78.2796 45.6361C78.2796 43.4733 75.8368 42.9135 74.2719 42.9135C71.791 42.9135 69.7809 44.1476 69.3992 46.9211H70.8114C71.104 44.8855 72.6435 44.173 74.4373 44.173C75.5061 44.173 76.8801 44.4784 76.8801 45.9288C76.8801 47.5445 76.4094 48.0789 75.4933 48.3206C74.6027 48.5623 73.305 48.4351 71.8292 48.6768C69.7681 49.0585 67.8216 49.8855 67.8216 52.4682C67.8216 54.8601 69.4119 55.8524 71.5111 55.8524C73.1269 55.8524 74.7045 55.0255 75.5188 53.6005L75.5569 53.6514C75.5315 53.8677 75.5188 54.0967 75.5188 54.313C75.5442 55.1145 75.9641 55.6361 76.7529 55.6361C77.1345 55.6361 77.6053 55.5852 77.9106 55.5216L78.1142 54.3384C77.9106 54.3639 77.758 54.3893 77.5544 54.3893C77.2109 54.3893 76.8165 54.313 76.8165 53.8931C76.8165 53.1552 77.0582 52.5191 77.5798 49.771C77.8088 48.6768 78.2923 46.8321 78.2923 45.6489M75.9386 51.0305C75.4933 53.1679 74.0557 54.6056 71.8038 54.6056C70.4679 54.6056 69.2338 53.9695 69.2338 52.4046C69.2338 49.8473 72.0709 49.7456 73.7885 49.6056C74.501 49.5547 75.8877 49.5038 76.333 48.9186L76.3839 48.9695L75.9386 51.0305ZM86.8419 42.9262C84.8063 42.9262 83.6231 43.8677 82.6435 45.4835H82.5926L83.0379 43.2824H81.7656L78.3686 60.0382H79.7809L81.1931 53.0662H81.244C81.562 55.0636 83.1142 55.8651 84.9335 55.8651C88.8012 55.8651 91.244 51.6667 91.244 47.9262C91.244 44.9364 89.819 42.9262 86.8674 42.9262M84.9208 54.6056C82.8597 54.6056 81.702 53.2061 81.702 51.0814C81.702 48.0534 83.4831 44.1858 86.7274 44.1858C88.8521 44.1858 89.8317 45.7506 89.8317 47.8372C89.8317 50.827 88.1524 54.6183 84.9208 54.6183M93.5722 53.5496C93.5722 53.1679 93.6231 52.9517 93.7249 52.3919L95.3152 44.5547H97.6562L97.8725 43.2952H95.5697L96.3076 39.5929H94.8954L94.1575 43.2952H92.0709L91.8038 44.5547H93.8775L92.2872 52.659C92.1727 53.2061 92.1345 53.6514 92.1345 53.9186C92.1345 55.3944 93.2033 55.6743 94.2592 55.6743C94.73 55.6743 95.2261 55.6234 95.6842 55.5852L95.9259 54.2875C95.3661 54.3766 94.8317 54.4275 94.2719 54.4275C93.7122 54.4275 93.534 53.9949 93.534 53.5751M106.855 45.687C106.855 43.5242 104.425 42.9644 102.86 42.9644C100.379 42.9644 98.3686 44.1985 97.987 46.972H99.3992C99.6918 44.9364 101.231 44.2239 103.025 44.2239C104.094 44.2239 105.455 44.5293 105.455 45.9796C105.455 47.5954 104.984 48.1298 104.068 48.3715C103.178 48.6132 101.88 48.486 100.404 48.7277C98.3432 49.1094 96.3966 49.9364 96.3966 52.5191C96.3966 54.9109 97.987 55.9033 100.086 55.9033C101.689 55.9033 103.28 55.0763 104.094 53.6514L104.132 53.7023C104.107 53.9186 104.094 54.1476 104.094 54.3639C104.119 55.1654 104.539 55.687 105.328 55.687C105.71 55.687 106.18 55.6361 106.486 55.5725L106.689 54.3893C106.486 54.4148 106.333 54.4402 106.129 54.4402C105.799 54.4402 105.392 54.3639 105.392 53.944C105.392 53.2061 105.633 52.57 106.155 49.8219C106.371 48.7277 106.867 46.883 106.867 45.6997M104.526 51.0814C104.081 53.2188 102.643 54.6565 100.392 54.6565C99.0557 54.6565 97.8216 54.0204 97.8216 52.4555C97.8216 49.8982 100.659 49.7964 102.376 49.6565C103.089 49.6056 104.476 49.5547 104.921 48.9695L104.972 49.0204L104.526 51.0814ZM117.351 46.4377C117.351 46.8448 117.287 47.2901 117.198 47.6718L115.595 55.5598H117.007L118.598 47.7226C118.712 47.1501 118.776 46.6539 118.776 46.2723C118.776 43.9313 117.3 42.9771 115.29 42.9771C113.572 42.9771 112.045 44.1094 111.18 45.5598H111.129L111.537 43.3333H110.239L107.758 55.5598H109.17L110.442 49.2875C111.066 46.1832 112.923 44.2366 114.959 44.2366C116.206 44.2366 117.376 44.8346 117.376 46.4377M120.684 38.2824H119.717C120.341 40.5089 120.811 42.8499 120.811 45.2036C120.811 51.2723 118.941 55.6234 115.493 60.0891H116.664C119.705 56.6285 121.867 52.2901 122.109 47.2646C122.262 44.1603 121.664 41.1959 120.684 38.2824Z" fill="#00ADE8"/>
<path d="M9.9844 10.5089C9.9844 7.98983 12.8852 7.03563 14.9717 7.03563C16.7783 7.03563 19.1574 7.7481 20.3406 9.27481L25.417 3.71502C22.5671 1.19593 18.9157 0.203568 15.1116 0.203568C8.50857 0.203568 2.2872 3.95675 2.2872 11.1196C2.2872 22.3282 18.0506 19.0076 18.0506 25.1781C18.0506 27.5573 15.3406 28.6896 12.9233 28.6896C10.506 28.6896 7.98695 27.5064 6.46023 25.5089L1.19305 31.3104C4.37372 34.2494 8.17779 35.5344 12.5035 35.5344C19.4373 35.5344 25.4679 31.972 25.4679 24.4657C25.4679 12.6845 9.9844 16.6285 9.9844 10.5089ZM38.4322 11.0305C34.6791 11.0305 30.8877 12.2646 28.2668 14.7328L32.0709 18.626C33.5849 16.9211 35.5442 15.8651 37.8724 15.8651C40.3406 15.8651 42.4272 17.4809 42.4272 20C36.4857 20 26.8037 20.14 26.8037 28.1171C26.8037 32.7735 30.6969 35.2417 35.0226 35.2417C37.9233 35.2417 40.7732 34.2494 42.3381 31.7685H42.4272V34.6692H48.9793V22.9389C48.9793 15.2417 46.7528 11.0178 38.4322 11.0178M42.4272 26.0687C42.4272 28.9186 39.819 30.3944 37.0073 30.3944C35.4424 30.3944 33.6358 29.5802 33.6358 27.8753C33.6358 24.7456 38.4831 24.5547 40.6587 24.5547H42.4144V26.0687H42.4272ZM79.4246 11.0178C76.0022 11.0178 73.7757 12.201 72.1091 15.1527C70.875 12.3537 68.216 11.0178 64.9844 11.0178C61.5111 11.0178 59.1956 12.9135 58.2414 14.7201H58.1396V11.5903H51.2948V34.6692H58.4195V23.1807C58.4195 20.1908 58.992 17.2901 62.6943 17.2901C65.9768 17.2901 65.875 20.7634 65.875 22.4682V34.6692H72.9997V22.4682C72.9997 19.6183 74.0429 17.2901 77.3254 17.2901C79.6536 17.2901 80.4551 19.0967 80.4551 21.2341V34.6692H87.5798V21.0433C87.5798 15.4326 85.6841 11.0178 79.4119 11.0178M96.791 18.3333C96.791 16.9593 98.216 16.4377 99.3992 16.4377C101.104 16.4377 102.491 17.0992 103.534 18.3842L107.898 14.0585C105.76 11.7812 102.389 11.0178 99.3483 11.0178C94.5009 11.0178 89.6536 13.397 89.6536 18.8041C89.6536 27.5954 101.664 24.4529 101.664 28.1552C101.664 29.3893 100.048 29.8219 98.4322 29.8219C96.2948 29.8219 94.7299 28.9186 93.3941 27.3028L89.0684 32.0992C91.3457 34.4275 94.9081 35.229 98.1396 35.229C103.076 35.229 108.776 33.5242 108.776 27.6336C108.776 18.8422 96.7528 21.743 96.7528 18.3206M122.402 28.9567C118.839 28.9567 116.702 26.5776 116.702 23.1171C116.702 19.6565 118.839 17.2774 122.402 17.2774C123.878 17.2774 125.201 18.0407 125.913 19.0331L130.621 14.0967C128.394 11.8193 125.112 11.0051 122.402 11.0051C115.277 11.0051 109.577 15.7506 109.577 23.1171C109.577 30.4835 115.277 35.229 122.402 35.229C125.112 35.229 128.394 34.4148 130.621 32.1374L125.913 27.201C125.099 28.1552 123.967 28.9567 122.402 28.9567ZM142.249 11.0051C138.496 11.0051 134.704 12.2392 132.084 14.7074L135.888 18.6005C137.414 16.8957 139.361 15.8397 141.689 15.8397C144.157 15.8397 146.244 17.4555 146.244 19.9746C140.302 19.9746 130.621 20.1145 130.621 28.0916C130.621 32.7481 134.514 35.2163 138.839 35.2163C141.74 35.2163 144.59 34.2239 146.155 31.743H146.257V34.6438H152.809V22.9135C152.809 15.2163 150.582 10.9924 142.262 10.9924M146.257 26.0433C146.257 28.8931 143.649 30.369 140.837 30.369C139.272 30.369 137.465 29.5547 137.465 27.8499C137.465 24.7201 142.313 24.5293 144.488 24.5293H146.244V26.0433H146.257Z" fill="#F58220"/>
<path d="M157.351 10.3435C159.132 10.3435 160.595 11.7939 160.595 13.5878C160.595 15.3817 159.145 16.8193 157.351 16.8193C155.557 16.8193 154.107 15.369 154.107 13.5878C154.107 11.8066 155.557 10.3435 157.351 10.3435ZM157.351 16.0433C158.648 16.0433 159.704 14.9364 159.704 13.5878C159.704 12.2392 158.648 11.1323 157.351 11.1323C156.053 11.1323 154.997 12.2392 154.997 13.5878C154.997 14.9364 156.053 16.0433 157.351 16.0433ZM156.104 11.8575H157.313C157.682 11.8575 158.763 11.8575 158.763 12.9516C158.763 13.6387 158.369 13.855 157.974 13.9058L158.839 15.2544H157.923L157.147 13.944H157.007V15.2544H156.117V11.8575H156.104ZM156.982 13.2697H157.338C157.542 13.2697 157.86 13.2697 157.86 12.9008C157.86 12.5318 157.542 12.5318 157.338 12.5318H156.982V13.257V13.2697Z" fill="#F58220"/>
</g>
<defs>
<clipPath id="clip0_53_104542">
<rect width="159.669" height="60" fill="white" transform="translate(0.913147)"/>
</clipPath>
</defs>
</svg>
